<svg xmlns="http://www.w3.org/2000/svg" width="1577" height="582" viewBox="0 0 1577 582">
  <defs>
    <linearGradient id="logo-a" x1="5.181%" y1="60.191%" y2="60.191%">
      <stop offset="0%" stop-color="#00AFCC"/>
      <stop offset="100%" stop-color="#1AE6CD"/>
    </linearGradient>
  </defs>
  <path fill="url(#logo-a)" fill-rule="evenodd" d="M3.7622536,553.987069 L5.01633813,554.405172 C7.24583289,554.962646 9.68430621,555.520112 12.3318312,556.077586 C14.9793563,556.63506 17.4178296,556.913793 19.6473244,556.913793 C26.3358086,556.913793 31.7004499,555.659495 35.7414092,553.150862 C39.7823685,550.642229 42.7782071,547.367118 44.729015,543.325431 C46.6798229,539.283744 47.9338949,534.893702 48.4912686,530.155172 C49.0486423,525.416643 49.327325,520.678185 49.327325,515.939655 L49.327325,285.982759 L76.9171847,285.982759 L76.9171847,520.538793 C76.9171847,523.326163 76.7778434,528.134305 76.4991565,534.963362 C76.2204697,541.792419 74.478703,548.691057 71.2738043,555.659483 C68.0689056,562.627908 62.6345936,568.760031 54.9707054,574.056034 C47.3068171,579.352038 36.2291812,582 21.7374652,582 C13.9342336,582 6.68848429,580.606336 0,577.818966 L3.7622536,553.987069 Z M295.545922,368.767241 C295.545922,350.091861 289.972268,334.970604 278.824795,323.403017 C267.677321,311.835431 252.071092,306.051724 232.005639,306.051724 C223.08766,306.051724 214.448497,307.793804 206.087892,311.278017 C197.727286,314.76223 190.411866,319.431005 184.141412,325.284483 C177.870958,331.13796 172.85467,337.827549 169.092398,345.353448 C165.330125,352.879348 163.449017,360.683868 163.449017,368.767241 L295.545922,368.767241 Z M162.612961,391.344828 C163.449022,401.100623 165.817824,410.298807 169.71944,418.939655 C173.621056,427.580503 178.776685,435.036607 185.186483,441.30819 C191.59628,447.579773 198.981371,452.527281 207.341976,456.150862 C215.702582,459.774443 224.759768,461.586207 234.513808,461.586207 C249.284211,461.586207 262.033942,458.17173 272.763386,451.342672 C283.49283,444.513615 291.644297,436.639412 297.218034,427.719828 L318.537471,445.280172 C306.832624,460.053235 293.943551,470.645083 279.869865,477.056034 C265.796179,483.466986 250.677645,486.672414 234.513808,486.672414 C220.022092,486.672414 206.575653,484.094135 194.174089,478.9375 C181.772524,473.780865 171.112912,466.603494 162.194933,457.405172 C153.276954,448.206851 146.240217,437.33627 141.08451,424.793103 C135.928803,412.249937 133.350989,398.592028 133.350989,383.818966 C133.350989,369.045903 135.859133,355.387994 140.875496,342.844828 C145.891859,330.301661 152.858926,319.43108 161.776905,310.232759 C170.694884,301.034437 181.145484,293.857066 193.129018,288.700431 C205.112552,283.543796 218.071296,280.965517 232.005639,280.965517 C246.776041,280.965517 260.013468,283.613479 271.718316,288.909483 C283.423163,294.205486 293.246727,301.243491 301.189302,310.023707 C309.131877,318.803923 315.193225,329.117038 319.373528,340.963362 C323.55383,352.809686 325.64395,365.422347 325.64395,378.801724 L325.64395,391.344828 L162.612961,391.344828 Z M402.143107,285.982759 C402.700481,291.278762 403.048834,296.505003 403.188177,301.661638 C403.327521,306.818273 403.397192,312.044514 403.397192,317.340517 L404.233248,317.340517 C407.298803,312.044514 411.20036,307.166689 415.938037,302.706897 C420.675713,298.247104 425.970684,294.414528 431.823108,291.209052 C437.675531,288.003576 443.876221,285.49498 450.425362,283.68319 C456.974502,281.871399 463.453874,280.965517 469.863672,280.965517 C494.945488,280.965517 513.477885,287.585422 525.461419,300.825431 C537.444954,314.06544 543.436631,332.94959 543.436631,357.478448 L543.436631,481.655172 L515.846771,481.655172 L515.846771,373.366379 C515.846771,351.624891 512.084555,334.970604 504.560011,323.403017 C497.035466,311.835431 483.101332,306.051724 462.757193,306.051724 C461.363759,306.051724 457.462201,306.60919 451.052404,307.724138 C444.642606,308.839086 437.884552,311.905147 430.778037,316.922414 C423.671523,321.93968 417.331492,329.465467 411.757755,339.5 C406.184018,349.534533 403.397192,363.471175 403.397192,381.310345 L403.397192,481.655172 L375.807332,481.655172 L375.807332,329.047414 C375.807332,323.75141 375.59832,317.061822 375.18029,308.978448 C374.762259,300.895075 374.274565,293.229921 373.717191,285.982759 L402.143107,285.982759 Z M634.566774,285.982759 C635.124148,291.278762 635.472501,296.505003 635.611844,301.661638 C635.751188,306.818273 635.820858,312.044514 635.820858,317.340517 L636.656915,317.340517 C639.72247,312.044514 643.624027,307.166689 648.361704,302.706897 C653.09938,298.247104 658.394351,294.414528 664.246774,291.209052 C670.099198,288.003576 676.299887,285.49498 682.849028,283.68319 C689.398169,281.871399 695.877541,280.965517 702.287339,280.965517 C727.369155,280.965517 745.901552,287.585422 757.885086,300.825431 C769.868621,314.06544 775.860298,332.94959 775.860298,357.478448 L775.860298,481.655172 L748.270438,481.655172 L748.270438,373.366379 C748.270438,351.624891 744.508222,334.970604 736.983677,323.403017 C729.459133,311.835431 715.524999,306.051724 695.18086,306.051724 C693.787425,306.051724 689.885868,306.60919 683.476071,307.724138 C677.066273,308.839086 670.308219,311.905147 663.201704,316.922414 C656.095189,321.93968 649.755159,329.465467 644.181422,339.5 C638.607685,349.534533 635.820858,363.471175 635.820858,381.310345 L635.820858,481.655172 L608.230999,481.655172 L608.230999,329.047414 C608.230999,323.75141 608.021987,317.061822 607.603956,308.978448 C607.185926,300.895075 606.698231,293.229921 606.140858,285.982759 L634.566774,285.982759 Z M247.183523,104.055416 C260.019226,93.0169046 269.643729,79.0918839 273.660616,60.3651359 C278.136578,39.4981753 275.898597,19.3764634 266.946673,0 C232.734569,16.6847581 207.370782,28.6087356 190.855314,35.7719324 C122.863142,65.2619401 87.9081805,71.5438647 54.3384632,105.080051 C37.3631136,122.038445 32.1411576,150.357892 38.6725951,190.038391 C44.6405449,161.718944 58.0684318,140.106735 78.9562559,125.201763 C93.5744245,114.770644 135.909021,100.362432 184.14137,78.2511021 C197.932437,71.9288134 218.074267,61.4953331 244.566861,46.9506612 C243.074874,67.8176218 234.122949,84.9583394 217.711087,98.372814 C201.299226,111.787289 173.697458,124.456515 134.905785,136.380492 C170.510879,136.380492 197.279226,132.306067 215.210824,124.157217 C210.624647,144.457872 201.014156,160.456275 186.379351,172.152425 C171.459477,184.076402 146.841684,191.528888 112.525973,194.509882 C129.190803,199.662892 146.066674,201.020947 163.153587,198.584049 L161.761559,198.981374 C155.793609,210.905351 143.111716,219.848334 123.715879,225.810323 C104.320042,231.772312 84.1782119,230.281815 63.2903878,221.338832 C75.2262873,236.243803 96.1141114,242.951041 125.95386,241.460543 C155.616507,239.978893 177.907505,223.032241 192.826853,190.62059 C198.117949,188.544551 203.428719,186.114738 208.759163,183.331153 C236.666553,168.75777 249.474673,142.332524 247.183523,104.055416 Z M913.391568,447.788793 L973.169598,285.982759 L1006.61185,285.982759 L908.793258,532.663793 C902.940835,547.715592 895.486073,559.701105 886.428751,568.62069 C877.371428,577.540274 864.343014,582 847.343116,582 C843.162814,582 838.912903,581.860634 834.593257,581.581897 C830.273611,581.30316 826.0237,580.466961 821.843397,579.073276 L824.769595,552.314655 C830.622018,555.380762 837.589085,556.913793 845.671004,556.913793 C855.425043,556.913793 863.088816,553.847732 868.662553,547.715517 C874.23629,541.583303 879.113237,532.942584 883.29354,521.793103 L897.506498,484.163793 L817.245087,285.982759 L851.941426,285.982759 L913.391568,447.788793 Z M1090.9706,479.751534 L1064.03698,479.751534 L1064.03698,171.183618 L1090.9706,171.183618 L1090.9706,479.751534 Z M1203.19401,215.264749 C1203.19401,220.978998 1201.15361,225.672775 1197.07274,229.346221 C1192.99186,233.019667 1188.50297,234.856362 1183.60593,234.856362 C1178.70888,234.856362 1174.21999,233.019667 1170.13912,229.346221 C1166.05824,225.672775 1164.01784,220.978998 1164.01784,215.264749 C1164.01784,209.550499 1166.05824,204.856722 1170.13912,201.183276 C1174.21999,197.50983 1178.70888,195.673135 1183.60593,195.673135 C1188.50297,195.673135 1192.99186,197.50983 1197.07274,201.183276 C1201.15361,204.856722 1203.19401,209.550499 1203.19401,215.264749 Z M1197.07274,479.751534 L1170.13912,479.751534 L1170.13912,288.7333 L1197.07274,288.7333 L1197.07274,479.751534 Z M1359.08254,313.222817 L1313.78509,313.222817 L1313.78509,479.751534 L1286.85147,479.751534 L1286.85147,313.222817 L1246.45104,313.222817 L1246.45104,288.7333 L1286.85147,288.7333 L1286.85147,236.488997 C1286.85147,211.183036 1292.70063,193.15621 1304.39913,182.40798 C1316.09763,171.659749 1331.60471,166.285714 1350.92083,166.285714 C1354.72965,166.285714 1358.60642,166.557817 1362.55126,167.102032 C1366.4961,167.646246 1370.37287,168.326503 1374.18169,169.142825 L1369.28466,193.632342 C1366.01997,192.81602 1362.61929,192.135763 1359.08254,191.591549 C1355.54578,191.047334 1352.00908,190.775231 1348.47232,190.775231 C1341.12675,190.775231 1335.14156,191.999695 1330.51658,194.448659 C1325.89159,196.897623 1322.35489,200.366937 1319.90636,204.856704 C1317.45784,209.346471 1315.82551,214.584454 1315.00934,220.570811 C1314.19317,226.557167 1313.78509,232.951588 1313.78509,239.754266 L1313.78509,288.7333 L1359.08254,288.7333 L1359.08254,313.222817 Z M1547.61787,369.548707 C1547.61787,351.317531 1542.17679,336.555941 1531.29446,325.263497 C1520.41214,313.971052 1505.17711,308.324914 1485.58893,308.324914 C1476.88307,308.324914 1468.44939,310.025558 1460.28765,313.426897 C1452.12591,316.828235 1444.98449,321.385961 1438.86318,327.10021 C1432.74187,332.81446 1427.8449,339.344932 1424.17212,346.691824 C1420.49933,354.038716 1418.66297,361.657601 1418.66297,369.548707 L1547.61787,369.548707 Z M1417.8468,391.589272 C1418.66297,401.113021 1420.97543,410.092421 1424.78424,418.527741 C1428.59306,426.963061 1433.62606,434.241817 1439.88339,440.364227 C1446.14073,446.486637 1453.35016,451.316466 1461.51191,454.853858 C1469.67365,458.391251 1478.51541,460.15992 1488.03744,460.15992 C1502.45652,460.15992 1514.90299,456.826658 1525.37723,450.160034 C1535.85147,443.49341 1543.80905,435.8065 1549.25021,427.099072 L1570.06255,444.241734 C1558.63611,458.663411 1546.05361,469.003326 1532.31468,475.261789 C1518.57574,481.520253 1503.81681,484.649437 1488.03744,484.649437 C1473.89042,484.649437 1460.76381,482.132484 1448.65722,477.098503 C1436.55064,472.064522 1426.14457,465.057869 1417.43871,456.078334 C1408.73285,447.0988 1401.86349,436.486782 1396.83041,424.241962 C1391.79734,411.997142 1389.28084,398.664094 1389.28084,384.242417 C1389.28084,369.82074 1391.72932,356.487692 1396.62637,344.242872 C1401.52341,331.998053 1408.32477,321.386035 1417.03063,312.4065 C1425.73649,303.426966 1435.93851,296.420313 1447.63701,291.386331 C1459.33551,286.35235 1471.98602,283.835397 1485.58893,283.835397 C1500.00801,283.835397 1512.93058,286.420375 1524.35702,291.59041 C1535.78346,296.760445 1545.37336,303.631047 1553.12702,312.202421 C1560.88068,320.773795 1566.79785,330.841607 1570.87872,342.406159 C1574.95959,353.970711 1577,366.283372 1577,379.344514 L1577,391.589272 L1417.8468,391.589272 Z"/>
</svg>
