<svg xmlns="http://www.w3.org/2000/svg" width="385" height="125" viewBox="0 0 385 125">
  <defs>
    <linearGradient id="brush-a" x1="47.01%" x2="91.641%" y1="53.247%" y2="45.498%">
      <stop offset="0%" stop-color="#E15B5B"/>
      <stop offset="100%" stop-color="#F67F80"/>
    </linearGradient>
  </defs>
  <path fill="url(#brush-a)" d="M962.316456,383.409673 C957.582278,383.409673 953.822785,383.409673 950.063291,383.409673 C949.993671,383.270401 949.993671,383.061492 949.924051,382.922219 C951.873418,382.225856 953.753165,381.599129 955.841772,380.833129 C955.911392,379.510039 955.981013,378.186948 956.050633,376.515676 C955.28481,376.306767 954.310127,376.097858 953.474684,375.888949 C953.683544,375.749677 954.101266,375.610404 953.683544,375.749677 C953.405063,372.685678 953.196203,369.969861 952.987342,367.114771 C952.221519,367.184407 951.386076,367.32368 950.620253,367.254044 C950.063291,367.184407 949.506329,366.766589 948.949367,366.55768 C949.158228,366.070226 949.367089,365.582772 949.64557,365.164954 C950.898734,363.215136 951.943038,360.917137 955.075949,361.82241 C955.35443,361.892046 956.120253,360.638592 956.537975,360.081501 C952.291139,359.385138 948.322785,358.688775 943.867089,357.922775 C945.886076,353.605322 948.253165,350.193142 953.753165,349.984233 C953.196203,347.825507 952.708861,345.945326 952.221519,343.995508 C954.101266,342.881327 956.050633,342.393873 958.765823,343.159872 C961.063291,343.856236 963.917722,342.602782 966.493671,342.2546 C974.221519,341.279691 982.018987,340.583328 989.746835,339.260238 C995.803797,338.285329 1001.86076,336.822966 1007.77848,335.151694 C1010.91139,334.246422 1013.6962,332.366241 1016.82911,330.903877 C1016.27215,330.625332 1015.71519,330.27715 1014.39241,329.511151 C1017.38608,328.814787 1019.75316,328.18806 1022.18987,327.700606 C1024.76582,327.143515 1027.41139,325.472243 1029.63924,328.605878 C1030.05696,329.162969 1031.37975,329.093333 1032.28481,329.162969 C1041.82278,329.789696 1051.08228,327.770242 1060.41139,326.447152 C1061.31646,326.307879 1062.08228,324.915153 1062.91772,324.079517 C1061.94304,323.592062 1060.96835,322.826063 1059.92405,322.547517 C1053.03165,320.736973 1045.93038,323.800971 1039.31646,322.477881 C1032.00633,321.015518 1024.90506,323.313517 1017.73418,322.060063 C1016.62025,321.851154 1015.50633,321.502972 1014.32278,321.224427 C1015.08861,320.388791 1015.78481,319.483519 1016.62025,318.717519 C1016.89873,318.438974 1017.4557,318.369337 1017.87342,318.160428 C1017.73418,317.881883 1017.52532,317.533701 1017.38608,317.255156 C1015.43671,317.255156 1013.55696,317.255156 1011.60759,317.255156 C1011.53797,316.976611 1011.46835,316.628429 1011.46835,316.349884 C1016.27215,314.817884 1021.07595,313.216249 1026.01899,311.614613 C1024.27848,309.525523 1024.27848,309.525523 1020.24051,310.639704 C1018.29114,311.196795 1016.27215,311.614613 1014.32278,312.102067 C1014.18354,311.544977 1014.0443,310.987886 1013.83544,310.361159 C1020.17089,308.620251 1026.43671,306.670433 1032.84177,305.20807 C1034.23418,304.859889 1036.0443,306.182979 1037.64557,306.670433 C1037.57595,306.948979 1037.43671,307.227524 1037.36709,307.575706 C1040.36076,306.948979 1043.42405,306.461524 1046.41772,305.765161 C1055.74684,303.676071 1065.07595,301.447708 1074.40506,299.358618 C1076.35443,298.9408 1078.44304,298.592619 1080.46203,298.522982 C1081.08861,298.522982 1081.71519,299.497891 1082.48101,300.124618 C1083.17722,299.846073 1084.29114,298.871164 1084.91772,299.149709 C1088.53797,300.751345 1091.25316,298.871164 1094.03797,297.269528 C1094.66456,296.921347 1095.29114,296.642801 1095.91772,296.364256 C1100.23418,294.901893 1104.48101,293.300257 1108.79747,292.046803 C1112.06962,291.071894 1115.55063,290.793349 1118.89241,289.888077 C1122.58228,288.843532 1126.27215,287.520441 1130.31013,286.197351 C1129.40506,285.709897 1128.63924,285.292079 1127.87342,284.874261 C1127.8038,284.595715 1127.8038,284.31717 1127.73418,284.038625 C1131.56329,283.133352 1135.53165,282.436989 1139.29114,281.322808 C1142.21519,280.487172 1145,278.885536 1147.92405,277.980264 C1150.8481,277.144628 1153.98101,276.72681 1157.0443,276.308992 C1162.82278,275.473356 1168.67089,274.776992 1174.44937,274.010993 C1175.14557,273.941356 1175.91139,274.219902 1176.81646,274.359174 C1175.91139,275.612628 1175.21519,276.587537 1174.51899,277.562446 C1175.98101,277.771355 1177.51266,277.980264 1179.39241,278.258809 C1179.11392,278.955172 1179.0443,279.790808 1178.55696,280.208626 C1177.09494,281.531717 1177.37342,282.645898 1178.90506,283.55117 C1180.43671,284.526079 1180.85443,285.570624 1179.94937,287.311532 C1179.53165,288.007896 1179.60127,289.400622 1180.08861,290.096986 C1182.8038,294.623348 1182.24684,296.712438 1177.58228,298.314073 C1177.6519,298.592619 1177.6519,299.149709 1177.79114,299.219346 C1182.73418,300.542436 1187.67722,300.333527 1192.55063,298.871164 C1194.5,298.314073 1196.58861,298.244437 1198.60759,297.826619 C1206.5443,296.29462 1214.41139,294.692984 1222.3481,293.230621 C1224.29747,292.882439 1226.03797,292.743167 1228.26582,293.578803 C1230.63291,294.484075 1233.90506,293.300257 1236.89873,292.603894 C1235.57595,292.325349 1234.32278,291.977167 1233,291.698621 C1236.41139,290.514804 1239.68354,290.723713 1242.81646,292.603894 C1243.72152,293.160985 1244.97468,293.160985 1245.87975,293.718075 C1248.03797,294.971529 1250.26582,296.224983 1252.21519,297.826619 C1253.60759,298.9408 1254.72152,300.4728 1256.0443,301.935163 C1256.53165,306.182979 1256.81013,310.91825 1260.70886,314.678612 C1259.8038,315.374975 1259.24684,317.464065 1257.71519,314.887521 C1257.36709,314.260794 1256.0443,314.260794 1254.72152,314.260794 C1256.60127,316.210611 1256.11392,317.18552 1254.58228,318.856792 C1252.98101,320.5977 1252.49367,323.383153 1251.17089,325.472243 C1250.47468,326.516788 1249.01266,327.073879 1247.82911,327.839879 C1247.13291,328.257697 1245.94937,328.396969 1245.67089,328.95406 C1244.55696,331.182423 1242.88608,331.321695 1240.51899,331.669877 C1235.22785,332.435877 1230.00633,334.107149 1224.85443,335.778421 C1222,336.683693 1219.77215,339.051329 1216.22152,337.31042 C1214.06329,336.265875 1207.24051,340.722601 1206.12658,342.881327 C1205.77848,343.508054 1204.73418,343.786599 1203.89873,344.065145 C1198.12025,346.43278 1192.27215,348.800415 1186.49367,351.446596 C1189.3481,351.098414 1192.20253,351.028778 1194.98734,350.471687 C1201.67089,349.009324 1208.28481,347.477325 1214.82911,345.736417 C1217.1962,345.10969 1219.49367,343.856236 1221.72152,342.811691 C1225.06329,341.349328 1228.33544,339.886965 1231.60759,338.215693 C1232.51266,337.797875 1232.93038,336.474784 1233.76582,335.848057 C1234.53165,335.290967 1235.50633,334.66424 1236.41139,334.733876 C1237.73418,334.803512 1238.98734,335.430239 1239.68354,335.639148 C1240.58861,338.633511 1241.42405,341.210055 1242.53797,344.900781 C1246.08861,344.691872 1250.61392,344.413326 1255.06962,344.204417 C1256.60127,344.134781 1258.13291,343.995508 1259.66456,343.995508 C1261.75316,343.995508 1263.84177,343.856236 1265.86076,344.134781 C1271.63924,344.761508 1277.41772,345.597144 1283.1962,346.363144 C1283.33544,346.850598 1283.47468,347.338052 1283.61392,347.825507 C1282.36076,349.28787 1281.10759,350.750233 1279.36709,352.769686 C1286.18987,352.70005 1285.07595,358.96732 1288,362.240228 C1282.98734,364.120409 1282.1519,366.348771 1283.89241,370.944769 C1284.24051,371.850042 1283.33544,373.730223 1282.43038,374.426586 C1281.4557,375.192586 1279.78481,375.192586 1278.39241,375.262222 C1266.41772,376.237131 1254.37342,376.794222 1242.46835,378.117312 C1231.88608,379.231493 1221.3038,381.181311 1210.72152,382.71331 C1205.1519,383.548946 1199.58228,384.175673 1194.01266,384.941673 C1190.60127,385.429127 1187.18987,386.334399 1183.77848,386.543308 C1178.41772,386.89149 1173.05696,386.89149 1167.6962,387.100399 C1166.44304,387.170035 1165.18987,387.448581 1164.00633,387.727126 C1163.10127,387.936035 1162.33544,388.562762 1161.43038,388.702035 C1156.97468,389.189489 1152.51899,389.398398 1148.13291,390.025125 C1141.17089,391.000034 1134.27848,392.183851 1127.38608,393.298033 C1125.22785,393.646214 1123,393.785487 1120.84177,394.203305 C1115.34177,395.24785 1109.98101,396.710213 1104.41139,397.33694 C1100.72152,397.754758 1096.89241,397.128031 1093.13291,396.779849 C1092.71519,396.710213 1092.43671,395.526395 1091.67089,393.92476 C1091.39241,395.665668 1091.25316,396.362031 1091.0443,397.615485 C1086.37975,392.880215 1080.53165,396.083486 1075.24051,394.203305 C1076.98101,394.064032 1078.72152,394.064032 1080.39241,393.715851 C1081.71519,393.437305 1082.96835,392.601669 1084.22152,392.044579 C1083.24684,391.208943 1082.34177,390.373307 1081.36709,389.537671 C1081.08861,389.328762 1080.81013,389.119853 1080.39241,388.841307 C1080.94937,387.100399 1083.66456,384.8024 1079.06962,384.106037 C1080.18354,383.270401 1080.81013,382.71331 1081.71519,382.016947 C1080.53165,381.042038 1079.62658,380.276038 1078.58228,379.370766 C1079.13924,377.490585 1079.76582,375.610404 1080.46203,373.382041 C1077.25949,373.382041 1074.5443,373.382041 1071.55063,373.382041 C1071.55063,373.382041 1071.62025,372.685678 1071.82911,371.50186 C1070.08861,371.780405 1068.41772,371.989315 1066.74684,372.198224 C1066.46835,371.641133 1066.12025,370.944769 1065.77215,370.17877 C1067.02532,369.760952 1068.41772,369.482406 1069.60127,368.855679 C1072.31646,367.254044 1075.03165,365.513135 1077.53797,363.632954 C1077.81646,363.424045 1077.12025,361.892046 1076.84177,360.847501 C1077.53797,360.220774 1078.44304,359.385138 1079.41772,358.549502 C1079.06962,358.131684 1078.72152,357.783502 1078.37342,357.365684 C1076.77215,358.619138 1075.24051,359.872592 1073.29114,361.404592 C1073.08228,360.917137 1072.73418,360.081501 1072.38608,359.176229 C1069.39241,360.360047 1066.18987,361.543864 1062.91772,362.797318 C1062.91772,363.006227 1062.98734,363.215136 1062.98734,363.493682 C1064.31013,363.424045 1065.63291,363.284773 1066.9557,363.215136 C1067.02532,363.493682 1067.09494,363.772227 1067.16456,364.050772 C1064.10127,364.956045 1061.03797,365.791681 1057.83544,366.766589 C1054.98101,359.73332 1051.5,366.975498 1048.22785,366.55768 C1047.53165,364.398954 1047.11392,363.841863 1044.32911,365.164954 C1040.08228,367.184407 1035.06962,367.462953 1030.5443,368.786043 C1028.52532,369.41277 1026.78481,370.944769 1024.83544,371.850042 C1023.6519,372.476769 1022.32911,372.964223 1021.00633,373.173132 C1018.70886,373.451678 1016.34177,373.451678 1013,373.660587 C1014.39241,374.496223 1014.87975,374.774768 1015.15823,374.914041 C1004.43671,377.003131 993.575949,379.161857 982.506329,381.320583 C982.71519,380.833129 982.85443,380.345675 983.272152,379.30113 C980.765823,379.997493 978.746835,380.484947 976.727848,381.042038 C976.727848,381.39022 976.797468,381.668765 976.797468,382.016947 C978.537975,382.643674 980.278481,383.200764 982.227848,383.897128 C979.094937,388.493126 974.848101,386.961126 970.879747,386.821854 C971.018987,387.100399 971.088608,387.378944 971.227848,387.727126 C969.348101,388.632398 967.607595,390.025125 965.658228,390.30367 C963.917722,390.582216 962.386076,391.278579 959.949367,389.885852 C956.746835,388.075308 951.943038,389.119853 947.905063,388.910944 C947.835443,389.398398 947.765823,389.885852 947.696203,390.442943 C949.85443,390.930397 952.012658,391.417852 954.518987,392.044579 C952.5,392.253488 950.689873,392.532033 948.879747,392.740942 C948.810127,392.949851 948.740506,393.228396 948.740506,393.437305 C949.78481,393.92476 950.829114,394.412214 951.316456,394.621123 C949.575949,395.178214 947.348101,395.874577 945.120253,396.640577 C945.468354,396.988758 945.816456,397.406576 946.651899,398.381485 C940.316456,398.590394 934.398734,399.286757 928.620253,398.868939 C924.721519,398.590394 920.962025,396.710213 917.063291,395.804941 C913.373418,394.899668 909.683544,394.272941 905.924051,393.715851 C905.506329,393.646214 904.879747,394.48185 904.253165,395.038941 C903.835443,393.994396 903.487342,392.949851 903,391.696397 C907.594937,391.278579 912.050633,391.000034 916.506329,390.442943 C917.411392,390.30367 918.246835,389.468034 919.151899,388.910944 C918.177215,388.493126 917.272152,387.866399 916.227848,387.727126 C914.835443,387.587853 913.373418,387.796762 911.981013,387.936035 C911.981013,387.587853 911.911392,387.239672 911.911392,386.821854 C921.379747,385.916581 930.848101,385.011309 940.316456,384.106037 C940.386076,384.314946 940.455696,384.454218 940.455696,384.663127 C938.85443,385.359491 937.322785,386.055854 935.512658,386.821854 C939.202532,389.189489 956.746835,387.309308 962.316456,383.409673 Z" transform="translate(-903 -274)"/>
</svg>
