<svg xmlns="http://www.w3.org/2000/svg" width="100" height="100" viewBox="0 0 100 100">
  <g fill="none" fill-rule="evenodd">
    <path fill="#E66363" fill-rule="nonzero" d="M50.0001608,81 C48.1971098,80.3585746 46.7122442,79.2895323 45.4395024,79.5033408 C40.6667203,80.2516704 38.5454838,76.7238307 38.0151747,73.5167038 C36.8484946,65.4988864 36.6363709,57.3741648 36,48.714922 C37.1666801,49.4632517 37.5909274,49.7839644 38.3333601,50.3184855 C38.3333601,47.5389755 38.2272983,45.0801782 38.3333601,42.5144766 C38.5454838,38.3452116 42.8940186,35.2449889 47.1364915,35.1380846 C50.5304699,35.1380846 53.8183865,33.8552339 57.106303,33.2138085 C57.6366121,33.1069042 58.1669213,33.1069042 59.545725,33 C60.0760341,36.5278396 60.5002814,40.1625835 61.1366523,43.6904232 C62.8336415,53.0979955 61.6669615,62.3986637 60.7124051,71.6993318 C60.2881578,75.3340757 56.2578084,78.5412027 52.2274591,79.1826281 C51.2729027,79.3964365 50.5304699,80.5723831 50.0001608,81 Z" opacity=".423" transform="rotate(90 49 57)"/>
    <rect width="33" height="33" x="34" y="33" stroke="#FFF" stroke-width="4" rx="16.5"/>
  </g>
</svg>
