<svg xmlns="http://www.w3.org/2000/svg" width="100" height="100" viewBox="0 0 100 100">
  <g fill="none" fill-rule="evenodd">
    <path fill="#E66363" fill-rule="nonzero" d="M61.9894427,21 C63.1894427,20.3 64.3894427,19.6 65.4894427,19 C70.5894427,29.4 76.6894427,39.8 74.9894427,52.3 C74.3894427,56.8 73.6894427,61.4 72.6894427,65.9 C72.4894427,66.8 70.9894427,67.4 69.8894427,68.2 C68.6894427,67.8 67.7894427,63.5 65.8894427,66.8 C64.1894427,66.3 62.6894427,65.8 61.1894427,65.2 C57.7894427,63.8 54.4894427,62.5 53.5894427,58 C52.6894427,53.4 50.7894427,48.9 49.9894427,44.3 C49.1894427,39.8 49.3894427,35.2 49.0894427,30.6 C48.9894427,29.6 48.8894427,28.6 49.2894427,27.6 C49.7894427,28.9 50.1894427,30.2 50.9894427,32.5 C51.4894427,30.8 51.8894427,29.9 52.0894427,29.1 C52.1894427,28.5 51.7894427,27.8 51.9894427,27.2 C52.9894427,24.6 53.5894427,21.4 55.4894427,19.8 C56.5894427,18.8 59.8894427,20.5 61.9894427,21 Z" opacity=".423"/>
    <rect width="33" height="33" x="33" y="33" stroke="#FFF" stroke-width="4"/>
  </g>
</svg>
