<svg xmlns="http://www.w3.org/2000/svg" width="100" height="100" viewBox="0 0 100 100">
  <g fill="none" fill-rule="evenodd">
    <path fill="#E66363" fill-rule="nonzero" d="M50.4,84.4391698 C49.8,83.5391698 49.1,82.5391698 48.7,82.0391698 C45.9,82.9391698 43.5,83.6391698 40.9,84.4391698 C40.1,82.3391698 38.7,80.7391698 36.1,83.2391698 C35.1,81.2391698 35.9,76.9391698 30.9,81.0391698 C30.5,74.9391698 30,69.7391698 30,64.6391698 C30,59.7391698 31.1,54.9391698 30.9,50.0391698 C30.7,44.9391698 32.5,40.7391698 36.2,36.5391698 C36.6,39.1391698 37,41.8391698 37.5,45.6391698 C38.1,43.4391698 38.8,42.0391698 38.7,40.7391698 C38.6,37.4391698 41,36.0391698 43.3,36.0391698 C48.4,35.8391698 53.1,36.2391698 56.8,41.2391698 C59.3,44.6391698 59.1,47.3391698 58.7,50.7391698 C57.7,59.3391698 56.9,67.9391698 56,76.5391698 C55.7,80.3391698 54.3,83.3391698 50.4,84.4391698 Z" opacity=".423" transform="rotate(85 44.47 60.22)"/>
    <polygon stroke="#FFF" stroke-width="4" points="51 34 67 64 34 64"/>
  </g>
</svg>
