<svg xmlns="http://www.w3.org/2000/svg" width="18" height="24" viewBox="0 0 18 24">
  <g fill="none" fill-rule="evenodd" stroke="#000" stroke-linecap="round" stroke-linejoin="round" stroke-width="1.5" opacity=".404">
    <path d="M2.25 9.75L15.75 9.75C16.578 9.75 17.25 10.422 17.25 11.25L17.25 21.75C17.25 22.578 16.578 23.25 15.75 23.25L2.25 23.25C1.422 23.25.75 22.578.75 21.75L.75 11.25C.75 10.422 1.422 9.75 2.25 9.75zM3.75 9.75L3.75 6C3.75 3.101 6.101.75 9 .75 11.899.75 14.25 3.101 14.25 6L14.25 9.75"/>
    <path d="M9,14.25 C10.243,14.25 11.25,15.257 11.25,16.5 C11.25,17.743 10.243,18.75 9,18.75 C7.757,18.75 6.75,17.743 6.75,16.5 C6.75,15.257 7.757,14.25 9,14.25 Z"/>
  </g>
</svg>
