<svg xmlns="http://www.w3.org/2000/svg" width="664" height="543" viewBox="0 0 664 543">
  <path fill="#424854" d="M544.767797,537.51628 C541.623975,536.341198 539.069619,535.753656 537.104731,539.278905 C539.167864,539.768522 541.034508,540.160217 542.999397,540.649834 C542.999397,540.943605 542.901152,541.139452 542.901152,541.433223 C541.329241,541.433223 539.659086,541.433223 538.087175,541.531147 C536.318775,541.62907 534.64862,541.726994 532.88022,541.824917 C532.290753,540.845682 531.799531,539.866446 531.013575,538.59344 C529.146931,540.062293 527.378531,541.531147 525.511887,543 C524.03822,542.314535 523.350509,541.335299 523.743487,539.670599 C524.136465,538.201745 523.939976,536.732892 523.252265,535.361962 C521.483865,535.753656 519.813709,536.243274 518.143554,536.439121 C517.554087,536.537045 516.375154,536.047427 516.27691,535.655733 C515.785688,533.403491 514.017288,533.795185 512.347132,533.305567 C511.85591,534.48065 511.266443,535.361962 510.873466,536.341198 C510.382243,537.907975 509.301555,538.691363 507.729644,538.299669 C503.210399,537.124586 499.182377,538.691363 495.154356,540.25814 C494.466644,540.551911 493.778933,540.747758 492.992978,540.943605 C490.536867,539.180981 489.750911,536.439121 488.571978,533.991032 C488.179,533.991032 487.884267,533.991032 487.786023,534.088956 C483.463267,536.928739 483.168534,536.928739 480.810668,532.424255 C479.042268,528.99693 477.175623,525.569605 475.407223,522.044357 C474.523023,520.281733 473.34409,519.204574 471.280957,518.812879 C469.80729,518.519109 468.333624,517.931567 466.172246,517.246102 C468.726602,516.462714 470.593246,515.777249 472.45989,515.189708 C472.45989,514.99386 472.45989,514.798013 472.45989,514.602166 C471.57569,514.308395 470.69149,513.916701 469.80729,513.720854 C468.923091,513.427083 467.940646,513.133313 466.565224,512.741618 C468.235379,511.468612 470.593246,511.468612 470.69149,509.020523 C467.252935,507.062052 463.421402,505.691122 459.39338,504.907733 C455.954825,504.222268 452.614514,503.73265 449.175958,502.949262 C447.407559,502.557568 445.737403,501.872103 444.165492,500.794944 C447.014581,500.892867 449.765425,501.088714 452.614514,501.186638 C452.712758,500.990791 452.811003,500.794944 452.909247,500.599096 C450.747869,499.130243 448.684736,497.563466 446.523359,496.094612 C446.719847,495.507071 446.818092,495.017453 446.916336,494.527835 C447.604047,492.667288 447.21107,491.198434 445.639159,490.023351 C445.246181,489.729581 444.853203,489.239963 444.460225,488.848269 C443.084803,487.673186 442.298848,486.498103 443.67427,484.735479 C440.923426,482.28739 437.976093,480.622689 434.537537,479.839301 C432.179671,479.349683 429.821804,479.153836 427.856915,477.097441 C426.579738,475.726511 424.221871,475.43274 422.355227,474.649352 C418.720183,472.984651 414.986894,471.417874 411.450094,469.753173 C409.58345,468.871861 407.81505,467.794702 406.144895,466.717543 C404.769472,465.836231 403.688784,464.269454 401.62565,464.954919 C401.232673,465.052842 400.643206,464.661148 400.151984,464.465301 C397.40114,462.702677 394.74854,460.940053 392.194184,458.785734 C396.51694,460.156664 400.937939,461.527594 405.260695,462.898524 C409.878183,464.367377 414.593916,465.738307 419.211405,467.109237 C420.586827,467.500931 422.158738,467.598855 423.828893,467.305084 C423.435916,466.91339 423.141182,466.423772 422.64996,466.130002 C417.737738,463.779836 412.923761,461.42967 408.011539,459.275352 C403.197561,457.218957 398.187095,455.456333 393.274873,453.497862 C392.390673,453.106167 391.702962,452.322779 391.21174,451.147696 C391.899451,451.24562 392.587162,451.343543 393.274873,451.53939 C398.874806,453.106167 404.474739,454.770868 410.074672,456.337645 C411.450094,456.729339 412.825516,457.218957 414.00445,455.358409 C410.565894,453.693709 406.93085,452.714473 403.492295,451.343543 C400.053739,450.070537 396.713428,448.797531 392.685407,447.328677 C394.945029,445.957747 396.51694,446.936983 398.088851,447.034906 C399.660762,447.13283 401.232673,447.328677 402.902828,447.524524 C402.706339,445.859824 401.429162,445.859824 400.446717,445.566053 C396.713428,444.488894 392.881895,443.607582 389.246851,442.432499 C386.692496,441.64911 384.039896,440.669875 381.878518,439.298945 C378.14523,436.948779 374.215452,435.382002 369.990941,434.206919 C366.847119,433.325607 363.801542,432.248448 360.755964,431.367136 C358.299853,430.583747 355.843742,429.898282 353.387631,428.919047 C355.450764,429.212818 357.415653,429.506588 359.478786,429.800359 C382.860963,433.619378 406.243139,437.536321 429.527071,441.35534 C445.639159,443.999276 462.04598,444.782664 478.354557,445.076435 C483.365023,445.174359 488.473734,444.488894 493.680689,444.195123 C494.3684,439.788563 495.056111,435.577849 495.547333,431.46506 C495.645578,430.485824 495.2526,429.408665 494.859622,428.331505 C494.564889,427.450193 493.975422,426.568881 493.4842,425.785493 C492.108778,423.729098 491.519311,421.770627 493.877178,419.616308 C492.108778,417.070295 490.340378,414.72013 488.277245,411.880347 C489.652667,411.97827 490.733356,412.076194 491.7158,412.174117 C494.564889,412.467888 495.940311,411.488652 495.743822,408.648869 C494.564889,396.506347 497.512222,384.657595 498.396422,372.612997 C499.280622,360.470475 499.575355,348.327953 498.199933,336.087507 C496.824511,323.749138 496.824511,311.410769 498.7894,298.974476 C499.870089,292.413597 499.6736,285.656871 500.459555,278.998069 C501.736733,266.6597 503.308644,254.419254 504.684066,242.080885 C505.568266,233.659458 506.255977,225.140108 507.041933,216.424911 C505.862999,216.424911 505.175288,216.326987 504.487577,216.424911 C497.413978,217.404146 490.340378,218.481306 483.365023,219.558465 C482.480823,219.656388 481.498379,219.656388 480.908912,220.146006 C478.354557,221.90863 475.603712,222.300325 472.656379,222.202401 C472.263401,222.202401 471.870424,222.398248 471.673935,222.496172 C469.80729,228.959127 470.102024,235.422082 469.905535,241.885038 C469.905535,243.255968 469.709046,244.724821 469.610802,246.095751 C469.610802,246.781216 469.512557,247.760452 469.905535,248.250069 C471.182713,249.816846 471.182713,251.677394 471.182713,253.440018 C471.673935,274.591508 470.986224,295.645075 469.512557,316.796565 C468.628357,329.722476 468.824846,342.648386 468.431868,355.574297 C468.431868,356.063914 468.530113,356.651456 469.119579,357.238997 C469.610802,355.476373 470.396757,353.713749 470.69149,351.951125 C471.772179,344.998552 472.852868,338.143902 473.835312,331.191329 C477.568601,303.185189 478.059823,275.081126 478.551045,246.977063 C478.64929,244.039356 478.551045,241.199573 479.140512,238.163942 C479.729979,246.095751 480.712423,253.929636 480.908912,261.861445 C481.30189,274.297738 481.007156,286.636107 479.631734,298.974476 C479.140512,303.870654 478.158068,308.766833 477.175623,313.663011 C476.291423,318.069571 475.603712,322.378208 477.666846,326.588921 C478.64929,328.547393 478.256312,330.603788 477.372112,332.562259 C476.094935,335.499966 475.603712,338.535596 475.603712,341.66915 C475.701957,349.209265 475.898446,356.749379 475.701957,364.289494 C475.505468,369.577366 474.719512,374.767315 474.130046,380.055188 C473.835312,382.894971 472.361646,385.34306 470.200268,387.595302 C468.333624,382.601201 468.038891,377.411252 466.368735,372.808844 C464.600335,372.612997 464.502091,373.78808 464.109113,374.571468 C462.733691,378.19464 461.358269,381.817812 459.982847,385.440984 C459.589869,386.518143 459.000402,387.693226 458.214447,388.476614 C456.053069,390.630933 454.284669,392.981098 453.007492,395.820882 C452.516269,396.995965 450.846114,397.68143 449.372447,398.856512 C449.372447,399.34613 449.372447,400.227442 449.372447,401.500449 C448.488247,401.990066 447.407559,402.675531 446.425114,403.165149 C444.55847,402.185914 444.55847,400.521213 444.460225,399.05236 C444.067248,393.960334 443.772514,388.966232 443.477781,383.874207 C443.379537,382.992895 443.281292,382.111583 443.281292,381.328194 C443.281292,378.782182 442.298848,376.921634 439.940981,375.550704 C438.467315,374.669392 437.48487,373.004691 436.011204,371.437914 C435.127004,371.339991 434.144559,372.612997 432.670893,371.437914 C431.393715,370.360755 428.151649,371.633761 427.365693,373.200538 C426.18676,375.550704 424.41836,375.746551 422.060494,375.15901 C421.76576,374.08185 421.471027,373.004691 421.176294,372.123379 C418.327205,371.242067 415.576361,370.458679 412.923761,369.67529 C416.264072,355.67222 415.969338,342.354615 408.69925,329.918323 C408.404517,329.918323 408.208028,329.918323 407.913294,329.918323 C407.913294,330.897558 407.913294,331.974718 407.913294,332.953953 C408.208028,339.221061 408.601005,345.488169 407.618561,351.657354 C407.225583,354.105443 407.716806,356.357685 408.895739,357.924462 C408.404517,359.491239 407.81505,360.666322 407.716806,361.939328 C407.225583,367.912666 407.029094,373.983927 406.636117,380.055188 C406.537872,381.426118 406.734361,382.992895 404.376495,383.090818 C404.180006,379.467647 403.099317,376.236169 399.169539,374.375621 C398.776562,375.354857 398.187095,376.334092 397.990606,377.313328 C397.40114,380.251035 395.829229,382.699124 394.159073,385.04929 C391.997695,388.280767 390.032807,391.610169 388.067918,394.93957 C387.773185,395.429188 387.478451,395.820882 387.183718,396.212576 C382.860963,394.743723 382.566229,394.841646 381.387296,399.34613 C380.601341,402.479684 379.520652,405.221544 376.37683,406.886245 C375.099652,405.417391 374.60843,403.654767 374.60843,401.794219 C374.60843,399.34613 374.804919,396.800118 374.903163,394.352028 C375.001408,391.512245 375.197897,388.770385 375.197897,385.930602 C375.197897,383.67836 374.510185,381.817812 372.938274,380.055188 C371.07163,378.096717 369.401475,376.725787 366.552386,378.19464 C365.76643,378.586334 364.685742,378.390487 363.703297,378.488411 C362.917342,377.215405 362.229631,375.942398 361.345431,374.571468 C360.166497,375.061086 358.987564,375.550704 357.808631,376.138245 C354.271831,372.612997 351.619231,368.793978 351.913965,363.408182 C352.208698,357.336921 352.405187,351.363583 352.405187,345.292322 C352.405187,341.864998 352.208698,338.437673 352.012209,334.912424 C351.81572,331.191329 350.833276,327.666081 349.064876,324.434603 C347.885943,322.378208 347.591209,320.321813 347.394721,317.971648 C347.296476,315.817329 346.412276,313.565087 345.528076,311.606616 C345.135098,310.725304 343.661432,310.33361 342.384254,309.550221 C342.089521,306.808361 342.973721,303.968578 343.563187,301.226718 C343.759676,300.44333 344.742121,299.855788 345.528076,299.268247 C347.689454,297.603546 349.949076,296.232616 352.012209,294.469992 C352.798165,293.784527 353.58412,292.609444 353.780609,291.630209 C355.057787,284.090094 356.334964,276.54998 357.317409,268.911942 C357.710387,265.190846 357.317409,261.469751 357.219164,257.454885 C355.941987,257.748655 355.057787,257.944502 354.271831,258.238273 C347.394721,260.686362 340.419365,263.330298 333.542255,265.680464 C331.67561,266.365929 330.693166,267.345165 330.496677,269.303636 C328.728277,288.888349 323.423078,307.59175 317.7249,326.295151 C317.233678,327.861928 316.8407,329.428705 316.349478,330.897558 C315.858256,332.464335 316.251234,333.639418 318.019634,334.52073 C319.788033,331.876794 320.181011,328.547393 322.047655,325.903456 C321.163456,328.841163 320.181011,331.77887 319.395056,334.716577 C318.6091,337.654284 317.921389,340.494068 317.135434,343.431775 C316.742456,345.096475 316.545967,346.859099 315.858256,348.425876 C313.3039,354.30129 312.026723,360.568398 311.339012,366.93343 C311.240767,368.010589 310.946034,368.989825 310.749545,370.360755 C308.391679,368.402284 307.900456,364.485341 303.77419,364.779112 C302.595257,369.087749 303.381212,373.78808 302.595257,378.488411 C301.416323,378.978029 300.23739,379.467647 298.960213,380.055188 C299.549679,381.817812 300.040901,383.580436 298.370746,385.34306 C297.683035,385.34306 296.798835,385.440984 295.718146,385.538908 C295.521657,386.42022 295.325168,387.203608 295.226924,388.08492 C295.128679,389.553774 294.440968,390.337162 293.065546,390.924704 C290.609435,391.806016 288.251569,392.883175 285.893702,393.960334 C284.027058,394.841646 282.160414,395.037493 280.195525,394.254105 C277.248192,393.176946 274.202614,392.295634 271.353525,391.218474 C267.620237,389.847544 264.771148,387.497379 263.199237,383.776283 C262.904504,383.090818 262.216793,382.601201 261.627326,382.209506 C258.876482,380.348959 257.599304,377.705022 257.304571,374.571468 C257.108082,372.808844 256.518615,371.927532 254.84846,371.242067 C253.866015,370.850373 253.08006,369.773214 252.490593,368.793978 C249.739749,363.799876 245.416994,360.078781 241.487216,356.161838 C240.89775,355.476373 239.817061,355.280526 238.834616,354.888832 C239.227594,354.105443 239.522327,353.419978 240.01355,352.342819 C238.932861,352.146972 238.048661,351.951125 237.066216,351.755278 C236.869728,351.069813 236.673239,350.384348 236.574994,349.796806 C236.083772,346.565329 236.083772,346.467405 238.932861,344.998552 C240.603016,344.11724 241.781949,342.74631 242.764394,341.179533 C243.550349,339.808603 244.041572,337.948055 246.202949,337.752208 C246.595927,337.752208 247.087149,336.577125 247.283638,335.89166 C247.971349,333.051877 248.855549,330.212093 249.150282,327.37231 C249.346771,325.609686 248.953793,323.749138 248.364327,322.084437 C247.676616,320.028043 247.381882,318.265418 248.462571,316.209024 C249.54326,313.956782 248.266082,312.585852 245.711727,312.879622 C244.925772,312.977546 244.041572,313.075469 242.764394,313.173393 C247.873105,309.648145 247.873105,309.648145 248.069594,307.689673 C245.024016,308.081368 242.960883,306.612514 241.388972,303.968578 C242.273172,303.381037 242.960883,302.891419 243.943327,302.303877 C243.353861,301.128795 242.764394,299.855788 241.978438,298.191088 C240.603016,299.0724 239.12935,299.659941 238.146905,300.7371 C233.136439,306.122896 228.322461,311.70454 223.41024,317.090336 C223.213751,317.286183 223.017262,317.579953 222.722528,318.069571 C223.115506,318.657113 223.508484,319.342578 223.901462,320.028043 C223.803217,320.22389 223.803217,320.419737 223.704973,320.615584 C219.775195,326.295151 215.943662,332.072641 211.91564,337.654284 C210.441974,339.710679 208.575329,341.571227 206.708685,343.431775 C203.957841,346.271558 201.698219,349.405112 200.028063,352.93036 C198.652641,355.770144 197.866686,358.805774 198.456152,362.037252 C198.84913,363.8978 198.554397,365.5625 197.473708,367.227201 C196.785997,368.206437 196.785997,369.67529 196.785997,370.850373 C196.785997,373.592233 196.19653,376.138245 195.115841,379.467647 C194.329886,377.900869 193.740419,377.019557 193.54393,376.040322 C193.249197,374.375621 193.052708,372.612997 192.954464,370.948296 C192.856219,369.479443 192.364997,368.500207 190.400108,368.206437 C189.908886,369.67529 189.31942,371.144143 188.828197,372.612997 C187.55102,376.334092 186.273842,380.153111 184.89842,383.874207 C183.915975,386.616067 183.621242,386.811914 180.673909,386.518143 C179.494976,386.42022 178.316042,386.126449 176.842376,385.832678 C175.073976,389.064156 173.207332,392.295634 171.144198,395.918805 C170.259999,393.764487 169.572287,392.19771 168.982821,390.630933 C168.589843,389.553774 167.902132,389.162079 166.723199,389.162079 C165.446021,389.162079 165.053043,389.847544 164.75831,390.924704 C163.87411,393.960334 162.793421,397.093888 161.614488,400.814984 C160.730288,398.758589 160.140821,397.289735 159.45311,395.625035 C153.754933,401.500449 148.351489,407.082092 143.046289,412.761659 C135.08849,421.085162 127.13069,429.408665 119.172891,437.830091 C114.850135,442.432499 110.625625,447.230753 106.401114,451.931085 C106.008136,452.322779 105.713403,452.714473 105.22218,453.008244 C103.552025,453.987479 102.864314,455.456333 102.667825,457.218957 C102.373092,460.05874 101.095914,462.213059 98.9345364,464.17153 C95.8889588,467.011314 95.5942255,469.459403 97.5591143,473.082575 C98.7380475,475.334817 98.6398031,476.509899 96.9696476,478.566294 C96.8714032,478.762141 96.5766699,478.860065 96.5766699,479.055912 C95.2994922,481.993619 93.236359,482.28739 90.2890258,481.406078 C88.7171148,480.91646 86.5557372,481.601925 85.0820706,482.385313 C81.4470264,484.245861 77.8119822,484.245861 74.0786936,483.266625 C72.7032714,482.972855 71.3278493,482.777008 69.9524272,482.483237 C66.7103607,481.699848 63.6647831,481.993619 60.9139388,483.756243 C55.3140059,487.281492 49.9105618,483.95209 47.1597175,478.468371 C46.7667397,477.684982 47.0614731,476.314052 47.3562064,475.334817 C48.2404063,472.788804 48.5351396,470.340715 47.7491841,467.794702 C47.1597175,466.032078 47.2579619,464.269454 49.3210951,463.094371 C51.1877395,462.017212 51.1877395,460.05874 50.8930061,458.198193 C50.6965173,456.729339 47.7491841,455.260486 46.2755176,455.750104 C45.489562,456.043874 44.801851,456.435569 43.7211622,457.02311 C41.8545178,452.420702 39.0054291,448.307913 38.3177181,443.411734 C37.8264959,439.788563 37.0405404,436.361238 33.3072517,434.598614 C34.1914517,433.619378 34.8791627,432.835989 35.7633627,431.75883 C34.5844294,431.269212 33.7002295,430.975442 32.2265629,430.3879 C34.2896961,430.192053 35.5668738,430.09413 37.1387848,429.898282 C35.8616071,428.821123 34.8791627,427.841888 33.7002295,426.862652 C35.2721405,424.708334 36.6475626,422.847786 38.1212292,420.693467 C38.0229847,419.12669 34.6826739,419.518385 35.5668738,416.972372 C38.1212292,416.874448 40.773829,416.678601 43.8194066,416.580678 C42.5422289,413.642971 41.5597845,411.292805 40.3808513,408.746792 C42.0510067,407.767557 43.6229177,406.788321 45.489562,405.711162 C42.2474956,403.752691 39.0054291,402.871379 35.2721405,402.283837 C35.7633627,401.010831 36.1563404,399.933672 36.5493182,398.856512 C38.0229847,398.660665 39.3001624,398.562742 40.773829,398.366895 C41.0685623,395.429188 42.9352067,393.960334 45.489562,392.883175 C46.2755176,392.589404 46.8649842,391.903939 47.6509397,391.414321 C48.6333841,390.82678 48.8298729,390.043392 48.5351396,388.966232 C48.2404063,388.182844 48.1421619,387.301532 47.945673,386.42022 C47.6509397,384.461748 48.3386508,382.992895 50.2052951,382.30743 C52.7596505,381.328194 55.2157614,380.251035 57.7701168,379.467647 C59.3420278,378.978029 61.2086722,378.880105 62.8788276,379.075952 C65.433183,379.369723 67.9875384,379.859341 70.5418938,380.642729 C72.605027,381.230271 73.8822047,380.740653 75.3558712,379.173876 C81.9382486,371.927532 88.8153593,364.779112 95.3977366,357.532768 C101.488892,350.873966 107.481803,344.019316 113.572958,337.26259 C115.046624,335.597889 116.520291,333.835265 116.520291,331.289253 C116.520291,330.505864 117.208002,329.820399 117.699224,329.037011 C117.011513,327.861928 115.734335,326.588921 115.734335,325.217992 C115.734335,324.140832 117.208002,323.161597 118.190446,321.790667 C117.797469,321.203125 117.208002,320.321813 116.422046,319.244654 C116.913269,318.559189 117.306246,317.873724 117.895713,316.992412 C115.144869,314.74017 116.618535,312.194157 117.404491,309.550221 C118.48518,309.354374 119.467624,309.25645 120.941291,309.060603 C121.530757,307.493826 122.218468,305.731202 123.004424,303.576884 C117.993957,304.262349 113.867691,307.004208 108.464247,305.731202 C111.41158,304.751966 113.769447,303.870654 116.225558,303.087266 C116.127313,302.695572 116.029069,302.401801 115.930824,302.10803 C115.83258,301.814259 115.636091,301.520489 115.341358,300.835024 C114.260669,301.128795 112.983491,301.422565 111.804558,301.716336 C99.524003,305.241584 87.0469594,307.787597 74.3734269,309.452298 C73.5874714,309.550221 72.4085381,309.550221 72.0155604,309.158527 C70.6401382,307.493826 68.9699828,307.787597 67.2015829,307.983444 C64.8437164,308.179291 62.4858499,308.473062 60.1279833,308.570985 C57.9666057,308.766833 55.9034725,309.060603 53.6438504,307.689673 C51.8754505,306.612514 49.2228507,307.004208 46.9632286,306.612514 C41.0685623,305.633279 35.2721405,304.751966 29.3774742,303.47896 C22.1073858,302.010107 15.5250084,298.778629 9.43385324,294.372069 C8.05843111,293.392833 6.68300897,292.21775 5.2093424,291.336438 C1.96727594,289.573814 0.395364933,286.929878 0.198876056,283.306706 C0.100631618,281.935776 -0.488835011,280.564846 0.984831562,279.487687 C1.37780931,279.193916 1.37780931,278.116757 1.27956488,277.431292 C1.18132044,276.354133 0.788342685,275.374897 0.493609371,274.101891 C2.45849813,273.122655 4.4233869,272.241343 6.38827566,271.262107 C4.71812021,267.932706 7.46896448,266.365929 8.84438661,264.407458 C9.23736437,264.407458 9.43385324,264.309534 9.63034212,264.309534 C21.1249414,267.541012 32.1283185,265.28877 43.0334511,261.763521 C58.7525612,256.76942 73.7839602,250.110617 88.4223815,242.668426 C103.846758,234.834541 119.074646,226.706885 134.499023,218.775076 C135.874445,218.089611 137.151623,217.50207 137.741089,215.837369 C137.937578,215.151905 138.920023,214.662287 139.607734,214.172669 C142.162089,212.703815 144.6182,211.234962 147.2708,209.864032 C148.744467,209.080643 149.628666,208.199331 150.021644,206.534631 C151.986533,198.211128 154.3444,190.083472 156.014555,181.759969 C156.898755,177.353408 156.898755,172.848924 157.291733,167.756899 C155.719822,168.442364 154.737377,168.736135 153.853177,169.225753 C149.9234,171.0863 145.993622,172.848924 142.162089,174.807396 C138.428801,176.667943 134.695512,177.647179 130.569245,176.57002 C129.095579,176.178326 127.621912,176.080402 125.755268,175.786631 C127.720157,174.219854 129.78329,174.121931 131.748179,173.632313 C134.007801,173.142695 135.677956,171.967612 136.85689,170.009141 C136.660401,169.813294 136.463912,169.617447 136.365667,169.617447 C133.516579,170.79253 130.863979,170.596682 127.916646,169.519523 C126.541224,169.029905 124.576335,169.323676 123.200913,170.009141 C117.797469,172.45723 112.099291,171.184224 106.499358,171.184224 C106.401114,171.184224 106.204625,171.184224 106.204625,171.184224 C104.534469,168.736135 101.783625,169.225753 99.3275142,168.736135 C96.8714032,168.246517 94.4152923,167.854823 91.9591813,167.365205 C91.2714702,167.267281 90.4855147,166.973511 89.6995592,166.777663 C89.5030703,165.700504 89.4048259,164.721269 89.1100926,163.252415 C86.4574928,162.762797 83.7066485,162.371103 80.9558042,161.685638 C77.5172489,160.90225 73.8822047,160.314708 70.6401382,158.943778 C62.8788276,155.516453 55.0192725,152.578746 46.9632286,150.130657 C42.1492512,148.661804 37.7282514,146.507485 33.601985,143.569779 C30.5564074,141.41546 27.6090743,139.359065 24.3670078,137.596441 C21.1249414,135.833817 19.2582971,133.189881 17.686386,129.958403 C18.7670749,127.706161 20.3389859,126.922772 22.8933413,127.020696 C33.4054962,127.510314 43.917651,127.608237 54.3315615,128.195779 C67.5945606,128.979167 79.4821377,124.964301 90.4855147,117.913804 C102.766069,110.079919 113.867691,100.777181 125.067557,91.6702891 C135.481467,83.1509389 145.797133,74.7295123 156.309288,66.4060093 C160.730288,62.880761 165.347777,59.8451305 171.045954,58.4742006 C172.716109,58.0825063 174.189776,56.7115764 175.663443,55.7323407 C180.084442,52.7946338 182.933531,48.5839205 185.78262,44.1773601 C187.55102,41.5334238 189.908886,39.1832583 192.070264,36.8330927 C193.740419,34.972545 195.214086,33.0140737 196.098286,30.6639081 C196.393019,29.6846725 197.08073,28.7054368 197.96493,28.1178954 C200.028063,26.7469655 202.189441,25.4739592 204.350819,24.2009528 C206.512196,22.9279465 208.771818,22.6341758 211.227929,23.3196407 C214.273507,24.1030293 217.122596,25.278112 219.676951,27.2365833 C220.561151,27.9220483 221.64184,28.6075132 223.017262,29.4888253 C224.392684,27.530354 225.571617,25.6698063 226.947039,23.6134114 C228.027728,23.4175643 229.40315,23.2217172 230.385595,23.02587 C232.05575,24.6905706 233.529417,26.2573477 235.199572,27.9220483 C235.887283,26.9428126 236.280261,26.3552713 236.673239,25.8656534 C238.048661,26.0615006 239.325839,26.3552713 240.701261,26.4531948 C245.220505,27.0407362 249.739749,27.530354 254.160749,28.215819 C257.108082,28.7054368 259.564193,30.2722139 261.529082,32.5244558 C262.413282,33.5036915 263.297481,34.4829271 264.181681,35.4621628 C264.967637,35.1683921 265.753592,34.972545 266.637792,34.6787743 C267.91497,36.6372456 269.486881,38.0081755 271.942992,37.5185577 C272.728948,35.8538571 273.416659,34.1891564 274.202614,32.2306851 C279.606058,33.6995386 284.813013,37.1268634 289.725235,32.4265323 C292.967302,35.1683921 296.012879,37.7144048 299.35319,40.4562646 C298.665479,44.1773601 298.861968,48.2901498 296.209368,51.8153981 C295.718146,52.4029395 295.521657,53.1863281 295.128679,53.871793 C294.440968,55.1447994 294.539213,56.4178057 295.521657,57.3970413 C297.388301,59.2575891 298.272501,61.4119075 298.370746,64.3496145 C297.781279,64.8392323 297.093568,65.5246972 296.307613,66.0143151 C294.440968,67.4831685 292.574324,68.7561749 291.59188,71.204264 C291.100657,72.5751939 289.528746,73.6523531 288.251569,74.6315888 C285.893702,76.5900601 284.616525,78.8423021 284.420036,82.0737797 C284.223547,85.5011045 282.062169,88.1450407 279.114836,90.0055885 C267.718481,97.2519323 256.322126,104.5962 245.024016,111.940467 C240.995994,114.584403 237.066216,117.52211 233.234683,120.557741 C232.05575,121.536976 231.17155,122.907906 229.992617,124.37676 C229.599639,124.474683 228.911928,124.37676 228.224217,124.67053 C227.340017,125.062225 226.554062,125.649766 225.768106,126.237308 C216.631373,132.602339 216.533129,132.504416 214.666485,143.471855 C213.880529,148.074263 213.291062,152.67667 212.505107,157.181154 C212.210374,159.041702 212.406862,160.608479 213.68404,161.979409 C214.371751,162.762797 215.059462,163.644109 215.550685,164.623345 C219.971684,171.967612 226.947039,175.003243 235.101328,176.276249 C237.655683,176.667943 240.111794,177.451332 242.666149,177.94095 C244.041572,178.136797 244.336305,179.116033 244.729283,180.095268 C245.416994,181.662045 245.908216,183.228822 248.167838,183.326746 C248.953793,183.326746 249.54326,185.08937 250.525704,185.676911 C251.901127,186.656147 250.329216,187.635383 250.820438,188.712542 C252.981815,190.181395 255.241438,190.475166 257.599304,188.712542 C259.662437,187.145765 262.020304,185.970682 264.181681,184.501829 C266.14657,183.228822 268.013214,182.837128 270.272837,183.914287 C272.139481,184.795599 274.10437,185.285217 275.971014,185.970682 C276.069258,186.362376 276.167503,186.656147 276.265747,186.949918 C277.346436,190.181395 276.756969,192.923255 274.595592,195.665115 C273.318414,197.231892 272.728948,199.288287 271.746503,201.246758 C269.781614,200.365446 269.68337,198.406975 269.093903,196.938121 C268.504437,195.567192 267.521992,194.098338 268.897414,192.433637 C269.781614,191.356478 269.486881,190.181395 268.307948,189.300083 C267.423748,188.712542 266.637792,188.027077 265.458859,187.145765 C262.806259,191.356478 260.153659,195.273421 254.946704,196.742274 C257.009837,198.602822 258.679993,199.973752 260.939615,200.365446 C262.413282,200.659217 263.592215,201.344682 263.49397,203.107306 C263.395726,205.359548 264.672904,206.632554 266.539548,207.61179 C268.504437,208.591026 270.469325,209.766108 272.237725,210.745344 C270.862303,213.585127 269.585125,216.326987 268.209703,219.068847 C267.227259,218.775076 266.343059,218.579229 265.26237,218.285459 C261.234348,222.104478 257.206326,225.825573 253.276549,229.644592 C252.097616,230.819675 251.016927,231.896834 249.052038,231.309293 C248.462571,231.113446 247.578371,231.50514 246.988905,231.896834 C237.753928,238.65356 228.51895,245.410286 219.283973,252.167012 C219.087484,252.264936 219.087484,252.558706 218.890995,252.950401 C219.578706,253.831713 220.266418,254.713025 220.954129,255.594337 C221.838329,256.76942 222.919017,256.965267 224.29444,256.965267 C230.483839,256.671496 236.47675,255.300566 242.273172,253.244171 C251.409904,250.012694 260.644882,246.781216 269.781614,243.549738 C271.45177,242.962197 272.237725,241.787114 273.023681,240.318261 C279.21308,228.567433 280.98148,215.543599 283.437591,202.715612 C286.679658,185.481064 289.528746,168.148593 292.47608,150.816122 C292.967302,148.172186 293.065546,145.430326 293.458524,142.78639 C294.244479,137.596441 292.672568,132.798186 291.493635,127.706161 C285.107747,126.139384 278.427125,127.314467 272.237725,124.572607 C275.086814,123.789218 277.837658,123.103753 280.883236,122.320365 C280.588503,121.928671 280.392014,121.6349 280.195525,121.439053 C279.999036,121.243206 279.704303,121.047359 279.409569,120.851511 C282.356902,116.836645 286.090191,114.878174 289.725235,115.661562 C291.100657,113.409321 292.672568,111.255002 295.423413,110.275766 C297.290057,109.590301 299.156701,109.198607 301.12159,109.884072 C304.854879,111.059155 308.686412,111.548773 312.616189,110.765384 C313.991612,110.471614 314.974056,111.059155 316.054745,111.940467 C318.216122,113.703091 320.573989,115.171945 323.0301,117.032492 C324.012544,115.85741 324.7985,114.976098 325.486211,114.094785 C332.068588,105.575435 338.847454,97.0560852 345.331587,88.536735 C350.243809,82.0737797 355.450764,75.8066716 361.443675,70.4208755 C363.212075,68.8540984 363.899786,66.9935507 364.194519,64.8392323 C365.176964,58.6700477 366.257653,52.5008631 367.436586,46.3316785 C368.026053,43.1981244 371.169875,41.9251181 374.018963,43.4918951 C375.590874,44.2752836 377.26103,44.7649015 379.02943,45.1565957 C381.289052,46.5275256 381.092563,48.7797676 380.208363,51.2278568 C382.467985,51.2278568 384.432874,51.2278568 386.594251,51.2278568 C386.987229,50.1506975 387.478451,49.0735383 387.969673,47.6046848 C388.755629,48.5839205 389.44334,49.4652326 390.131051,50.2486211 C392.390673,48.7797676 394.552051,47.3109142 397.008162,45.7441371 C397.695873,47.3109142 398.285339,48.4859969 398.973051,50.052774 C401.429162,49.8569268 403.983517,49.7590033 406.537872,49.5631561 C408.306272,49.367309 409.878183,49.6610797 411.548339,50.5423918 C414.00445,51.9133217 416.558805,52.9904809 419.11316,54.1655637 C420.390338,54.7531051 420.979805,55.5364936 421.372782,57.0053471 C422.060494,59.943054 423.042938,62.7828374 422.64996,65.8184679 C422.158738,69.3437163 421.176294,72.5751939 418.523694,75.1212066 C416.362316,77.275525 415.281627,79.8215377 414.88865,82.8571682 C414.397427,86.7741108 413.709716,90.788977 412.923761,94.607996 C412.629027,96.0768495 411.843072,97.4477794 411.057116,99.4062507 C412.23605,100.875104 411.057116,102.833575 410.369405,104.88997 C409.58345,106.946365 408.306272,109.100684 410.172917,111.255002 C410.172917,115.171945 410.172917,118.990964 410.074672,122.907906 C410.074672,123.397524 409.779939,123.985066 409.386961,124.37676 C408.208028,125.649766 407.618561,126.922772 407.618561,128.685397 C407.618561,129.272938 406.93085,129.958403 406.537872,130.545944 C407.127339,131.133486 407.716806,131.52518 408.404517,132.112721 C407.618561,133.091957 406.832606,133.973269 406.04665,134.854581 C408.601005,136.715129 408.404517,138.967371 405.850161,142.003001 C407.127339,146.997103 406.144895,151.795358 404.474739,156.495689 C403.983517,157.964543 403.295806,159.237549 403.590539,160.804326 C404.081761,162.958644 403.688784,164.819192 401.232673,166.092198 C402.116873,166.777663 402.902828,167.365205 403.983517,168.246517 C402.902828,168.931982 401.822139,169.617447 400.74145,170.302912 C401.822139,173.338542 402.706339,175.688708 403.688784,178.332644 C404.671228,177.647179 405.260695,177.157561 406.144895,176.57002 C406.341383,178.136797 405.653672,179.409803 405.064206,180.486963 C404.474739,181.564122 403.295806,182.34751 402.116873,183.620517 C402.411606,184.501829 403.001073,185.774835 403.492295,187.145765 C401.822139,189.20216 399.562517,191.062708 401.134428,194.392109 C410.369405,192.433637 419.604383,190.475166 429.134093,188.516695 C429.625315,184.208058 430.018293,180.291115 430.411271,176.374173 C433.358604,147.780492 436.011204,119.088887 439.25327,90.4952063 C440.432203,79.6256906 441.709381,68.8540984 442.298848,57.9845827 C442.397092,55.9281879 441.90587,54.4593344 440.13747,53.3821752 C439.25327,52.7946338 438.36907,52.1091688 437.583115,51.3257803 C436.109448,49.8569268 434.537537,48.9756148 432.37616,50.5423918 C430.804249,47.800532 429.920049,45.0586722 430.214782,42.2188888 C431.590204,40.7500353 434.144559,41.9251181 434.930515,39.6728761 C435.618226,38.0081755 436.404181,36.3434749 437.288381,34.5808507 C438.860292,34.8746214 440.235715,35.1683921 441.512892,35.5600864 C442.986559,35.9517806 443.969003,35.6580099 444.853203,34.4829271 C446.916336,31.9369145 449.568936,30.0763667 453.007492,28.9012839 C457.526736,34.8746214 464.109113,38.9874111 468.137135,45.54829 C468.923091,46.8212963 470.298513,47.9963791 471.673935,48.6818441 C474.22829,50.1506975 476.094935,52.0112453 477.666846,54.3614108 C479.828223,57.4949649 482.087845,60.4326719 484.543956,63.8599966 C495.449089,54.9489522 507.631399,48.4859969 519.322487,40.7500353 C518.92951,38.5957169 518.438287,36.4413984 518.04531,34.3850036 C517.357599,30.1742903 518.143554,26.3552713 521.975087,23.9071821 C524.431198,22.3404051 525.610131,20.4798574 525.217154,17.5421504 C525.118909,16.6608383 525.315398,15.7795262 525.217154,14.9961377 C524.725931,11.7646601 525.904865,9.31657095 528.557464,7.55394678 C531.210064,5.79132261 533.960909,4.02869844 536.809997,2.4619214 C539.560842,0.993067926 542.40993,1.09099149 545.160775,2.65776853 C546.437952,3.34323348 548.009863,3.73492774 549.385285,4.126622 C551.350174,4.61623983 553.02033,4.22454557 553.90453,2.16815071 C554.690485,0.307602971 556.262396,-0.0840912887 558.12904,0.0138322762 C559.602707,0.111755841 560.585151,0.503450101 561.272862,1.77645645 C561.960573,3.04946279 562.844773,4.32246913 563.728973,5.59547548 C565.104395,5.20378122 566.185084,4.81208696 567.462262,4.4203927 C567.658751,4.81208696 567.756995,5.39962835 567.953484,5.49755191 C571.490284,6.77055826 572.570973,10.0999595 574.437617,12.7438957 C575.518306,14.4085963 576.795484,15.387832 578.760372,15.6816027 C583.57435,16.4649912 588.191838,17.9338447 592.416349,20.5777809 C593.10406,21.0673987 593.98826,21.459093 594.381238,22.144558 C596.935593,27.530354 599.29346,32.9161501 601.749571,38.3019462 C596.64086,41.9251181 594.774216,47.6046848 592.023372,52.5987867 C591.532149,53.4800987 591.728638,54.6551815 591.728638,55.7323407 C591.728638,56.8095 591.826883,57.8866592 591.925127,58.8658948 C590.353216,59.8451305 589.174283,59.943054 588.290083,58.2783534 C587.798861,57.2011942 587.11115,56.2219586 586.325194,55.0468758 C584.163816,56.4178057 581.609461,56.9074235 581.707706,60.0409776 C581.707706,60.2368247 581.609461,60.5305954 581.412972,60.628519 C578.858617,61.5098311 579.251595,64.1537673 578.170906,65.9163915 C577.581439,65.8184679 577.090217,65.8184679 576.598995,65.7205444 C576.50075,65.9163915 576.304261,66.1122386 576.304261,66.3080858 C576.009528,67.9727864 576.107773,69.8333341 575.321817,71.3021876 C570.900817,80.213232 569.525395,89.8097413 568.837684,99.5041743 C567.953484,113.017626 567.364018,126.629002 566.578062,140.240377 C566.381573,144.842785 566.185084,149.543116 565.988595,154.145524 C565.988595,155.222683 565.988595,156.299842 565.988595,157.670772 C568.149973,157.474925 570.114862,157.181154 572.570973,156.985307 C572.963951,150.620275 573.356928,144.255243 573.749906,137.792288 C573.946395,137.792288 574.044639,137.792288 574.241128,137.792288 C574.634106,142.590543 574.928839,147.388798 575.321817,152.67667 C576.304261,151.893282 576.991972,151.403664 577.581439,151.011969 C578.367395,150.522352 579.251595,149.836887 580.03755,149.738963 C583.083128,149.347269 585.146261,147.976339 585.244505,144.646938 C585.244505,144.353167 585.440994,144.059396 585.735727,143.373931 C587.602372,144.646938 589.469016,145.822021 591.433905,147.095027 C590.156727,148.759727 589.076038,150.228581 587.99535,151.697434 C588.781305,152.872517 589.960238,152.480823 590.942683,152.578746 C592.318105,152.774594 593.693527,152.970441 595.167194,152.970441 C598.016282,152.970441 600.865371,153.068364 602.633771,156.299842 C603.223237,155.516453 603.616215,155.026836 604.107437,154.439294 C604.59866,154.635141 605.188126,154.733065 605.679348,155.026836 C608.331948,156.397766 610.984548,157.964543 614.226615,157.08323 C614.816081,156.887383 615.503792,157.279078 616.191503,157.279078 C618.844103,157.279078 621.594947,157.474925 624.247547,157.181154 C626.900147,156.985307 629.454502,156.593613 631.910613,157.768695 C638.001769,160.608479 643.405213,164.525421 649.201635,168.05067 C648.808657,169.225753 648.612168,170.107065 648.21919,171.282147 C649.398123,172.065536 650.478812,172.946848 651.75599,173.534389 C656.078745,175.492861 659.320812,178.822262 662.857611,181.857892 C664.429522,183.228822 664.331278,186.166529 662.857611,187.537459 C662.661123,187.733306 662.366389,188.027077 662.071656,188.125001 C658.436612,190.181395 656.275234,193.217026 655.882256,197.329816 C655.685767,199.190363 654.506834,200.071675 652.836679,200.659217 C650.577057,201.540529 648.710412,202.715612 647.040257,204.576159 C644.780635,207.024249 641.833302,208.688949 638.394746,209.472338 C631.517636,211.039115 624.640525,211.039115 617.763414,209.766108 C609.70737,208.297255 601.749571,207.709714 593.595283,208.493102 C588.781305,208.98272 583.869083,208.786873 578.956861,208.98272 C577.777928,208.98272 576.598995,208.98272 575.027084,208.98272 C574.339373,213.780975 573.455173,218.187535 573.258684,222.692019 C572.570973,239.828643 572.079751,256.965267 571.588528,274.101891 C571.39204,281.642005 571.293795,289.18212 571.39204,296.722234 C571.588528,310.33361 572.177995,323.847062 572.276239,337.458437 C572.374484,353.322055 571.981506,369.185672 571.883262,385.04929 C571.883262,394.352028 572.079751,403.556843 572.374484,412.859582 C572.570973,418.049531 573.455173,423.141556 576.598995,427.548117 C578.26915,429.898282 578.662128,432.542219 577.777928,435.577849 C577.286706,437.24255 577.483195,439.298945 577.974417,440.963645 C579.251595,445.174359 579.251595,449.091301 576.991972,453.106167 C575.420061,455.848027 575.420061,459.177428 575.911284,462.310982 C576.598995,466.815466 577.679684,471.222027 578.072661,475.726511 C578.662128,482.28739 578.662128,488.848269 578.956861,495.409147 C579.15335,500.305326 579.448083,505.299427 579.742817,510.195606 C579.939306,512.643695 580.03755,512.839542 578.465639,515.483478 C576.991972,514.70009 575.420061,513.916701 573.84815,513.133313 C571.785017,514.210472 570.213106,515.679325 569.132417,517.833644 C567.756995,520.379656 565.890351,522.631898 564.31844,525.079988 C562.943018,527.234306 561.764085,529.486548 560.486907,531.836714 C561.371107,532.620102 561.862329,533.10972 562.55004,533.697261 C561.764085,534.088956 561.174618,534.48065 560.585151,534.872344 C560.388662,534.578573 560.192174,534.48065 560.093929,534.284803 C558.816751,530.563707 556.065907,529.388624 552.627352,530.955402 C552.332619,531.053325 552.037885,531.249172 551.743152,531.347096 C548.992308,532.424255 546.241463,533.893108 544.767797,537.51628 Z M423.375422,233.393341 C425.435084,231.946785 425.528705,229.82517 425.809568,227.221369 C417.290056,225.967687 410.736585,230.307355 404.276735,233.489778 C405.119324,235.41852 405.868293,236.961513 406.617261,238.69738 C408.208818,238.215194 409.987617,237.636572 411.672795,237.05795 C415.604878,235.804268 419.53696,234.550586 423.375422,233.393341 C423.000938,233.586215 422.626454,233.971964 422.158349,234.068401 C416.634709,235.997142 411.20469,238.118757 405.868293,240.626121 C404.089493,241.494055 403.434146,243.229922 402.029831,244.387167 C401,245.158663 402.029831,247.762464 403.621388,249.401894 C402.497936,252.48788 402.591557,255.76674 402.966041,259.0456 C403.527767,263.67458 403.340525,268.303559 402.029831,272.932538 C401.561726,274.668405 401.374484,276.500709 401.280863,278.236576 C401.093621,287.687409 401.093621,297.138241 401,306.589073 C401,307.36057 401.280863,308.035629 401.468105,309 C404.183114,306.68551 404.74484,305.817577 405.119324,303.020902 C405.868293,297.716863 406.617261,292.316388 407.272608,287.012349 C407.366229,288.941091 407.366229,290.773395 407.366229,292.702136 C407.45985,294.630877 406.804503,296.656056 407.834334,298.584797 C408.39606,298.295486 408.676923,298.199049 408.864165,298.006175 C411.017448,295.402374 413.357973,293.087884 416.072983,291.159143 C416.821951,290.676958 417.196435,289.423276 417.477298,288.458905 C418.319887,285.469356 419.068855,282.576244 419.817823,279.586695 C420.566791,276.79002 421.503001,274.089783 421.877486,271.293108 C423.281801,259.527786 424.592495,247.666027 425.903189,235.900705 C426.184052,233.393341 425.99681,233.393341 423.375422,233.393341 Z M469,178 C470.082902,177.902375 470.673575,177.902375 471.165803,177.804749 C484.455959,175.461741 497.84456,173.021108 511.134715,170.6781 C513.202073,170.287599 513.300518,169.116095 513.497409,167.456464 C514.284974,158.279683 515.072539,149.005277 515.958549,139.828496 C518.222798,116.788918 521.471503,93.944591 525.507772,71.1978892 C525.704663,70.0263852 525.803109,68.7572559 526,67 C522.849741,68.4643799 520.585492,69.9287599 518.419689,71.7836412 C507.787565,81.2532982 497.15544,90.7229551 486.621762,100.387863 C485.440415,101.461741 484.849741,103.023747 483.963731,104.292876 C483.373057,105.269129 482.979275,106.635884 482.093264,107.124011 C479.336788,108.881266 478.352332,111.419525 477.958549,114.348285 C477.663212,116.398417 477.170984,118.350923 476.875648,120.401055 C475.792746,128.015831 474.80829,135.728232 473.626943,143.343008 C472.248705,152.71504 470.673575,161.989446 469.196891,171.361478 C469.098446,173.60686 469.098446,175.656992 469,178 Z M327.145991,223 C339.678767,218.532625 351.605119,214.356601 363.733612,210.08346 C365.856098,171.722307 367.877514,133.749621 370,95 C368.888221,96.262519 368.079655,97.0394537 367.473231,97.8163885 C361.408984,105.682853 355.142596,113.549317 349.280491,121.610015 C344.125881,128.796662 339.274484,136.274659 334.524158,143.655539 C331.997388,147.540212 330.784539,151.813354 330.784539,156.474962 C330.784539,158.320182 330.582397,160.165402 330.077044,161.913505 C329.57169,163.855842 327.853487,165.701062 329.470619,167.93475 C329.57169,168.128983 329.167407,168.711684 329.066336,169.100152 C328.662053,170.848255 327.954557,172.596358 327.853487,174.344461 C327.449203,181.725341 327.348133,189.106222 327.04492,196.487102 C326.94385,198.526555 327.04492,200.566009 327.04492,202.605463 C327.550274,202.70258 328.055628,202.70258 328.864194,202.896813 C328.35884,209.306525 327.752416,215.813354 327.145991,223 Z M207.259947,277.318422 C206.890974,282.035787 206.522001,286.941846 206.060785,291.942253 C205.968542,293.640504 205.784055,295.150061 207.259947,296.56527 C207.721163,297.037007 207.813406,298.074827 207.813406,298.829606 C207.813406,299.867426 207.536677,300.905246 207.444433,301.943066 C207.259947,303.735665 207.90565,305.150874 209.658271,306 C215.469595,300.999593 221.188676,295.999187 227,290.904433 C223.402514,286.375763 220.635217,281.752745 215.285109,279.865799 C214.823892,279.677105 214.362676,279.394063 213.993703,279.111021 C212.148839,277.601464 209.750514,278.0732 207.813406,277.03538 C207.813406,276.941033 207.721163,277.03538 207.259947,277.318422 Z M331.264101,266 C340.470528,262.896552 349.465312,259.896552 358.460097,256.896552 C358.460097,253.793103 359.518307,251 358.671739,248 C357.71935,248.206897 356.978603,248.310345 356.237856,248.517241 C353.063226,249.551724 349.888596,250.689655 346.713966,251.724138 C342.586947,253.172414 338.354108,254.517241 334.227089,256.068966 C330.523354,257.413793 329.253502,260.206897 330.417533,263.827586 C330.523354,264.448276 330.840817,264.965517 331.264101,266 Z" opacity=".405"/>
</svg>
