<svg xmlns="http://www.w3.org/2000/svg" width="406" height="332" viewBox="0 0 406 332">
  <path fill="#424854" d="M850.095972,516.647155 C848.173695,515.928688 846.611846,515.569455 845.410423,517.724855 C846.671917,518.024216 847.813269,518.263705 849.014691,518.563066 C849.014691,518.742683 848.95462,518.862428 848.95462,519.042044 C847.993482,519.042044 846.972272,519.042044 846.011134,519.101916 C844.929853,519.161789 843.908644,519.221661 842.827363,519.281533 C842.466936,518.682811 842.166581,518.084088 841.686011,517.305749 C840.54466,518.203833 839.463379,519.101916 838.322027,520 C837.42096,519.580894 837.000462,518.982172 837.240747,517.964344 C837.481031,517.06626 837.360889,516.168177 836.940391,515.329966 C835.85911,515.569455 834.837901,515.868816 833.816691,515.98856 C833.456264,516.048432 832.735411,515.749071 832.675339,515.509582 C832.374984,514.132521 831.293703,514.37201 830.272493,514.072649 C829.972138,514.791116 829.611711,515.329966 829.371426,515.928688 C829.071071,516.886644 828.410288,517.365622 827.44915,517.126133 C824.685877,516.407666 822.22296,517.365622 819.760043,518.323577 C819.339545,518.503194 818.919047,518.622939 818.438477,518.742683 C816.936699,517.664983 816.45613,515.98856 815.735276,514.491754 C815.494991,514.491754 815.314778,514.491754 815.254707,514.551627 C812.611576,516.287921 812.431363,516.287921 810.989655,513.533799 C809.908374,511.43827 808.767023,509.342742 807.685742,507.187342 C807.145102,506.109641 806.424248,505.451047 805.162754,505.211558 C804.261687,505.031941 803.360619,504.672708 802.039054,504.253602 C803.600904,503.774624 804.742256,503.355519 805.883608,502.996285 C805.883608,502.876541 805.883608,502.756796 805.883608,502.637052 C805.342967,502.457435 804.802327,502.217946 804.261687,502.098202 C803.721046,501.918585 803.120335,501.738968 802.279339,501.499479 C803.300548,500.72114 804.742256,500.72114 804.802327,499.224334 C802.699837,498.02689 800.357062,497.188678 797.894145,496.709701 C795.791655,496.290595 793.749236,495.991234 791.646746,495.512256 C790.565465,495.272767 789.544256,494.853661 788.583117,494.195067 C790.32518,494.254939 792.007173,494.374683 793.749236,494.434556 C793.809307,494.314811 793.869378,494.195067 793.929449,494.075322 C792.607884,493.177239 791.34639,492.219283 790.024825,491.321199 C790.144967,490.961966 790.205038,490.662605 790.265109,490.363244 C790.685607,489.225671 790.445323,488.327588 789.484184,487.609121 C789.2439,487.429504 789.003615,487.130143 788.763331,486.890654 C787.922335,486.172187 787.441765,485.45372 788.282761,484.37602 C786.600769,482.879214 784.798635,481.861386 782.696145,481.382408 C781.254437,481.083047 779.81273,480.963303 778.611307,479.705986 C777.830382,478.867775 776.388674,478.688158 775.247322,478.20918 C773.02469,477.191352 770.741986,476.233396 768.579425,475.215568 C767.438073,474.676718 766.356793,474.018124 765.335583,473.359529 C764.494587,472.820679 763.833804,471.862723 762.57231,472.281829 C762.332026,472.341701 761.971599,472.102212 761.671243,471.982468 C759.989251,470.904767 758.36733,469.827067 756.80548,468.509878 C759.448611,469.348089 762.151812,470.186301 764.794943,471.024512 C767.618287,471.922595 770.501702,472.760807 773.325046,473.599018 C774.166042,473.838507 775.12718,473.898379 776.14839,473.718762 C775.908105,473.479273 775.727892,473.179912 775.427536,473.000296 C772.423979,471.563362 769.480492,470.126428 766.476935,468.809239 C763.533449,467.551922 760.46982,466.474222 757.466263,465.276777 C756.925622,465.037288 756.505124,464.55831 756.204769,463.839844 C756.625267,463.899716 757.045765,463.959588 757.466263,464.079333 C760.890318,465.037288 764.314374,466.055116 767.738429,467.013072 C768.579425,467.252561 769.420421,467.551922 770.141275,466.41435 C768.038785,465.396522 765.816152,464.797799 763.713662,463.959588 C761.611172,463.181249 759.568753,462.40291 757.105836,461.504826 C758.487472,460.666615 759.448611,461.265338 760.409749,461.32521 C761.370887,461.385082 762.332026,461.504826 763.353235,461.624571 C763.233093,460.606743 762.452168,460.606743 761.851457,460.427126 C759.568753,459.768532 757.225978,459.229682 755.003346,458.511215 C753.441496,458.032237 751.819575,457.433514 750.49801,456.595303 C748.215306,455.15837 745.81246,454.200414 743.229401,453.481947 C741.307124,452.943097 739.444919,452.284502 737.582713,451.745652 C736.080934,451.266674 734.579156,450.847569 733.077377,450.248846 C734.338871,450.428463 735.540294,450.60808 736.801788,450.787696 C751.098721,453.122714 765.395654,455.517603 779.632516,457.85262 C789.484184,459.46917 799.516066,459.948148 809.487876,460.127765 C812.551505,460.187637 815.675205,459.768532 818.858975,459.588915 C819.279473,456.894664 819.699972,454.320158 820.000327,451.805524 C820.060398,451.206802 819.820114,450.548207 819.579829,449.889613 C819.399616,449.350763 819.039189,448.811913 818.738833,448.332935 C817.897837,447.075618 817.53741,445.878173 818.979118,444.560984 C817.897837,443.004306 816.816556,441.567372 815.555062,439.831077 C816.396058,439.89095 817.056841,439.950822 817.657553,440.010694 C819.399616,440.190311 820.240612,439.591588 820.12047,437.855294 C819.399616,430.431137 821.20175,423.186596 821.742391,415.822311 C822.283031,408.398154 822.463244,400.973997 821.622248,393.489968 C820.781252,385.946066 820.781252,378.402164 821.982675,370.798391 C822.643458,366.786951 822.523315,362.655767 823.003885,358.584455 C823.78481,351.040553 824.745948,343.556524 825.586944,336.012622 C826.127584,330.86361 826.548082,325.654725 827.028652,320.326097 C826.307798,320.326097 825.8873,320.266224 825.466802,320.326097 C821.141679,320.924819 816.816556,321.583413 812.551505,322.242008 C812.010865,322.30188 811.410153,322.30188 811.049726,322.601241 C809.487876,323.678942 807.805884,323.918431 806.00375,323.858558 C805.763465,323.858558 805.523181,323.978303 805.403038,324.038175 C804.261687,327.989743 804.4419,331.94131 804.321758,335.892878 C804.321758,336.731089 804.201615,337.629172 804.141544,338.467384 C804.141544,338.886489 804.081473,339.485212 804.321758,339.784573 C805.102683,340.742529 805.102683,341.880101 805.102683,342.957801 C805.403038,355.890204 804.98254,368.762735 804.081473,381.695137 C803.540833,389.598272 803.660975,397.501407 803.420691,405.404542 C803.420691,405.703904 803.480762,406.063137 803.841189,406.42237 C804.141544,405.34467 804.622114,404.26697 804.802327,403.18927 C805.46311,398.938341 806.123892,394.747285 806.724604,390.496356 C809.007307,373.372897 809.307663,356.189565 809.608019,339.006234 C809.66809,337.210067 809.608019,335.473772 809.968446,333.617733 C810.328873,338.467384 810.929584,343.257162 811.049726,348.106814 C811.290011,355.710587 811.109797,363.254489 810.268801,370.798391 C809.968446,373.792002 809.367734,376.785614 808.767023,379.779226 C808.226382,382.473476 807.805884,385.107855 809.067378,387.682361 C809.66809,388.879805 809.427805,390.137122 808.887165,391.334567 C808.10624,393.130734 807.805884,394.986773 807.805884,396.902685 C807.865955,401.512847 807.986098,406.123009 807.865955,410.733171 C807.745813,413.966272 807.265244,417.1395 806.904817,420.372601 C806.724604,422.108896 805.823536,423.605702 804.501971,424.982763 C803.360619,421.929279 803.180406,418.756051 802.159196,415.942056 C801.077916,415.822311 801.017845,416.540778 800.77756,417.019756 C799.936564,419.235029 799.095568,421.450301 798.254572,423.665574 C798.014287,424.324169 797.65386,425.042635 797.173291,425.521613 C795.851726,426.838802 794.770445,428.275736 793.98952,430.012031 C793.689165,430.730498 792.667955,431.149603 791.766888,431.86807 C791.766888,432.167431 791.766888,432.706281 791.766888,433.484621 C791.226248,433.783982 790.565465,434.203087 789.964754,434.502449 C788.823402,433.903726 788.823402,432.885898 788.763331,431.987815 C788.523046,428.874458 788.342833,425.820974 788.162619,422.707618 C788.102548,422.168768 788.042477,421.629918 788.042477,421.15094 C788.042477,419.594262 787.441765,418.45669 786.000058,417.618478 C785.098991,417.079628 784.498279,416.0618 783.597212,415.103844 C783.056572,415.043972 782.45586,415.822311 781.554793,415.103844 C780.773868,414.44525 778.79152,415.223589 778.310951,416.181545 C777.590097,417.618478 776.508817,417.738223 775.067109,417.378989 C774.886896,416.720395 774.706682,416.0618 774.526469,415.52295 C772.784405,414.9841 771.102413,414.505122 769.480492,414.026144 C771.522911,405.464415 771.342698,397.321791 766.897433,389.718017 C766.717219,389.718017 766.597077,389.718017 766.416864,389.718017 C766.416864,390.316739 766.416864,390.975334 766.416864,391.574056 C766.597077,395.405879 766.837362,399.237702 766.23665,403.009653 C765.996366,404.506459 766.296721,405.88352 767.017575,406.841476 C766.717219,407.799432 766.356793,408.517899 766.296721,409.296238 C765.996366,412.948444 765.876223,416.660523 765.635939,420.372601 C765.575868,421.210812 765.69601,422.168768 764.254302,422.22864 C764.13416,420.013368 763.473378,418.037584 761.070532,416.900011 C760.830247,417.498734 760.46982,418.097456 760.349678,418.696178 C759.989251,420.492346 759.028113,421.989151 758.006903,423.426085 C756.685338,425.401869 755.483915,427.437525 754.282492,429.473181 C754.102279,429.772542 753.922065,430.012031 753.741852,430.25152 C751.098721,429.353436 750.918508,429.413309 750.197654,432.167431 C749.717085,434.083343 749.056302,435.759765 747.134025,436.777593 C746.353101,435.87951 746.052745,434.80181 746.052745,433.664237 C746.052745,432.167431 746.172887,430.610753 746.232958,429.113947 C746.293029,427.377653 746.413172,425.70123 746.413172,423.964935 C746.413172,422.587874 745.992674,421.450301 745.031535,420.372601 C743.890183,419.175156 742.868974,418.336945 741.126911,419.235029 C740.646342,419.474518 739.985559,419.354773 739.384847,419.414645 C738.904278,418.636306 738.48378,417.857967 737.94314,417.019756 C737.222286,417.319117 736.501432,417.618478 735.780579,417.977712 C733.618017,415.822311 731.996096,413.487294 732.17631,410.194321 C732.356523,406.482243 732.476665,402.830036 732.476665,399.117958 C732.476665,397.022429 732.356523,394.926901 732.236381,392.771501 C732.116239,390.496356 731.515527,388.340955 730.434246,386.365172 C729.713393,385.107855 729.533179,383.850538 729.413037,382.413604 C729.352966,381.096415 728.812325,379.719354 728.271685,378.521909 C728.031401,377.983059 727.130333,377.74357 726.349408,377.264592 C726.169195,375.588169 726.709835,373.851875 727.070262,372.175452 C727.190404,371.696474 727.791116,371.337241 728.271685,370.978007 C729.59325,369.960179 730.974887,369.121968 732.236381,368.044268 C732.71695,367.625162 733.197519,366.906695 733.317662,366.307973 C734.098586,361.697811 734.879511,357.087649 735.480223,352.417614 C735.720507,350.142469 735.480223,347.867325 735.420152,345.412563 C734.639227,345.59218 734.098586,345.711924 733.618017,345.891541 C729.413037,347.388347 725.147985,349.004897 720.943005,350.441831 C719.801653,350.860936 719.200942,351.459659 719.0808,352.657103 C717.999519,364.63155 714.755677,376.067147 711.27155,387.502744 C710.971195,388.4607 710.73091,389.418656 710.430554,390.316739 C710.130199,391.274695 710.370483,391.993162 711.451764,392.532012 C712.533045,390.915461 712.773329,388.879805 713.914681,387.263255 C713.374041,389.059422 712.773329,390.855589 712.29276,392.651756 C711.812191,394.447923 711.391693,396.184218 710.911124,397.980385 C710.670839,398.998213 710.550697,400.075913 710.130199,401.033869 C708.568349,404.626203 707.787424,408.458026 707.366926,412.349722 C707.306855,413.008316 707.126641,413.607039 707.006499,414.44525 C705.564791,413.247805 705.264436,410.852916 702.741447,411.032532 C702.020594,413.666911 702.501163,416.540778 702.020594,419.414645 C701.29974,419.714006 700.578886,420.013368 699.797961,420.372601 C700.158388,421.450301 700.458744,422.528002 699.437534,423.605702 C699.017036,423.605702 698.476396,423.665574 697.815613,423.725446 C697.695471,424.264296 697.575329,424.743274 697.515258,425.282124 C697.455187,426.180208 697.034688,426.659186 696.193692,427.018419 C694.691914,427.557269 693.250206,428.215864 691.808499,428.874458 C690.667147,429.413309 689.525795,429.533053 688.324372,429.054075 C686.522238,428.395481 684.660032,427.85663 682.917969,427.198036 C680.635265,426.359825 678.893202,424.922891 677.932064,422.647746 C677.75185,422.22864 677.331352,421.929279 676.970925,421.68979 C675.288933,420.552218 674.508008,418.935667 674.327795,417.019756 C674.207652,415.942056 673.847226,415.403206 672.826016,414.9841 C672.225305,414.744611 671.744735,414.086016 671.384309,413.487294 C669.702316,410.43381 667.059186,408.158665 664.65634,405.763776 C664.295913,405.34467 663.635131,405.224926 663.034419,404.985437 C663.274704,404.506459 663.454917,404.087353 663.755273,403.428759 C663.09449,403.309014 662.55385,403.18927 661.953138,403.069525 C661.832996,402.65042 661.712854,402.231314 661.652783,401.87208 C661.352427,399.896297 661.352427,399.836424 663.09449,398.938341 C664.1157,398.399491 664.836553,397.56128 665.437265,396.603324 C665.917834,395.765113 666.21819,394.62754 667.539755,394.507796 C667.78004,394.507796 668.080395,393.789329 668.200538,393.370223 C668.621036,391.633928 669.161676,389.897633 669.34189,388.161339 C669.462032,387.083638 669.221747,385.946066 668.86132,384.928238 C668.440822,383.670921 668.260609,382.593221 668.921391,381.335904 C669.582174,379.958842 668.801249,379.120631 667.239399,379.300248 C666.75883,379.36012 666.21819,379.419992 665.437265,379.479865 C668.560965,377.324464 668.560965,377.324464 668.681107,376.127019 C666.818901,376.366508 665.557407,375.468425 664.596269,373.851875 C665.136909,373.492641 665.557407,373.19328 666.158119,372.834047 C665.797692,372.11558 665.437265,371.337241 664.956696,370.319413 C664.1157,370.858263 663.214632,371.217496 662.613921,371.876091 C659.550292,375.169064 656.606806,378.581781 653.603249,381.874754 C653.483107,381.994498 653.362964,382.174115 653.182751,382.473476 C653.423035,382.83271 653.66332,383.251815 653.903605,383.670921 C653.843533,383.790666 653.843533,383.91041 653.783462,384.030154 C651.380616,387.502744 649.037842,391.035206 646.574925,394.447923 C645.673857,395.70524 644.532506,396.842813 643.391154,397.980385 C641.709162,399.71668 640.327525,401.632592 639.306316,403.787992 C638.46532,405.524287 637.984751,407.380326 638.345177,409.35611 C638.585462,410.493682 638.405249,411.51151 637.744466,412.529338 C637.323968,413.128061 637.323968,414.026144 637.323968,414.744611 C637.323968,416.421034 636.963541,417.977712 636.302758,420.013368 C635.822189,419.055412 635.461762,418.516562 635.34162,417.917839 C635.161407,416.900011 635.041264,415.822311 634.981193,414.804483 C634.921122,413.9064 634.620766,413.307677 633.419343,413.128061 C633.118988,414.026144 632.758561,414.924228 632.458205,415.822311 C631.67728,418.097456 630.896355,420.432473 630.055359,422.707618 C629.454648,424.384041 629.274434,424.503785 627.4723,424.324169 C626.751446,424.264296 626.030592,424.08468 625.129525,423.905063 C624.048244,425.880847 622.906893,427.85663 621.645398,430.071903 C621.104758,428.754714 620.68426,427.796758 620.323833,426.838802 C620.083549,426.180208 619.663051,425.940719 618.942197,425.940719 C618.161272,425.940719 617.920987,426.359825 617.740774,427.018419 C617.200134,428.874458 616.539351,430.79037 615.818497,433.065515 C615.277857,431.808198 614.91743,430.910114 614.496932,429.892286 C611.012805,433.484621 607.708892,436.897338 604.46505,440.369928 C599.599287,445.459068 594.733524,450.548207 589.867761,455.69722 C587.224631,458.511215 584.641572,461.444954 582.058512,464.318822 C581.818228,464.55831 581.638014,464.797799 581.337659,464.977416 C580.316449,465.576138 579.895951,466.474222 579.775809,467.551922 C579.595595,469.288217 578.81467,470.605406 577.493105,471.802851 C575.6309,473.539146 575.450686,475.035952 576.652109,477.251224 C577.372963,478.628286 577.312892,479.346752 576.291682,480.604069 C576.231611,480.723814 576.051398,480.783686 576.051398,480.903431 C575.270473,482.699598 574.008979,482.879214 572.206844,482.340364 C571.245706,482.041003 569.924141,482.460109 569.023073,482.939087 C566.800441,484.076659 564.577808,484.076659 562.295105,483.477937 C561.454109,483.29832 560.613113,483.178576 559.772117,482.998959 C557.789769,482.519981 555.927563,482.699598 554.245571,483.777298 C550.821516,485.932698 547.517603,483.897042 545.83561,480.544197 C545.595326,480.065219 545.775539,479.227008 545.955753,478.628286 C546.496393,477.071608 546.676606,475.574802 546.196037,474.018124 C545.83561,472.940423 545.895682,471.862723 547.157176,471.144256 C548.298527,470.485662 548.298527,469.288217 548.118314,468.150645 C547.998172,467.252561 546.196037,466.354478 545.29497,466.653839 C544.814401,466.833455 544.393903,467.072944 543.73312,467.432178 C542.591768,464.618183 540.849705,462.103549 540.429207,459.109937 C540.128851,456.894664 539.648282,454.799136 537.365579,453.721436 C537.906219,453.122714 538.326717,452.643736 538.867357,451.985141 C538.146504,451.68578 537.605863,451.506163 536.704796,451.14693 C537.96629,451.027185 538.747215,450.967313 539.708353,450.847569 C538.927428,450.188974 538.326717,449.590252 537.605863,448.991529 C538.567002,447.67434 539.407998,446.536768 540.309065,445.219579 C540.248994,444.261623 538.206575,444.501112 538.747215,442.944434 C540.309065,442.884561 541.930986,442.764817 543.793191,442.704945 C543.012266,440.908778 542.411555,439.471844 541.690701,437.915166 C542.711911,437.316444 543.673049,436.717721 544.814401,436.059127 C542.832053,434.861682 540.849705,434.322832 538.567002,433.963598 C538.867357,433.185259 539.107642,432.526665 539.347926,431.86807 C540.248994,431.748326 541.029919,431.688453 541.930986,431.568709 C542.111199,429.772542 543.252551,428.874458 544.814401,428.215864 C545.29497,428.036247 545.655397,427.617142 546.135966,427.31778 C546.736678,426.958547 546.85682,426.479569 546.676606,425.820974 C546.496393,425.341997 546.436322,424.803146 546.31618,424.264296 C546.135966,423.066852 546.556464,422.168768 547.697816,421.749662 C549.259666,421.15094 550.761444,420.492346 552.323294,420.013368 C553.284433,419.714006 554.425784,419.654134 555.446994,419.773879 C557.008844,419.953495 558.570694,420.252857 560.132543,420.731834 C561.394038,421.091068 562.174962,420.791707 563.07603,419.833751 C567.100797,415.403206 571.305777,411.032532 575.330544,406.601987 C579.054955,402.530675 582.719295,398.339619 586.443706,394.208434 C587.344773,393.190606 588.24584,392.112906 588.24584,390.556228 C588.24584,390.07725 588.666339,389.658145 588.966694,389.179167 C588.546196,388.4607 587.765271,387.682361 587.765271,386.84415 C587.765271,386.185555 588.666339,385.586833 589.26705,384.748621 C589.026765,384.389388 588.666339,383.850538 588.185769,383.191943 C588.486125,382.772838 588.72641,382.353732 589.086837,381.814882 C587.404844,380.43782 588.305912,378.881142 588.786481,377.264592 C589.447263,377.144847 590.047975,377.084975 590.949042,376.965231 C591.309469,376.007275 591.729967,374.929575 592.210536,373.612386 C589.146908,374.031491 586.62392,375.707914 583.320006,374.929575 C585.122141,374.330852 586.563848,373.792002 588.065627,373.313024 C588.005556,373.073535 587.945485,372.893919 587.885414,372.714302 C587.825342,372.534685 587.7052,372.355069 587.524987,371.935963 C586.864204,372.11558 586.083279,372.295196 585.362425,372.474813 C577.853532,374.630214 570.224496,376.186892 562.475318,377.20472 C561.994749,377.264592 561.273895,377.264592 561.033611,377.025103 C560.192615,376.007275 559.171405,376.186892 558.090124,376.306636 C556.648417,376.426381 555.206709,376.605997 553.765002,376.66587 C552.443437,376.785614 551.181943,376.965231 549.800306,376.127019 C548.719025,375.468425 547.097104,375.707914 545.715468,375.468425 C542.111199,374.869703 538.567002,374.330852 534.962733,373.552513 C530.517468,372.65443 526.492701,370.678646 522.76829,367.984396 C521.927294,367.385673 521.086298,366.667206 520.18523,366.128356 C518.202883,365.050656 517.241744,363.434106 517.121602,361.218833 C517.061531,360.380622 516.701104,359.54241 517.602171,358.883816 C517.842456,358.704199 517.842456,358.045605 517.782385,357.626499 C517.722313,356.967904 517.482029,356.369182 517.301815,355.590843 C518.503238,354.992121 519.704661,354.45327 520.906084,353.854548 C519.884875,351.818892 521.566867,350.860936 522.407863,349.663492 C522.648147,349.663492 522.76829,349.603619 522.888432,349.603619 C529.916756,351.579403 536.644725,350.202342 543.312622,348.046941 C552.924006,344.993457 562.114891,340.922145 571.065492,336.371855 C580.496662,331.582077 589.80769,326.612681 599.23886,321.76303 C600.079857,321.343924 600.860781,320.984691 601.221208,319.966863 C601.341351,319.547757 601.942062,319.248396 602.36256,318.949035 C603.92441,318.050952 605.426189,317.152868 607.04811,316.314657 C607.949177,315.835679 608.489817,315.296829 608.730102,314.279001 C609.931525,309.189861 611.373232,304.220465 612.394442,299.131325 C612.935082,296.437075 612.935082,293.682952 613.175367,290.569596 C612.214228,290.988701 611.613517,291.168318 611.072877,291.467679 C608.670031,292.605252 606.267185,293.682952 603.92441,294.880397 C601.641706,296.017969 599.359003,296.616691 596.836015,295.958097 C595.934947,295.718608 595.03388,295.658736 593.892528,295.479119 C595.093951,294.521163 596.355445,294.461291 597.556868,294.16193 C598.938505,293.862569 599.959714,293.144102 600.680568,291.946657 C600.560426,291.826913 600.440283,291.707168 600.380212,291.707168 C598.638149,292.425635 597.016228,292.305891 595.214094,291.647296 C594.373098,291.347935 593.171675,291.527552 592.330679,291.946657 C589.026765,293.443463 585.542639,292.665124 582.118583,292.665124 C582.058512,292.665124 581.93837,292.665124 581.93837,292.665124 C580.91716,291.168318 579.235168,291.467679 577.73339,291.168318 C576.231611,290.868957 574.729832,290.629468 573.228054,290.330107 C572.807556,290.270235 572.326986,290.090618 571.846417,289.970873 C571.726275,289.312279 571.666204,288.713556 571.48599,287.815473 C569.864069,287.516112 568.182077,287.276623 566.500085,286.857517 C564.397595,286.378539 562.174962,286.019306 560.192615,285.181095 C555.446994,283.085566 550.641302,281.289399 545.715468,279.792593 C542.771982,278.89451 540.06878,277.577321 537.545792,275.781154 C535.683586,274.463965 533.881452,273.206648 531.899104,272.128947 C529.916756,271.051247 528.775405,269.434697 527.814266,267.458913 C528.475049,266.081852 529.436187,265.602874 530.998037,265.662746 C537.42565,265.962107 543.853263,266.021979 550.220804,266.381213 C558.330409,266.860191 565.599018,264.405429 572.326986,260.094628 C579.83588,255.304849 586.62392,249.616987 593.47203,244.048869 C599.839572,238.839985 606.147042,233.690973 612.574655,228.601833 C615.277857,226.446432 618.101201,224.590393 621.585327,223.752182 C622.606537,223.512693 623.507604,222.674481 624.408671,222.075759 C627.111873,220.279592 628.853936,217.705086 630.595999,215.010835 C631.67728,213.394285 633.118988,211.957351 634.440553,210.520418 C635.461762,209.382845 636.36283,208.1854 636.90347,206.748467 C637.083683,206.149744 637.504181,205.551022 638.044822,205.191789 C639.306316,204.353577 640.627881,203.575238 641.949446,202.796899 C643.271012,202.01856 644.652648,201.838944 646.154427,202.258049 C648.016632,202.737027 649.758695,203.455494 651.320545,204.652939 C651.861186,205.072044 652.521968,205.49115 653.362964,206.03 C654.20396,204.832555 654.924814,203.694983 655.76581,202.437666 C656.426593,202.317921 657.267589,202.198177 657.8683,202.078433 C658.88951,203.096261 659.790577,204.054216 660.811787,205.072044 C661.232285,204.473322 661.472569,204.114088 661.712854,203.814727 C662.55385,203.934472 663.334775,204.114088 664.175771,204.173961 C666.939044,204.533194 669.702316,204.832555 672.405518,205.251661 C674.207652,205.551022 675.709431,206.508978 676.910854,207.886039 C677.451494,208.484762 677.992135,209.083484 678.532775,209.682206 C679.013344,209.50259 679.493913,209.382845 680.034554,209.203228 C680.815479,210.400673 681.776617,211.238884 683.278396,210.939523 C683.758965,209.921695 684.179463,208.903867 684.660032,207.706423 C687.963945,208.604506 691.147716,210.700034 694.151273,207.826167 C696.133621,209.50259 697.995827,211.059268 700.038246,212.73569 C699.617748,215.010835 699.73789,217.525469 698.115969,219.68087 C697.815613,220.040103 697.695471,220.519081 697.455187,220.938187 C697.034688,221.716526 697.09476,222.494865 697.695471,223.093587 C698.836823,224.231159 699.377463,225.548349 699.437534,227.344516 C699.077107,227.643877 698.656609,228.062982 698.17604,228.362344 C697.034688,229.260427 695.893337,230.038766 695.292625,231.535572 C694.992269,232.373783 694.031131,233.032378 693.250206,233.6311 C691.808499,234.828545 691.027574,236.205606 690.907431,238.18139 C690.787289,240.276918 689.465724,241.893469 687.663589,243.031041 C680.695336,247.461587 673.727083,251.952004 666.818901,256.442422 C664.355984,258.058972 661.953138,259.855139 659.610364,261.711179 C658.88951,262.309901 658.34887,263.148112 657.628016,264.046196 C657.387731,264.106068 656.967233,264.046196 656.546735,264.225812 C656.006095,264.465301 655.525526,264.824535 655.044956,265.183768 C649.45834,269.075463 649.398269,269.015591 648.256917,275.721281 C647.776348,278.535277 647.415921,281.349272 646.935352,284.103394 C646.755138,285.240967 646.87528,286.198923 647.656205,287.037134 C648.076703,287.516112 648.497201,288.054962 648.797557,288.653684 C651.500759,293.144102 655.76581,295.000141 660.751715,295.77848 C662.313565,296.017969 663.815344,296.496947 665.377194,296.796308 C666.21819,296.916053 666.398403,297.514775 666.638688,298.113497 C667.059186,299.071453 667.359542,300.029409 668.741178,300.089281 C669.221747,300.089281 669.582174,301.166981 670.182886,301.526215 C671.023882,302.124937 670.062743,302.723659 670.363099,303.382254 C671.684664,304.280338 673.066301,304.459954 674.508008,303.382254 C675.769502,302.424298 677.21121,301.705831 678.532775,300.807748 C679.734198,300.029409 680.87555,299.78992 682.257186,300.448515 C683.398538,300.987365 684.599961,301.286726 685.741313,301.705831 C685.801384,301.94532 685.861455,302.124937 685.921526,302.304554 C686.582309,304.280338 686.221882,305.95676 684.900317,307.633183 C684.119392,308.591138 683.758965,309.848455 683.158253,311.0459 C681.95683,310.50705 681.896759,309.309605 681.536332,308.411522 C681.175906,307.57331 680.575194,306.675227 681.41619,305.657399 C681.95683,304.998804 681.776617,304.280338 681.055763,303.741487 C680.515123,303.382254 680.034554,302.963148 679.3137,302.424298 C677.691779,304.998804 676.069858,307.393694 672.886087,308.291777 C674.147581,309.42935 675.168791,310.267561 676.550427,310.50705 C677.451494,310.686667 678.172348,311.105772 678.112277,312.183473 C678.052206,313.560534 678.833131,314.338873 679.974483,314.937595 C681.175906,315.536318 682.377329,316.254785 683.458609,316.853507 C682.617613,318.589802 681.836688,320.266224 680.995692,321.942647 C680.394981,321.76303 679.85434,321.643286 679.193558,321.463669 C676.730641,323.798686 674.267724,326.073831 671.864878,328.408848 C671.144024,329.127315 670.483241,329.78591 669.281818,329.426676 C668.921391,329.306932 668.380751,329.546421 668.020324,329.78591 C662.373636,333.917094 656.726949,338.048278 651.080261,342.179462 C650.960118,342.239334 650.960118,342.418951 650.839976,342.65844 C651.260474,343.19729 651.680972,343.73614 652.10147,344.27499 C652.642111,344.993457 653.302893,345.113202 654.143889,345.113202 C657.928372,344.933585 661.592711,344.095374 665.136909,342.838057 C670.723526,340.862273 676.370214,338.886489 681.95683,336.910706 C682.97804,336.551472 683.458609,335.833005 683.939178,334.934922 C687.723661,327.750254 688.804941,319.787246 690.30672,311.943984 C692.289068,301.40647 694.031131,290.809085 695.833266,280.211699 C696.133621,278.595149 696.193692,276.918726 696.433977,275.302176 C696.914546,272.128947 695.953408,269.195208 695.232554,266.081852 C691.327929,265.123896 687.243091,265.842363 683.458609,264.16594 C685.200672,263.686962 686.882665,263.267857 688.74487,262.788879 C688.564657,262.54939 688.444514,262.369773 688.324372,262.250029 C688.20423,262.130284 688.024016,262.01054 687.843803,261.890795 C689.645937,259.436034 691.928641,258.238589 694.151273,258.717567 C694.992269,257.340505 695.953408,256.023316 697.6354,255.424594 C698.776752,255.005488 699.918104,254.765999 701.119527,255.185105 C703.40223,255.903572 705.745005,256.202933 708.147851,255.723955 C708.988847,255.544338 709.589558,255.903572 710.250341,256.442422 C711.571906,257.520122 713.013614,258.418206 714.515392,259.555778 C715.116104,258.837311 715.596673,258.298461 716.017171,257.759611 C720.041938,252.550727 724.186847,247.341842 728.151543,242.132958 C731.1551,238.18139 734.338871,234.349567 738.003211,231.056594 C739.084492,230.098638 739.50499,228.961066 739.685203,227.643877 C740.285915,223.871926 740.946697,220.099975 741.667551,216.328024 C742.027978,214.412113 743.950255,213.633774 745.692318,214.59173 C746.653456,215.070707 747.674666,215.370069 748.755946,215.609558 C750.137583,216.447769 750.017441,217.82483 749.4768,219.321636 C750.858437,219.321636 752.05986,219.321636 753.381425,219.321636 C753.621709,218.663042 753.922065,218.004447 754.222421,217.106363 C754.70299,217.705086 755.123488,218.243936 755.543986,218.722914 C756.925622,217.82483 758.247188,216.926747 759.748966,215.968791 C760.169464,216.926747 760.529891,217.645214 760.950389,218.603169 C762.452168,218.483425 764.014018,218.423553 765.575868,218.303808 C766.657148,218.184064 767.618287,218.36368 768.639496,218.902531 C770.141275,219.740742 771.703125,220.399336 773.264975,221.117803 C774.045899,221.477037 774.406326,221.956015 774.646611,222.854098 C775.067109,224.650265 775.66782,226.38656 775.427536,228.242599 C775.12718,230.398 774.526469,232.373783 772.904548,233.930461 C771.582982,235.247651 770.9222,236.804329 770.681915,238.660368 C770.381559,241.055257 769.961061,243.510019 769.480492,245.845036 C769.300279,246.74312 768.81971,247.581331 768.33914,248.778776 C769.059994,249.676859 768.33914,250.874304 767.918642,252.131621 C767.438073,253.388938 766.657148,254.706127 767.7985,256.023316 C767.7985,258.418206 767.7985,260.753223 767.738429,263.148112 C767.738429,263.447473 767.558216,263.806707 767.317931,264.046196 C766.597077,264.824535 766.23665,265.602874 766.23665,266.680574 C766.23665,267.039807 765.816152,267.458913 765.575868,267.818146 C765.936295,268.17738 766.296721,268.416869 766.717219,268.776102 C766.23665,269.374825 765.756081,269.913675 765.275512,270.452525 C766.837362,271.590097 766.717219,272.967159 765.15537,274.823198 C765.936295,277.876682 765.335583,280.810421 764.314374,283.684289 C764.014018,284.582372 763.59352,285.360711 763.773733,286.318667 C764.074089,287.635856 763.833804,288.773429 762.332026,289.551768 C762.872666,289.970873 763.353235,290.330107 764.014018,290.868957 C763.353235,291.288063 762.692453,291.707168 762.03167,292.126274 C762.692453,293.982313 763.233093,295.419247 763.833804,297.035797 C764.434516,296.616691 764.794943,296.31733 765.335583,295.958097 C765.455725,296.916053 765.035227,297.694392 764.6748,298.352986 C764.314374,299.011581 763.59352,299.490559 762.872666,300.268898 C763.05288,300.807748 763.413306,301.586087 763.713662,302.424298 C762.692453,303.681615 761.310816,304.819188 762.271955,306.854844 C767.918642,305.657399 773.56533,304.459954 779.392232,303.26251 C779.692587,300.628131 779.932872,298.233242 780.173157,295.838352 C781.975291,278.35566 783.597212,260.813095 785.57956,243.330402 C786.300414,236.684584 787.081338,230.098638 787.441765,223.45282 C787.501837,222.195503 787.201481,221.29742 786.1202,220.638825 C785.57956,220.279592 785.038919,219.860486 784.55835,219.381508 C783.657283,218.483425 782.696145,217.944575 781.374579,218.902531 C780.413441,217.226108 779.872801,215.549685 780.053014,213.813391 C780.89401,212.915307 782.45586,213.633774 782.936429,212.256712 C783.356927,211.238884 783.837497,210.221056 784.378137,209.143356 C785.339275,209.322973 786.180271,209.50259 786.961196,209.742079 C787.862263,209.981568 788.462975,209.801951 789.003615,209.083484 C790.265109,207.526806 791.88703,206.389233 793.98952,205.670767 C796.752793,209.322973 800.77756,211.837607 803.240477,215.849047 C803.721046,216.627386 804.562042,217.345852 805.403038,217.764958 C806.964888,218.663042 808.10624,219.800614 809.067378,221.237548 C810.388944,223.153459 811.77058,224.949626 813.272359,227.045154 C819.940256,221.596781 827.389078,217.645214 834.537545,212.915307 C834.29726,211.598118 833.996905,210.280929 833.75662,209.023612 C833.336122,206.449106 833.816691,204.114088 836.159466,202.617283 C837.661245,201.659327 838.382098,200.521754 838.141814,198.725587 C838.081743,198.186737 838.201885,197.647887 838.141814,197.168909 C837.841458,195.193125 838.562312,193.69632 840.184233,192.618619 C841.806154,191.540919 843.488146,190.463219 845.230209,189.505263 C846.912201,188.60718 848.654265,188.667052 850.336257,189.625008 C851.117182,190.044113 852.07832,190.283602 852.919316,190.523091 C854.120739,190.822452 855.141949,190.582963 855.682589,189.325646 C856.163158,188.188074 857.124296,187.948585 858.265648,188.008457 C859.166715,188.06833 859.767427,188.307818 860.187925,189.086158 C860.608423,189.864497 861.149063,190.642836 861.689704,191.421175 C862.5307,191.181686 863.191482,190.942197 863.972407,190.702708 C864.092549,190.942197 864.152621,191.30143 864.272763,191.361302 C866.435324,192.139642 867.096107,194.175298 868.237459,195.791848 C868.898241,196.809676 869.679166,197.408398 870.880589,197.588015 C873.824075,198.066993 876.647419,198.965076 879.230479,200.581627 C879.650977,200.880988 880.191617,201.120477 880.431902,201.539582 C881.993751,204.832555 883.435459,208.125528 884.937238,211.418501 C881.813538,213.633774 880.672186,217.106363 878.990194,220.159847 C878.689838,220.698698 878.809981,221.417164 878.809981,222.075759 C878.809981,222.734354 878.870052,223.392948 878.930123,223.99167 C877.968985,224.590393 877.248131,224.650265 876.70749,223.632437 C876.407135,222.973843 875.986637,222.37512 875.506067,221.656653 C874.184502,222.494865 872.622652,222.794226 872.682724,224.710137 C872.682724,224.829882 872.622652,225.009498 872.50251,225.069371 C870.94066,225.608221 871.180945,227.224771 870.520162,228.302471 C870.159735,228.242599 869.85938,228.242599 869.559024,228.182727 C869.498953,228.302471 869.37881,228.422216 869.37881,228.54196 C869.198597,229.559788 869.258668,230.697361 868.778099,231.595444 C866.074897,237.043818 865.233901,242.911297 864.813403,248.838648 C864.272763,257.101016 863.912336,265.423257 863.431767,273.745498 C863.311625,276.559493 863.191482,279.43336 863.07134,282.247355 C863.07134,282.90595 863.07134,283.564544 863.07134,284.402756 C864.392905,284.283011 865.594328,284.103394 867.096107,283.98365 C867.336391,280.091955 867.576676,276.200259 867.816961,272.248692 C867.937103,272.248692 867.997174,272.248692 868.117316,272.248692 C868.357601,275.182431 868.537814,278.116171 868.778099,281.349272 C869.37881,280.870294 869.799308,280.570933 870.159735,280.331444 C870.640305,280.032082 871.180945,279.612977 871.661514,279.553105 C873.52372,279.313616 874.785214,278.475404 874.845285,276.439748 C874.845285,276.260132 874.965427,276.080515 875.145641,275.661409 C876.286992,276.439748 877.428344,277.158215 878.629767,277.936554 C877.848842,278.954382 877.18806,279.852466 876.527277,280.750549 C877.007846,281.469016 877.7287,281.229527 878.329411,281.289399 C879.170407,281.409144 880.011404,281.528888 880.912471,281.528888 C882.654534,281.528888 884.396597,281.588761 885.477878,283.564544 C885.838305,283.085566 886.078589,282.786205 886.378945,282.426972 C886.679301,282.546716 887.039728,282.606588 887.340084,282.786205 C888.962005,283.624416 890.583925,284.582372 892.566273,284.043522 C892.9267,283.923778 893.347198,284.163267 893.767696,284.163267 C895.389617,284.163267 897.071609,284.283011 898.69353,284.103394 C900.315451,283.98365 901.877301,283.744161 903.37908,284.462628 C907.103491,286.198923 910.407404,288.593812 913.951602,290.749212 C913.711317,291.467679 913.591175,292.006529 913.35089,292.724996 C914.071744,293.203974 914.732527,293.742824 915.513452,294.102058 C918.156582,295.299502 920.13893,297.335158 922.301491,299.191198 C923.26263,300.029409 923.202559,301.825576 922.301491,302.663787 C922.181349,302.783532 922.001136,302.963148 921.820922,303.023021 C919.59829,304.280338 918.276724,306.136377 918.03644,308.651011 C917.916298,309.788583 917.195444,310.327433 916.174234,310.686667 C914.792598,311.225517 913.651246,311.943984 912.630037,313.081556 C911.2484,314.578362 909.446266,315.59619 907.343776,316.075168 C903.138795,317.033124 898.933815,317.033124 894.728835,316.254785 C889.803001,315.356701 884.937238,314.997468 879.951332,315.476445 C877.007846,315.775807 874.004289,315.656062 871.000731,315.775807 C870.279878,315.775807 869.559024,315.775807 868.597886,315.775807 C868.177388,318.709546 867.636747,321.403797 867.516605,324.15792 C867.096107,334.635561 866.795751,345.113202 866.495395,355.590843 C866.375253,360.201005 866.315182,364.811167 866.375253,369.421329 C866.495395,377.74357 866.855822,386.005938 866.915893,394.328179 C866.975965,404.027481 866.73568,413.726783 866.675609,423.426085 C866.675609,429.113947 866.795751,434.741937 866.975965,440.4298 C867.096107,443.603028 867.636747,446.716384 869.559024,449.410635 C870.580233,450.847569 870.820518,452.464119 870.279878,454.320158 C869.979522,455.337986 870.099664,456.595303 870.40002,457.613131 C871.180945,460.187637 871.180945,462.582527 869.799308,465.037288 C868.83817,466.713711 868.83817,468.749367 869.138526,470.665278 C869.559024,473.419401 870.219807,476.113652 870.460091,478.867775 C870.820518,482.879214 870.820518,486.890654 871.000731,490.902094 C871.120874,493.895706 871.301087,496.94919 871.481301,499.942801 C871.601443,501.439607 871.661514,501.559352 870.700376,503.175902 C869.799308,502.696924 868.83817,502.217946 867.877032,501.738968 C866.615538,502.397563 865.654399,503.295646 864.993617,504.612836 C864.152621,506.169514 863.011269,507.546575 862.05013,509.043381 C861.209134,510.36057 860.488281,511.737632 859.707356,513.174565 C860.247996,513.653543 860.548352,513.952904 860.96885,514.312138 C860.488281,514.551627 860.127854,514.791116 859.767427,515.030605 C859.647285,514.850988 859.527142,514.791116 859.467071,514.671371 C858.686146,512.396226 857.004154,511.677759 854.901664,512.635715 C854.72145,512.695587 854.541237,512.815332 854.361024,512.875204 C852.679031,513.533799 850.997039,514.431882 850.095972,516.647155 Z M776.32027,331.820411 C777.638454,330.956006 777.698371,329.688211 777.878124,328.132282 C772.425636,327.38313 768.231415,329.976346 764.097111,331.878038 C764.636368,333.030579 765.115707,333.952611 765.595047,334.989898 C766.613643,334.701763 767.752075,334.356 768.830589,334.010238 C771.347122,333.261087 773.863655,332.511936 776.32027,331.820411 C776.0806,331.935665 775.84093,332.166173 775.541343,332.2238 C772.006214,333.376341 768.531002,334.644136 765.115707,336.142438 C763.977276,336.661081 763.557854,337.698368 762.659092,338.389892 C762,338.850908 762.659092,340.406838 763.677689,341.386498 C762.958679,343.230562 763.018597,345.189881 763.258266,347.1492 C763.617771,349.915298 763.497936,352.681395 762.659092,355.447492 C762.359505,356.484779 762.23967,357.579692 762.179752,358.616979 C762.059917,364.264427 762.059917,369.911876 762,375.559324 C762,376.020341 762.179752,376.42373 762.299587,377 C764.037193,375.616951 764.396698,375.098308 764.636368,373.427124 C765.115707,370.257638 765.595047,367.030524 766.014469,363.861038 C766.074386,365.013578 766.074386,366.108492 766.074386,367.261033 C766.134304,368.413573 765.714882,369.623741 766.373974,370.776281 C766.733478,370.6034 766.913231,370.545773 767.033066,370.430519 C768.411167,368.874589 769.909103,367.491541 771.646709,366.339 C772.126049,366.050865 772.365718,365.301714 772.545471,364.725443 C773.084728,362.939006 773.564067,361.210195 774.043407,359.423757 C774.522746,357.752573 775.121921,356.139016 775.361591,354.467833 C776.260352,347.437335 777.099197,340.349211 777.938041,333.318714 C778.117793,331.820411 777.997958,331.820411 776.32027,331.820411 Z M803,296 C803.66494,295.941073 804.027634,295.941073 804.329879,295.882146 C812.490501,294.467898 820.711572,292.994723 828.872193,291.580475 C830.141623,291.344767 830.202073,290.637643 830.322971,289.635884 C830.806563,284.096746 831.290155,278.498681 831.834197,272.959543 C833.224525,259.05277 835.219344,245.263852 837.697755,231.533861 C837.818653,230.826737 837.879102,230.060686 838,229 C836.06563,229.883905 834.675302,230.76781 833.345423,231.887423 C826.816926,237.603342 820.288428,243.319261 813.82038,249.153034 C813.094991,249.801231 812.732297,250.744063 812.188256,251.510114 C811.825561,252.099384 811.583765,252.924362 811.039724,253.218997 C809.34715,254.279683 808.74266,255.811785 808.500864,257.579595 C808.319516,258.817062 808.017271,259.995602 807.835924,261.233069 C807.170984,265.829376 806.566494,270.484609 805.841105,275.080915 C804.994819,280.737907 804.027634,286.335972 803.120898,291.992964 C803.060449,293.348285 803.060449,294.585752 803,296 Z M717.088274,324 C724.666231,321.277693 731.877514,318.732929 739.211021,316.128983 C740.494385,292.752656 741.716636,269.61305 743,246 C742.327762,246.769347 741.838861,247.242792 741.472186,247.716237 C737.805432,252.509863 734.016453,257.30349 730.471925,262.215478 C727.355184,266.594841 724.421781,271.151745 721.549491,275.649469 C720.021677,278.016692 719.288326,280.620637 719.288326,283.461305 C719.288326,284.585736 719.166101,285.710167 718.860538,286.775417 C718.554975,287.959029 717.516062,289.08346 718.493863,290.444613 C718.554975,290.562974 718.310525,290.918058 718.249412,291.15478 C718.004962,292.22003 717.577174,293.285281 717.516062,294.350531 C717.271611,298.848255 717.210499,303.345979 717.027161,307.843703 C716.966049,309.086495 717.027161,310.329287 717.027161,311.572079 C717.332724,311.631259 717.638287,311.631259 718.127187,311.749621 C717.821624,315.655539 717.454949,319.620637 717.088274,324 Z M643.71997,357.197641 C643.509128,360.125661 643.298286,363.170801 643.034734,366.274502 C642.982024,367.328589 642.876603,368.265555 643.71997,369.143961 C643.983522,369.436763 644.036232,370.080927 644.036232,370.54941 C644.036232,371.193575 643.878101,371.837739 643.825391,372.481903 C643.71997,373.594551 644.088943,374.472956 645.090441,375 C648.411197,371.896299 651.679243,368.792599 655,365.630338 C652.944294,362.819439 651.362981,359.94998 648.305776,358.778772 C648.042224,358.661651 647.778672,358.48597 647.56783,358.310289 C646.513622,357.373322 645.143151,357.666124 644.036232,357.02196 C644.036232,356.9634 643.983522,357.02196 643.71997,357.197641 Z M718.784614,351 C724.498948,349.103448 730.081918,347.270115 735.664888,345.436782 C735.664888,343.54023 736.321708,341.833333 735.796252,340 C735.205114,340.126437 734.74534,340.189655 734.285566,340.316092 C732.315106,340.948276 730.344646,341.643678 728.374186,342.275862 C725.812588,343.16092 723.185308,343.982759 720.62371,344.931034 C718.32484,345.752874 717.536656,347.45977 718.259158,349.672414 C718.32484,350.051724 718.521886,350.367816 718.784614,351 Z" opacity=".098" transform="translate(-517 -188)"/>
</svg>
