<svg xmlns="http://www.w3.org/2000/svg" width="49" height="40" viewBox="0 0 49 40">
  <path fill="#FFF" d="M127.243158,97.5960428 C127.010917,97.5094805 126.822221,97.4661994 126.677071,97.7258862 C126.829479,97.7619538 126.967372,97.7908079 127.112523,97.8268755 C127.112523,97.848516 127.105265,97.8629431 127.105265,97.8845836 C126.989145,97.8845836 126.865767,97.8845836 126.749646,97.8917972 C126.619011,97.8990107 126.495633,97.9062242 126.364997,97.9134377 C126.321452,97.8413025 126.285165,97.7691673 126.227104,97.6753915 C126.089211,97.7835943 125.958576,97.8917972 125.820683,98 C125.71182,97.9495053 125.661017,97.8773701 125.690047,97.7547402 C125.719078,97.6465374 125.704562,97.5383346 125.65376,97.4373453 C125.523124,97.4661994 125.399746,97.502267 125.276368,97.516694 C125.232823,97.5239075 125.145733,97.4878399 125.138475,97.4589858 C125.102188,97.2930748 124.971552,97.3219289 124.848174,97.2858613 C124.811887,97.3724236 124.768342,97.4373453 124.739312,97.5094805 C124.703024,97.6248968 124.623191,97.682605 124.507071,97.6537509 C124.173224,97.5671887 123.875666,97.682605 123.578107,97.7980214 C123.527305,97.8196619 123.476502,97.834089 123.418442,97.848516 C123.237004,97.7186726 123.178943,97.516694 123.091853,97.336356 C123.062823,97.336356 123.04105,97.336356 123.033793,97.3435695 C122.714462,97.5527616 122.692689,97.5527616 122.518509,97.2209396 C122.387873,96.9684663 122.24998,96.715993 122.119345,96.4563062 C122.054027,96.3264628 121.966937,96.2471141 121.814529,96.21826 C121.705666,96.1966194 121.596803,96.1533383 121.437137,96.1028436 C121.625833,96.0451355 121.763726,95.9946408 121.901619,95.9513597 C121.901619,95.9369326 121.901619,95.9225056 121.901619,95.9080785 C121.836301,95.886438 121.770983,95.8575839 121.705666,95.8431568 C121.640348,95.8215163 121.567773,95.7998757 121.466167,95.7710216 C121.589545,95.6772458 121.763726,95.6772458 121.770983,95.4969078 C121.51697,95.3526373 121.233926,95.251648 120.936368,95.1939398 C120.682354,95.1434452 120.435599,95.1073776 120.181585,95.0496694 C120.05095,95.0208153 119.927572,94.9703206 119.811451,94.8909719 C120.02192,94.8981854 120.22513,94.9126125 120.435599,94.919826 C120.442856,94.9053989 120.450114,94.8909719 120.457371,94.8765449 C120.297706,94.768342 120.145298,94.6529257 119.985632,94.5447228 C120.000147,94.5014417 120.007405,94.4653741 120.014662,94.4293065 C120.065465,94.2922495 120.036435,94.1840467 119.920314,94.0974844 C119.891284,94.0758439 119.862254,94.0397763 119.833224,94.0109222 C119.731619,93.9243599 119.673558,93.8377976 119.775164,93.7079542 C119.571953,93.5276162 119.354227,93.4049863 119.100214,93.3472781 C118.926033,93.3112105 118.751853,93.2967835 118.606702,93.1452995 C118.512354,93.0443102 118.338174,93.0226696 118.200281,92.9649614 C117.931752,92.8423316 117.655966,92.7269152 117.394695,92.6042853 C117.256802,92.5393636 117.126167,92.4600149 117.002789,92.3806661 C116.901183,92.3157444 116.821351,92.2003281 116.668943,92.2508227 C116.639912,92.2580363 116.596367,92.2291822 116.56008,92.2147551 C116.356869,92.0849117 116.160916,91.9550683 115.97222,91.7963708 C116.291551,91.8973602 116.61814,91.9983495 116.937471,92.0993388 C117.278575,92.2075416 117.626936,92.3085309 117.96804,92.4095202 C118.069645,92.4383743 118.185766,92.4455878 118.309143,92.4239473 C118.280113,92.3950932 118.258341,92.3590256 118.222053,92.337385 C117.859177,92.1642605 117.503558,91.9911359 117.140682,91.8324384 C116.785063,91.6809545 116.414929,91.5511111 116.052053,91.4068406 C115.986735,91.3779865 115.935932,91.3202784 115.899645,91.2337161 C115.950448,91.2409296 116.00125,91.2481431 116.052053,91.2625702 C116.465732,91.3779865 116.879411,91.5006164 117.29309,91.6160328 C117.394695,91.6448869 117.496301,91.6809545 117.583391,91.5438976 C117.329377,91.4212677 117.060849,91.3491325 116.806836,91.2481431 C116.552822,91.1543674 116.306066,91.0605916 116.008508,90.9523887 C116.175431,90.8513994 116.291551,90.9235346 116.407672,90.9307482 C116.523792,90.9379617 116.639912,90.9523887 116.76329,90.9668158 C116.748775,90.8441859 116.654428,90.8441859 116.581852,90.8225453 C116.306066,90.7431966 116.023023,90.6782749 115.754494,90.5917126 C115.565799,90.5340044 115.369845,90.4618692 115.21018,90.3608799 C114.934394,90.1877554 114.644093,90.072339 114.332019,89.9857767 C114.099778,89.920855 113.874795,89.8415063 113.649812,89.7765846 C113.468374,89.7188764 113.286935,89.6683818 113.105497,89.5962465 C113.257905,89.6178871 113.403056,89.6395277 113.555464,89.6611682 C115.282755,89.9424956 117.010046,90.2310365 118.73008,90.5123639 C119.920314,90.707129 121.132321,90.7648372 122.33707,90.7864777 C122.707204,90.7936912 123.084596,90.7431966 123.469244,90.721556 C123.520047,90.3969475 123.57085,90.0867661 123.607137,89.7837981 C123.614395,89.7116629 123.585365,89.6323142 123.556335,89.5529654 C123.534562,89.4880437 123.491017,89.423122 123.454729,89.3654138 C123.353124,89.2139299 123.309579,89.0696594 123.48376,88.9109619 C123.353124,88.7234103 123.222489,88.5502858 123.070081,88.3410937 C123.171686,88.3483072 123.251519,88.3555207 123.324094,88.3627342 C123.534562,88.3843748 123.636168,88.3122396 123.621653,88.1030474 C123.534562,87.2085707 123.752288,86.3357345 123.817606,85.4484712 C123.882923,84.5539945 123.904696,83.6595177 123.803091,82.7578274 C123.701485,81.8489236 123.701485,80.9400198 123.846636,80.0239025 C123.926469,79.5405965 123.911954,79.0428634 123.970014,78.5523439 C124.064362,77.6434401 124.180482,76.7417498 124.282087,75.832846 C124.347405,75.2124831 124.398208,74.5849067 124.456268,73.9429032 C124.369178,73.9429032 124.318375,73.9356897 124.267572,73.9429032 C123.74503,74.0150384 123.222489,74.0943872 122.707204,74.1737359 C122.641886,74.1809494 122.569311,74.1809494 122.525766,74.217017 C122.33707,74.3468604 122.13386,74.3757145 121.916134,74.368501 C121.887104,74.368501 121.858074,74.3829281 121.843559,74.3901416 C121.705666,74.866234 121.727438,75.3423265 121.712923,75.818419 C121.712923,75.9194083 121.698408,76.0276111 121.691151,76.1286004 C121.691151,76.1790951 121.683893,76.2512303 121.712923,76.2872979 C121.807271,76.4027143 121.807271,76.5397712 121.807271,76.6696146 C121.843559,78.2277354 121.792756,79.7786427 121.683893,81.3367635 C121.618575,82.2889485 121.63309,83.2411334 121.60406,84.1933184 C121.60406,84.229386 121.611318,84.2726671 121.654863,84.3159482 C121.691151,84.1861048 121.749211,84.0562614 121.770983,83.926418 C121.850816,83.4142579 121.930649,82.9093114 122.003224,82.3971513 C122.27901,80.3340839 122.315298,78.263803 122.351585,76.1935221 C122.358843,75.9771165 122.351585,75.7679243 122.395131,75.5443051 C122.438676,76.1286004 122.511251,76.7056822 122.525766,77.2899775 C122.554796,78.2060949 122.533024,79.1149987 122.431418,80.0239025 C122.395131,80.3845786 122.322555,80.7452547 122.24998,81.1059308 C122.184662,81.4305393 122.13386,81.7479343 122.286268,82.0581158 C122.358843,82.2023862 122.329813,82.3538702 122.264495,82.4981406 C122.170147,82.7145463 122.13386,82.9381655 122.13386,83.1689982 C122.141117,83.7244394 122.155632,84.2798806 122.141117,84.8353218 C122.126602,85.224852 122.068542,85.6071687 122.024997,85.9966989 C122.003224,86.2058911 121.894361,86.3862291 121.734696,86.5521401 C121.596803,86.1842505 121.57503,85.8019338 121.451652,85.4628983 C121.321017,85.4484712 121.313759,85.5350335 121.284729,85.5927417 C121.183124,85.859642 121.081518,86.1265423 120.979913,86.3934426 C120.950883,86.4727914 120.907338,86.5593537 120.849278,86.6170618 C120.689612,86.7757593 120.558977,86.9488839 120.464629,87.158076 C120.428341,87.2446383 120.304963,87.2951329 120.1961,87.3816952 C120.1961,87.4177628 120.1961,87.4826845 120.1961,87.5764603 C120.130782,87.6125279 120.05095,87.6630226 119.978374,87.6990902 C119.840481,87.626955 119.840481,87.5043251 119.833224,87.3961222 C119.804194,87.0210191 119.782421,86.6531295 119.760649,86.2780263 C119.753391,86.2131046 119.746134,86.1481829 119.746134,86.0904747 C119.746134,85.9029231 119.673558,85.7658662 119.499378,85.6648769 C119.390515,85.5999552 119.31794,85.4773253 119.209077,85.361909 C119.143759,85.3546954 119.071184,85.4484712 118.962321,85.361909 C118.867973,85.2825602 118.628475,85.376336 118.570414,85.4917524 C118.483324,85.6648769 118.352689,85.6793039 118.178508,85.6360228 C118.156735,85.5566741 118.134963,85.4773253 118.11319,85.4124036 C117.902722,85.3474819 117.699511,85.2897737 117.503558,85.2320656 C117.750314,84.2005319 117.728541,83.2194928 117.191484,82.3033755 C117.169712,82.3033755 117.155197,82.3033755 117.133424,82.3033755 C117.133424,82.3755107 117.133424,82.4548595 117.133424,82.5269947 C117.155197,82.9886601 117.184227,83.4503256 117.111652,83.9047775 C117.082622,84.0851155 117.118909,84.2510265 117.206,84.3664429 C117.169712,84.4818592 117.126167,84.5684215 117.118909,84.6621973 C117.082622,85.1022222 117.068107,85.5494605 117.039076,85.9966989 C117.031819,86.0976882 117.046334,86.2131046 116.872153,86.2203181 C116.857638,85.9534178 116.777805,85.7153716 116.487504,85.5783146 C116.458474,85.6504499 116.414929,85.7225851 116.400414,85.7947203 C116.356869,86.011126 116.240749,86.191464 116.117371,86.3645886 C115.957705,86.6026348 115.812555,86.8478946 115.667404,87.0931543 C115.645631,87.1292219 115.623859,87.158076 115.602086,87.1869301 C115.282755,87.0787273 115.260983,87.0859408 115.173892,87.4177628 C115.115832,87.6485955 115.035999,87.8505742 114.803758,87.973204 C114.709411,87.8650012 114.673123,87.7351578 114.673123,87.5981009 C114.673123,87.4177628 114.687638,87.2302112 114.694896,87.0498732 C114.702153,86.840681 114.716668,86.6387024 114.716668,86.4295103 C114.716668,86.2635992 114.665865,86.1265423 114.549745,85.9966989 C114.411852,85.8524285 114.288474,85.7514392 114.078006,85.859642 C114.019946,85.8884961 113.940113,85.874069 113.867538,85.8812826 C113.809477,85.7875068 113.758675,85.693731 113.693357,85.5927417 C113.606267,85.6288093 113.519176,85.6648769 113.432086,85.708158 C113.170815,85.4484712 112.974862,85.1671439 112.996634,84.7704001 C113.018407,84.3231618 113.032922,83.8831369 113.032922,83.4358985 C113.032922,83.1834252 113.018407,82.930952 113.003892,82.6712652 C112.989377,82.3971513 112.916802,82.1374645 112.786166,81.8994183 C112.699076,81.7479343 112.677303,81.5964503 112.662788,81.4233258 C112.655531,81.2646283 112.590213,81.0987173 112.524895,80.9544469 C112.495865,80.8895251 112.387002,80.8606711 112.292654,80.8029629 C112.270882,80.6009843 112.3362,80.3917921 112.379745,80.1898135 C112.39426,80.1321053 112.466835,80.0888242 112.524895,80.045543 C112.684561,79.9229132 112.851484,79.8219239 113.003892,79.6920805 C113.061952,79.6415858 113.120012,79.5550235 113.134527,79.4828883 C113.228875,78.9274471 113.323223,78.3720059 113.395798,77.8093511 C113.424828,77.5352373 113.395798,77.2611234 113.388541,76.965369 C113.294193,76.9870096 113.228875,77.0014366 113.170815,77.0230772 C112.662788,77.2034153 112.147504,77.3981804 111.639477,77.5713049 C111.501584,77.6217996 111.429009,77.6939348 111.414494,77.8382052 C111.283858,79.2809097 110.891952,80.6586924 110.471015,82.0364752 C110.434728,82.1518915 110.405698,82.2673079 110.36941,82.3755107 C110.333122,82.4909271 110.362153,82.5774894 110.492788,82.6424111 C110.623423,82.447646 110.652454,82.2023862 110.790347,82.0076211 C110.725029,82.2240268 110.652454,82.4404324 110.594393,82.6568381 C110.536333,82.8732438 110.48553,83.0824359 110.42747,83.2988416 C110.39844,83.4214715 110.383925,83.5513149 110.333122,83.6667312 C110.144427,84.0995426 110.050079,84.561208 109.999276,85.0300869 C109.992019,85.1094357 109.970246,85.1815709 109.955731,85.2825602 C109.78155,85.1382898 109.745263,84.8497489 109.440447,84.8713894 C109.353356,85.1887844 109.411417,85.5350335 109.353356,85.8812826 C109.266266,85.9173502 109.179176,85.9534178 109.084828,85.9966989 C109.128373,86.1265423 109.164661,86.2563857 109.041283,86.3862291 C108.99048,86.3862291 108.925162,86.3934426 108.84533,86.4006562 C108.830815,86.4655779 108.816299,86.5232861 108.809042,86.5882078 C108.801784,86.6964106 108.750982,86.7541188 108.649376,86.7973999 C108.467938,86.8623216 108.293758,86.9416703 108.119577,87.0210191 C107.981684,87.0859408 107.843791,87.1003678 107.69864,87.0426597 C107.480915,86.9633109 107.255931,86.8983892 107.045463,86.8190405 C106.769677,86.7180512 106.559209,86.5449266 106.443088,86.2708128 C106.421316,86.2203181 106.370513,86.1842505 106.326968,86.1553964 C106.123757,86.0183395 106.029409,85.8235744 106.007637,85.5927417 C105.993122,85.4628983 105.949577,85.3979766 105.826199,85.3474819 C105.753624,85.3186278 105.695563,85.2392791 105.652018,85.1671439 C105.448807,84.7992542 105.129476,84.5251404 104.839175,84.2365995 C104.79563,84.1861048 104.715797,84.1716778 104.643222,84.1428237 C104.672252,84.0851155 104.694025,84.0346209 104.730312,83.9552721 C104.65048,83.9408451 104.585162,83.926418 104.512587,83.911991 C104.498072,83.8614963 104.483556,83.8110017 104.476299,83.7677205 C104.440011,83.5296743 104.440011,83.5224608 104.65048,83.4142579 C104.773858,83.3493362 104.860948,83.2483469 104.933523,83.1329306 C104.991583,83.0319413 105.027871,82.8948843 105.187536,82.8804573 C105.216567,82.8804573 105.252854,82.793895 105.267369,82.7434004 C105.318172,82.5342082 105.38349,82.3250161 105.405262,82.1158239 C105.419777,81.9859805 105.390747,81.8489236 105.347202,81.7262937 C105.296399,81.5748098 105.274627,81.4449664 105.35446,81.2934824 C105.434292,81.1275714 105.339945,81.0265821 105.151249,81.0482226 C105.093189,81.0554362 105.027871,81.0626497 104.933523,81.0698632 C105.310914,80.8101764 105.310914,80.8101764 105.325429,80.665906 C105.100446,80.69476 104.948038,80.5865572 104.831918,80.3917921 C104.897235,80.348511 104.948038,80.3124434 105.020613,80.2691622 C104.977068,80.1826 104.933523,80.0888242 104.875463,79.9661943 C104.773858,80.031116 104.664995,80.0743971 104.592419,80.1537459 C104.222286,80.5504896 103.866667,80.9616604 103.50379,81.3584041 C103.489275,81.3728311 103.47476,81.3944717 103.452988,81.4305393 C103.482018,81.4738205 103.511048,81.5243151 103.540078,81.5748098 C103.532821,81.5892368 103.532821,81.6036639 103.525563,81.6180909 C103.235262,82.0364752 102.952218,82.462073 102.65466,82.8732438 C102.545797,83.0247277 102.407904,83.1617847 102.270011,83.2988416 C102.0668,83.5080337 101.899877,83.7388665 101.776499,83.9985533 C101.674894,84.2077454 101.616834,84.4313646 101.660379,84.6694108 C101.689409,84.8064677 101.667636,84.9290976 101.587804,85.0517275 C101.537001,85.1238627 101.537001,85.2320656 101.537001,85.3186278 C101.537001,85.5206065 101.493456,85.708158 101.413623,85.9534178 C101.355563,85.8380014 101.312018,85.7730797 101.297503,85.7009445 C101.27573,85.5783146 101.261215,85.4484712 101.253957,85.3258414 C101.2467,85.2176385 101.210412,85.1455033 101.065262,85.1238627 C101.028974,85.2320656 100.985429,85.3402684 100.949141,85.4484712 C100.854793,85.7225851 100.760446,86.0039124 100.65884,86.2780263 C100.586265,86.4800049 100.564492,86.494432 100.346767,86.4727914 C100.259676,86.4655779 100.172586,86.4439373 100.063723,86.4222967 C99.9330877,86.660343 99.7951947,86.8983892 99.6427866,87.1652895 C99.5774689,87.006592 99.5266662,86.8911757 99.4831211,86.7757593 C99.4540909,86.6964106 99.4032883,86.6675565 99.316198,86.6675565 C99.2218501,86.6675565 99.19282,86.7180512 99.1710474,86.7973999 C99.1057297,87.0210191 99.0258969,87.2518518 98.9388066,87.5259656 C98.8734889,87.3744817 98.8299437,87.2662788 98.779141,87.143649 C98.3582045,87.5764603 97.9590406,87.9876311 97.5671342,88.4060154 C96.9792746,89.0191648 96.391415,89.6323142 95.8035554,90.2526771 C95.4842242,90.5917126 95.1721506,90.9451752 94.860077,91.2914243 C94.8310469,91.3202784 94.8092743,91.3491325 94.7729867,91.370773 C94.6496087,91.4429082 94.5988061,91.5511111 94.584291,91.6809545 C94.5625184,91.8901466 94.4681706,92.0488441 94.308505,92.1931146 C94.0835217,92.4023067 94.0617491,92.5826448 94.2068997,92.8495451 C94.29399,93.0154561 94.2867324,93.1020184 94.1633545,93.2535023 C94.156097,93.2679294 94.1343244,93.2751429 94.1343244,93.28957 C94.0399766,93.5059756 93.8875685,93.5276162 93.6698427,93.4626945 C93.5537223,93.4266269 93.3940567,93.4771215 93.2851939,93.5348297 C93.0166654,93.6718866 92.7481369,93.6718866 92.4723509,93.5997514 C92.3707456,93.5781108 92.2691402,93.5636838 92.1675349,93.5420432 C91.9280365,93.4843351 91.7030532,93.5059756 91.4998425,93.635819 C91.0861635,93.8955058 90.6869996,93.6502461 90.4837888,93.2462888 C90.4547587,93.1885806 90.4765313,93.0875913 90.4983039,93.0154561 C90.5636216,92.8279045 90.5853942,92.6475665 90.527334,92.4600149 C90.4837888,92.3301715 90.4910463,92.2003281 90.6434544,92.1137658 C90.7813474,92.0344171 90.7813474,91.8901466 90.7595748,91.7530897 C90.7450598,91.6448869 90.527334,91.536684 90.4184711,91.5727516 C90.3604109,91.5943922 90.3096082,91.6232463 90.2297754,91.6665274 C90.0918824,91.3274919 89.8814142,91.024524 89.8306115,90.6638478 C89.7943239,90.3969475 89.7362636,90.1444742 89.4604777,90.0146308 C89.5257954,89.9424956 89.5765981,89.8847874 89.6419158,89.8054387 C89.5548255,89.7693711 89.4895078,89.7477305 89.3806449,89.7044494 C89.5330529,89.6900223 89.6274008,89.6828088 89.7435212,89.6683818 C89.6491733,89.589033 89.5765981,89.5168978 89.4895078,89.4447626 C89.6056282,89.2860651 89.7072335,89.1490082 89.8160964,88.9903107 C89.8088389,88.8748943 89.562083,88.9037484 89.6274008,88.7161968 C89.8160964,88.7089833 90.0120496,88.6945563 90.2370329,88.6873427 C90.1426851,88.4709371 90.0701098,88.2978125 89.9830195,88.110261 C90.1063975,88.0381257 90.2225179,87.9659905 90.3604109,87.8866418 C90.1209125,87.7423713 89.8814142,87.6774496 89.6056282,87.6341685 C89.6419158,87.5403927 89.6709459,87.4610439 89.699976,87.3816952 C89.8088389,87.3672682 89.9031867,87.3600546 90.0120496,87.3456276 C90.0338222,87.1292219 90.1717152,87.0210191 90.3604109,86.9416703 C90.4184711,86.9200298 90.4620162,86.8695351 90.5200765,86.8334675 C90.5926517,86.7901864 90.6071668,86.7324782 90.5853942,86.6531295 C90.5636216,86.5954213 90.5563641,86.5304996 90.541849,86.4655779 C90.5200765,86.3213074 90.5708791,86.2131046 90.7087721,86.1626099 C90.8974678,86.0904747 91.078906,86.011126 91.2676016,85.9534178 C91.383722,85.9173502 91.521615,85.9101367 91.644993,85.9245637 C91.8336887,85.9462043 92.0223843,85.9822719 92.21108,86.0399801 C92.3634881,86.0832612 92.4578359,86.0471936 92.5666988,85.9317772 C93.052953,85.3979766 93.5609798,84.8713894 94.0472341,84.3375888 C94.4972007,83.8470693 94.9399098,83.3421227 95.3898764,82.8443897 C95.4987393,82.7217598 95.6076022,82.5919164 95.6076022,82.4043648 C95.6076022,82.3466567 95.6584049,82.296162 95.6946925,82.2384538 C95.6438898,82.1518915 95.549542,82.0581158 95.549542,81.9571264 C95.549542,81.8777777 95.6584049,81.8056425 95.7309801,81.7046532 C95.70195,81.661372 95.6584049,81.5964503 95.6003446,81.5171016 C95.6366323,81.4666069 95.6656624,81.4161123 95.7092075,81.3511906 C95.5059968,81.1852796 95.6148597,80.997728 95.6729199,80.8029629 C95.7527527,80.7885358 95.825328,80.7813223 95.9341908,80.7668953 C95.977736,80.6514789 96.0285387,80.5216355 96.0865989,80.362938 C95.7164651,80.4134327 95.411649,80.6154113 95.012485,80.5216355 C95.2302108,80.4495003 95.4043914,80.3845786 95.5858296,80.3268704 C95.5785721,80.2980163 95.5713145,80.2763758 95.564057,80.2547352 C95.5567995,80.2330946 95.5422844,80.2114541 95.5205119,80.1609594 C95.4406791,80.1826 95.3463312,80.2042405 95.2592409,80.2258811 C94.3520502,80.4855679 93.4303444,80.6731195 92.4941235,80.7957494 C92.4360633,80.8029629 92.348973,80.8029629 92.3199429,80.7741088 C92.2183375,80.6514789 92.0949596,80.6731195 91.9643241,80.6875465 C91.7901435,80.7019736 91.6159629,80.7236141 91.4417823,80.7308277 C91.2821167,80.7452547 91.1297086,80.7668953 90.9627855,80.665906 C90.8321501,80.5865572 90.6361969,80.6154113 90.4692738,80.5865572 C90.0338222,80.514422 89.6056282,80.4495003 89.1701766,80.3557245 C88.6331197,80.2475217 88.1468655,80.0094754 87.6968988,79.6848669 C87.5952935,79.6127317 87.4936881,79.5261694 87.3848252,79.4612477 C87.1453269,79.3314043 87.0292065,79.1366392 87.0146914,78.8697389 C87.0074339,78.7687496 86.9638887,78.6677603 87.0727516,78.5884115 C87.1017817,78.566771 87.1017817,78.4874222 87.0945242,78.4369276 C87.0872667,78.3575788 87.0582366,78.2854436 87.036464,78.1916678 C87.1816145,78.1195326 87.326765,78.0546109 87.4719155,77.9824757 C87.3485376,77.7372159 87.5517483,77.6217996 87.6533537,77.4775291 C87.6823838,77.4775291 87.6968988,77.4703156 87.7114139,77.4703156 C88.5605444,77.7083618 89.3733873,77.5424508 90.1789727,77.282764 C91.3401769,76.9148744 92.4505784,76.4243549 93.5319497,75.8761272 C94.6713813,75.2990454 95.7962978,74.700323 96.9357294,74.1160277 C97.0373348,74.0655331 97.1316826,74.0222519 97.1752278,73.8996221 C97.1897428,73.8491274 97.2623181,73.8130598 97.3131208,73.7769922 C97.5018165,73.6687893 97.6832546,73.5605865 97.8792078,73.4595972 C97.9880707,73.401889 98.0533884,73.3369673 98.0824185,73.2143374 C98.2275691,72.601188 98.4017497,72.0024657 98.5251276,71.3893163 C98.5904454,71.0647078 98.5904454,70.7328858 98.6194755,70.3577826 C98.503355,70.4082773 98.4307798,70.4299178 98.365462,70.4659855 C98.075161,70.6030424 97.78486,70.7328858 97.5018165,70.8771562 C97.2260305,71.0142131 96.9502445,71.0863484 96.6454284,71.0069996 C96.5365655,70.9781455 96.4277026,70.970932 96.2898096,70.9492914 C96.4349601,70.8338751 96.5873682,70.8266616 96.7325187,70.790594 C96.8994418,70.7545263 97.0228197,70.6679641 97.1099101,70.5236936 C97.095395,70.5092666 97.0808799,70.4948395 97.0736224,70.4948395 C96.8631542,70.5814018 96.667201,70.5669748 96.4494752,70.487626 C96.3478698,70.4515584 96.2027193,70.473199 96.1011139,70.5236936 C95.70195,70.7040317 95.2810135,70.6102559 94.8673345,70.6102559 C94.860077,70.6102559 94.8455619,70.6102559 94.8455619,70.6102559 C94.722184,70.4299178 94.5189733,70.4659855 94.3375351,70.4299178 C94.156097,70.3938502 93.9746588,70.3649961 93.7932207,70.3289285 C93.742418,70.321715 93.6843578,70.3000744 93.6262976,70.2856474 C93.6117825,70.2062987 93.604525,70.1341634 93.5827524,70.0259606 C93.3867992,69.989893 93.1835885,69.9610389 92.9803778,69.9105442 C92.7263644,69.8528361 92.4578359,69.8095549 92.2183375,69.7085656 C91.644993,69.4560923 91.0643909,69.2396867 90.4692738,69.0593486 C90.113655,68.9511458 89.7870663,68.7924483 89.4822502,68.5760426 C89.2572669,68.4173451 89.0395411,68.2658612 88.8000428,68.1360178 C88.5605444,68.0061744 88.4226514,67.8114093 88.306531,67.573363 C88.3863638,67.407452 88.5024842,67.3497438 88.6911799,67.3569574 C89.4677352,67.393025 90.2442905,67.4002385 91.0135882,67.4435196 C91.9933542,67.5012278 92.8715149,67.2054734 93.6843578,66.6860998 C94.5915485,66.109018 95.411649,65.4237334 96.2390069,64.7528758 C97.0083047,64.1252994 97.7703449,63.5049365 98.5469002,62.8917871 C98.8734889,62.6321003 99.2145926,62.4084811 99.6355291,62.3074918 C99.758907,62.2786377 99.8677699,62.1776484 99.9766328,62.1055131 C100.303221,61.8891075 100.51369,61.578926 100.724158,61.2543175 C100.854793,61.0595524 101.028974,60.8864279 101.18864,60.7133033 C101.312018,60.5762464 101.42088,60.431976 101.486198,60.2588514 C101.507971,60.1867162 101.558773,60.114581 101.624091,60.0712998 C101.776499,59.9703105 101.936165,59.8765347 102.09583,59.782759 C102.255496,59.6889832 102.422419,59.6673426 102.603857,59.7178373 C102.828841,59.7755454 103.039309,59.8621077 103.228004,60.0063781 C103.293322,60.0568728 103.373155,60.1073675 103.47476,60.1722892 C103.576366,60.0280187 103.663456,59.8909618 103.765061,59.7394778 C103.844894,59.7250508 103.9465,59.7106237 104.019075,59.6961967 C104.142453,59.8188266 104.251316,59.9342429 104.374694,60.0568728 C104.425496,59.9847376 104.454526,59.9414564 104.483556,59.9053888 C104.585162,59.9198159 104.67951,59.9414564 104.781115,59.94867 C105.114961,59.9919511 105.448807,60.0280187 105.775396,60.0785134 C105.993122,60.114581 106.17456,60.2299973 106.319711,60.3959083 C106.385028,60.4680436 106.450346,60.5401788 106.515664,60.612314 C106.573724,60.5906735 106.631784,60.5762464 106.697102,60.5546058 C106.79145,60.6988763 106.90757,60.7998656 107.089008,60.763798 C107.147068,60.6411681 107.197871,60.5185382 107.255931,60.3742678 C107.655095,60.4824706 108.039744,60.7349439 108.40262,60.3886948 C108.642119,60.5906735 108.867102,60.778225 109.113858,60.9802037 C109.063055,61.2543175 109.07757,61.5572854 108.881617,61.8169722 C108.84533,61.8602534 108.830815,61.9179616 108.801784,61.9684562 C108.750982,62.062232 108.758239,62.1560078 108.830815,62.228143 C108.968708,62.3651999 109.034025,62.5238974 109.041283,62.7403031 C108.997738,62.7763707 108.946935,62.8268654 108.888875,62.862933 C108.750982,62.9711358 108.613089,63.0649116 108.540513,63.2452497 C108.504226,63.346239 108.388105,63.4255877 108.293758,63.4977229 C108.119577,63.6419934 108.025229,63.8079044 108.010714,64.0459506 C107.996199,64.2984239 107.836533,64.493189 107.618808,64.6302459 C106.776935,65.1640466 105.935062,65.7050607 105.100446,66.2460749 C104.802888,66.44084 104.512587,66.6572457 104.229543,66.8808649 C104.142453,66.9530001 104.077135,67.0539894 103.990045,67.1621922 C103.961015,67.1694058 103.910212,67.1621922 103.859409,67.1838328 C103.794091,67.2126869 103.736031,67.255968 103.677971,67.2992492 C103.003021,67.7681281 102.995764,67.7609146 102.857871,68.5688291 C102.79981,68.9078646 102.756265,69.2469002 102.698205,69.5787222 C102.676432,69.7157791 102.690948,69.8311955 102.785295,69.9321848 C102.836098,69.989893 102.886901,70.0548147 102.923188,70.1269499 C103.249777,70.6679641 103.765061,70.8915833 104.367436,70.9853591 C104.556132,71.0142131 104.73757,71.0719213 104.926266,71.1079889 C105.027871,71.122416 105.049643,71.1945512 105.078674,71.2666864 C105.129476,71.3821028 105.165764,71.4975191 105.332687,71.5047327 C105.390747,71.5047327 105.434292,71.6345761 105.506868,71.6778572 C105.608473,71.7499924 105.492353,71.8221276 105.52864,71.9014764 C105.688306,72.0096792 105.855229,72.0313198 106.029409,71.9014764 C106.181818,71.78606 106.355998,71.6994978 106.515664,71.5912949 C106.660814,71.4975191 106.798707,71.4686651 106.96563,71.5480138 C107.103523,71.6129355 107.248674,71.6490031 107.386567,71.6994978 C107.393824,71.7283519 107.401082,71.7499924 107.408339,71.771633 C107.488172,72.0096792 107.444627,72.2116578 107.284961,72.4136365 C107.190614,72.5290528 107.147068,72.6805368 107.074493,72.8248072 C106.929343,72.7598855 106.922085,72.6156151 106.87854,72.5074123 C106.834995,72.4064229 106.76242,72.2982201 106.864025,72.1755902 C106.929343,72.0962415 106.90757,72.0096792 106.82048,71.9447575 C106.755162,71.9014764 106.697102,71.8509817 106.610012,71.78606 C106.414058,72.0962415 106.218105,72.3847824 105.833456,72.4929852 C105.985864,72.6300421 106.109242,72.7310314 106.276165,72.7598855 C106.385028,72.7815261 106.472119,72.8320208 106.464861,72.9618642 C106.457604,73.1277752 106.551951,73.221551 106.689844,73.2936862 C106.834995,73.3658214 106.980145,73.4523837 107.110781,73.5245189 C107.009176,73.733711 106.914828,73.9356897 106.813222,74.1376683 C106.740647,74.1160277 106.675329,74.1016007 106.595497,74.0799601 C106.297938,74.3612875 106.000379,74.6354013 105.710078,74.9167287 C105.622988,75.003291 105.543155,75.0826397 105.398005,75.0393586 C105.35446,75.0249315 105.289142,75.0537856 105.245597,75.0826397 C104.563389,75.5803728 103.881182,76.0781058 103.198974,76.5758388 C103.184459,76.5830523 103.184459,76.6046929 103.169944,76.633547 C103.220747,76.6984687 103.27155,76.7633904 103.322352,76.8283121 C103.38767,76.9148744 103.467503,76.9293014 103.569108,76.9293014 C104.026332,76.9076609 104.469041,76.8066715 104.897235,76.6551876 C105.572185,76.4171413 106.254393,76.1790951 106.929343,75.9410489 C107.052721,75.8977677 107.110781,75.8112055 107.168841,75.7030026 C107.626065,74.83738 107.756701,73.8779815 107.938139,72.9330101 C108.177637,71.6634302 108.388105,70.3866367 108.605831,69.1098433 C108.642119,68.9150782 108.649376,68.7130995 108.678406,68.5183344 C108.736467,68.1360178 108.620346,67.7825552 108.533256,67.407452 C108.061517,67.2920357 107.568005,67.3785979 107.110781,67.1766193 C107.321249,67.1189111 107.52446,67.0684165 107.749443,67.0107083 C107.727671,66.9818542 107.713156,66.9602136 107.69864,66.9457866 C107.684125,66.9313595 107.662353,66.9169325 107.64058,66.9025054 C107.858306,66.606751 108.134092,66.4624806 108.40262,66.5201888 C108.504226,66.3542778 108.620346,66.1955803 108.823557,66.123445 C108.96145,66.0729504 109.099343,66.0440963 109.244494,66.094591 C109.520279,66.1811532 109.803323,66.2172208 110.093624,66.1595127 C110.195229,66.1378721 110.267805,66.1811532 110.347637,66.2460749 C110.507303,66.3759183 110.681484,66.4841212 110.862922,66.6211781 C110.935497,66.5346158 110.993557,66.4696941 111.04436,66.4047724 C111.530614,65.777196 112.031383,65.1496195 112.51038,64.5220431 C112.873257,64.0459506 113.257905,63.5842852 113.700614,63.1875415 C113.83125,63.0721251 113.882053,62.9350682 113.903825,62.7763707 C113.9764,62.3219188 114.056233,61.8674669 114.143324,61.413015 C114.186869,61.1821823 114.41911,61.0884065 114.629578,61.2038228 C114.745698,61.261531 114.869076,61.2975986 114.999712,61.3264527 C115.166635,61.427442 115.15212,61.593353 115.086802,61.7736911 C115.253725,61.7736911 115.398876,61.7736911 115.558541,61.7736911 C115.587571,61.6943424 115.623859,61.6149936 115.660146,61.5067908 C115.718207,61.578926 115.769009,61.6438477 115.819812,61.7015559 C115.986735,61.593353 116.146401,61.4851502 116.327839,61.3697339 C116.378642,61.4851502 116.422187,61.5717125 116.472989,61.6871288 C116.654428,61.6727018 116.843123,61.6654883 117.031819,61.6510612 C117.162454,61.6366342 117.278575,61.6582747 117.401953,61.7231964 C117.583391,61.8241858 117.772087,61.9035345 117.960782,61.9900968 C118.05513,62.0333779 118.098675,62.0910861 118.127705,62.1992889 C118.178508,62.4156946 118.251083,62.6248867 118.222053,62.8485059 C118.185766,63.1081927 118.11319,63.346239 117.917237,63.5337905 C117.757572,63.692488 117.677739,63.8800396 117.648709,64.1036588 C117.612421,64.3921997 117.561618,64.6879541 117.503558,64.9692815 C117.481786,65.0774843 117.423725,65.1784736 117.365665,65.3227441 C117.452755,65.4309469 117.365665,65.5752173 117.314862,65.7267013 C117.256802,65.8781853 117.162454,66.0368828 117.300347,66.1955803 C117.300347,66.4841212 117.300347,66.7654485 117.29309,67.0539894 C117.29309,67.090057 117.271317,67.1333382 117.242287,67.1621922 C117.155197,67.255968 117.111652,67.3497438 117.111652,67.4795872 C117.111652,67.5228684 117.060849,67.573363 117.031819,67.6166442 C117.075364,67.6599253 117.118909,67.6887794 117.169712,67.7320605 C117.111652,67.8041957 117.053591,67.8691174 116.995531,67.9340391 C117.184227,68.0710961 117.169712,68.2370071 116.981016,68.4606263 C117.075364,68.8285159 117.002789,69.1819785 116.879411,69.5282276 C116.843123,69.6364304 116.792321,69.7302062 116.814093,69.8456225 C116.850381,70.00432 116.821351,70.141377 116.639912,70.2351527 C116.70523,70.2856474 116.76329,70.3289285 116.843123,70.3938502 C116.76329,70.4443449 116.683458,70.4948395 116.603625,70.5453342 C116.683458,70.7689534 116.748775,70.9420779 116.821351,71.136843 C116.893926,71.0863484 116.937471,71.0502808 117.002789,71.0069996 C117.017304,71.122416 116.966501,71.2161918 116.922956,71.2955405 C116.879411,71.3748893 116.792321,71.4325974 116.70523,71.5263732 C116.727003,71.5912949 116.770548,71.6850707 116.806836,71.78606 C116.683458,71.937544 116.516535,72.0746009 116.632655,72.3198607 C117.314862,72.1755902 117.99707,72.0313198 118.70105,71.8870493 C118.737338,71.5696544 118.766368,71.2811135 118.795398,70.9925726 C119.013123,68.8862241 119.209077,66.772662 119.448575,64.6663135 C119.535665,63.8656126 119.630013,63.0721251 119.673558,62.2714241 C119.680816,62.1199402 119.644528,62.0117373 119.513893,61.9323886 C119.448575,61.8891075 119.383257,61.8386128 119.325197,61.7809046 C119.216334,61.6727018 119.100214,61.6077801 118.940548,61.7231964 C118.824428,61.5212178 118.75911,61.3192392 118.780883,61.1100471 C118.882488,61.0018442 119.071184,61.0884065 119.129244,60.9224955 C119.180047,60.7998656 119.238107,60.6772357 119.303425,60.5473923 C119.419545,60.5690329 119.52115,60.5906735 119.615498,60.6195275 C119.724361,60.6483816 119.796936,60.6267411 119.862254,60.5401788 C120.014662,60.3526272 120.210615,60.2155703 120.464629,60.129008 C120.798475,60.5690329 121.284729,60.8720008 121.582288,61.3553068 C121.640348,61.4490826 121.741953,61.5356449 121.843559,61.5861395 C122.032254,61.6943424 122.170147,61.8313993 122.286268,62.0045238 C122.445933,62.2353565 122.612856,62.4517622 122.794295,62.7042355 C123.59988,62.047805 124.499813,61.5717125 125.363459,61.0018442 C125.334429,60.8431467 125.298141,60.6844492 125.269111,60.5329653 C125.218308,60.2227838 125.276368,59.9414564 125.559412,59.7611184 C125.74085,59.645702 125.82794,59.5086451 125.79891,59.2922394 C125.791653,59.2273177 125.806168,59.162396 125.79891,59.1046879 C125.762623,58.8666416 125.849713,58.6863036 126.045666,58.5564602 C126.241619,58.4266168 126.44483,58.2967734 126.655298,58.181357 C126.858509,58.0731542 127.068977,58.0803677 127.272188,58.1957841 C127.366536,58.2462787 127.482656,58.2751328 127.584262,58.3039869 C127.729412,58.3400545 127.85279,58.3112004 127.918108,58.1597164 C127.976168,58.0226595 128.092289,57.9938054 128.230182,58.001019 C128.339044,58.0082325 128.41162,58.0370866 128.462422,58.1308624 C128.513225,58.2246381 128.578543,58.3184139 128.64386,58.4121897 C128.745466,58.3833356 128.825299,58.3544815 128.919646,58.3256275 C128.934162,58.3544815 128.941419,58.3977627 128.955934,58.4049762 C129.217205,58.498752 129.297038,58.7440117 129.434931,58.9387768 C129.514764,59.0614067 129.609111,59.133542 129.754262,59.1551825 C130.109881,59.2128907 130.450984,59.3210935 130.763058,59.5158586 C130.813861,59.5519262 130.879178,59.5807803 130.908209,59.631275 C131.096904,60.0280187 131.271085,60.4247624 131.452523,60.8215062 C131.075132,61.0884065 130.937239,61.5067908 130.734028,61.8746804 C130.69774,61.9396021 130.712255,62.0261644 130.712255,62.1055131 C130.712255,62.1848619 130.719513,62.2642106 130.72677,62.3363458 C130.61065,62.4084811 130.52356,62.4156946 130.458242,62.2930647 C130.421954,62.213716 130.371152,62.1415807 130.313091,62.0550185 C130.153426,62.1560078 129.96473,62.1920754 129.971988,62.4229081 C129.971988,62.4373352 129.96473,62.4589757 129.950215,62.4661892 C129.761519,62.5311109 129.79055,62.725876 129.710717,62.8557194 C129.667172,62.8485059 129.630884,62.8485059 129.594596,62.8412924 C129.587339,62.8557194 129.572824,62.8701465 129.572824,62.8845735 C129.551051,63.0072034 129.558309,63.1442603 129.500249,63.2524632 C129.17366,63.9088937 129.072055,64.6158189 129.021252,65.3299576 C128.955934,66.3254237 128.912389,67.3281033 128.854329,68.3307829 C128.839814,68.6698184 128.825299,69.0160675 128.810784,69.355103 C128.810784,69.4344518 128.810784,69.5138005 128.810784,69.6147898 C128.970449,69.6003628 129.1156,69.5787222 129.297038,69.5642952 C129.326068,69.0954162 129.355098,68.6265373 129.384128,68.1504448 C129.398643,68.1504448 129.405901,68.1504448 129.420416,68.1504448 C129.449446,68.5039074 129.471218,68.85737 129.500249,69.2469002 C129.572824,69.189192 129.623626,69.1531244 129.667172,69.1242703 C129.725232,69.0882027 129.79055,69.037708 129.84861,69.0304945 C130.073593,69.0016404 130.226001,68.9006511 130.233259,68.6553914 C130.233259,68.6337508 130.247774,68.6121102 130.269546,68.5616156 C130.407439,68.6553914 130.545332,68.7419536 130.690483,68.8357294 C130.596135,68.9583593 130.516302,69.0665621 130.436469,69.174765 C130.49453,69.2613272 130.58162,69.2324731 130.654195,69.2396867 C130.755801,69.2541137 130.857406,69.2685408 130.966269,69.2685408 C131.176737,69.2685408 131.387205,69.2757543 131.517841,69.5138005 C131.561386,69.4560923 131.590416,69.4200247 131.626704,69.3767436 C131.662991,69.3911706 131.706536,69.3983842 131.742824,69.4200247 C131.938777,69.521014 132.13473,69.6364304 132.374229,69.5715087 C132.417774,69.5570816 132.468577,69.5859357 132.519379,69.5859357 C132.715333,69.5859357 132.918543,69.6003628 133.114496,69.5787222 C133.31045,69.5642952 133.499145,69.5354411 133.680584,69.6220033 C134.13055,69.8311955 134.529714,70.1197364 134.957908,70.3794232 C134.928878,70.4659855 134.914363,70.5309072 134.885333,70.6174694 C134.972423,70.6751776 135.052256,70.7400993 135.146604,70.7833804 C135.465935,70.9276509 135.705433,71.1729106 135.966704,71.3965298 C136.082825,71.4975191 136.075567,71.7139248 135.966704,71.8149141 C135.952189,71.8293412 135.930417,71.8509817 135.908644,71.8581953 C135.640116,72.0096792 135.48045,72.2332984 135.45142,72.5362663 C135.436905,72.6733233 135.349815,72.738245 135.226437,72.7815261 C135.059513,72.8464478 134.92162,72.9330101 134.798243,73.070067 C134.631319,73.2504051 134.413594,73.3730349 134.15958,73.4307431 C133.651553,73.5461595 133.143527,73.5461595 132.6355,73.4523837 C132.040383,73.3441808 131.452523,73.3008997 130.850148,73.3586079 C130.49453,73.3946755 130.131653,73.3802485 129.768777,73.3946755 C129.681687,73.3946755 129.594596,73.3946755 129.478476,73.3946755 C129.427673,73.7481381 129.362356,74.0727466 129.347841,74.4045686 C129.297038,75.666935 129.26075,76.9293014 129.224463,78.1916678 C129.209948,78.747109 129.20269,79.3025502 129.209948,79.8579915 C129.224463,80.8606711 129.268008,81.8561371 129.275265,82.8588167 C129.282523,84.0274073 129.253493,85.195998 129.246235,86.3645886 C129.246235,87.0498732 129.26075,87.7279443 129.282523,88.4132289 C129.297038,88.7955456 129.362356,89.1706487 129.594596,89.4952572 C129.717974,89.6683818 129.747004,89.8631469 129.681687,90.0867661 C129.645399,90.2093959 129.659914,90.3608799 129.696202,90.4835098 C129.79055,90.7936912 129.79055,91.0822321 129.623626,91.3779865 C129.507506,91.5799652 129.507506,91.8252249 129.543794,92.0560576 C129.594596,92.3878797 129.674429,92.7124882 129.703459,93.0443102 C129.747004,93.5276162 129.747004,94.0109222 129.768777,94.4942282 C129.783292,94.8549043 129.805065,95.2227939 129.826837,95.58347 C129.841352,95.7638081 129.84861,95.7782351 129.732489,95.9730002 C129.623626,95.9152921 129.507506,95.8575839 129.391386,95.7998757 C129.238978,95.8792244 129.122857,95.9874273 129.043024,96.1461248 C128.941419,96.3336764 128.803526,96.4995874 128.687406,96.6799254 C128.5858,96.8386229 128.49871,97.0045339 128.404362,97.1776585 C128.46968,97.2353666 128.505967,97.2714342 128.55677,97.3147154 C128.49871,97.3435695 128.455165,97.3724236 128.41162,97.4012777 C128.397105,97.3796371 128.38259,97.3724236 128.375332,97.3579965 C128.280984,97.0838827 128.077773,96.9973204 127.82376,97.1127368 C127.801987,97.1199503 127.780215,97.1343773 127.758442,97.1415908 C127.555232,97.2209396 127.352021,97.3291424 127.243158,97.5960428 Z M118.056964,75.6815625 C118.201291,75.5785498 118.207851,75.4274645 118.227532,75.2420416 C117.630544,75.1527639 117.171323,75.461802 116.718662,75.68843 C116.777704,75.8257803 116.830187,75.9356605 116.882669,76.0592758 C116.994195,76.0249382 117.11884,75.9837331 117.236926,75.942528 C117.512459,75.8532503 117.787991,75.7639727 118.056964,75.6815625 C118.030723,75.6952975 118.004481,75.7227676 117.97168,75.7296351 C117.584622,75.8669854 117.204124,76.0180707 116.830187,76.196626 C116.705541,76.2584337 116.659619,76.3820489 116.561214,76.4644591 C116.489051,76.5193992 116.561214,76.7048221 116.67274,76.8215698 C116.594016,77.0413303 116.600576,77.2748257 116.626817,77.5083212 C116.666179,77.8379619 116.653059,78.1676025 116.561214,78.4972432 C116.528413,78.6208585 116.515292,78.7513412 116.508732,78.8749565 C116.495611,79.5479728 116.495611,80.2209892 116.489051,80.8940056 C116.489051,80.9489457 116.508732,80.9970183 116.521853,81.0656934 C116.712101,80.9008731 116.751463,80.8390655 116.777704,80.6399076 C116.830187,80.2621943 116.882669,79.8776135 116.928591,79.4999002 C116.935152,79.6372505 116.935152,79.7677333 116.935152,79.9050836 C116.941712,80.0424339 116.89579,80.1866516 116.967953,80.3240019 C117.007315,80.3033994 117.026996,80.2965319 117.040117,80.2827968 C117.191004,80.097374 117.355011,79.9325536 117.54526,79.7952033 C117.597743,79.7608658 117.623984,79.6715881 117.643665,79.602913 C117.702707,79.39002 117.75519,79.1839946 117.807672,78.9711017 C117.860155,78.7719438 117.925758,78.5796534 117.951999,78.3804955 C118.050404,77.5426588 118.142248,76.6979546 118.234092,75.8601178 C118.253773,75.6815625 118.240652,75.6815625 118.056964,75.6815625 Z M121.452555,71.1386861 C121.530212,71.131496 121.57257,71.131496 121.607869,71.1243059 C122.560934,70.9517426 123.521059,70.7719893 124.474125,70.5994261 C124.622379,70.5706655 124.629439,70.4843839 124.643559,70.3621516 C124.700037,69.686279 124.756515,69.0032163 124.820052,68.3273437 C124.982426,66.630472 125.215398,64.9479807 125.504847,63.2726794 C125.518967,63.1863978 125.526026,63.0929261 125.540146,62.9635036 C125.314234,63.0713557 125.15186,63.1792077 124.996546,63.3158202 C124.234094,64.0132632 123.471641,64.7107062 122.716249,65.4225295 C122.631532,65.501621 122.589173,65.6166631 122.525636,65.7101349 C122.483277,65.7820362 122.455038,65.8826981 122.391501,65.9186488 C122.193828,66.0480712 122.12323,66.2350147 122.094991,66.4507187 C122.073812,66.6017115 122.038513,66.7455142 122.017334,66.896507 C121.939677,67.4573375 121.86908,68.0253581 121.784363,68.5861885 C121.685526,69.2764414 121.57257,69.9595041 121.466674,70.649757 C121.459614,70.8151301 121.459614,70.9661229 121.452555,71.1386861 Z M110.660539,74.350365 C111.596615,74.0038989 112.487396,73.6800284 113.393276,73.348626 C113.551805,70.3735365 113.702785,67.4285746 113.861314,64.4233577 C113.778275,64.521272 113.717883,64.581527 113.672589,64.641782 C113.219649,65.2518636 112.751611,65.8619452 112.313769,66.4870906 C111.928771,67.0444491 111.566419,67.6244033 111.211616,68.1968255 C111.022891,68.4981004 110.932303,68.8295028 110.932303,69.1910326 C110.932303,69.3341382 110.917205,69.4772438 110.87946,69.6128175 C110.841715,69.7634549 110.713382,69.9065605 110.834166,70.0797935 C110.841715,70.0948573 110.811519,70.1400485 110.80397,70.170176 C110.773774,70.3057497 110.720931,70.4413234 110.713382,70.5768971 C110.683186,71.1493194 110.675637,71.7217416 110.65299,72.2941639 C110.645441,72.4523332 110.65299,72.6105025 110.65299,72.7686718 C110.690735,72.7762037 110.72848,72.7762037 110.788872,72.7912675 C110.751127,73.288371 110.705833,73.7930064 110.660539,74.350365 Z M102.579558,78.4636031 C102.548778,78.843557 102.517998,79.238709 102.479523,79.6414601 C102.471828,79.7782435 102.456438,79.8998287 102.579558,80.0138149 C102.618032,80.0518103 102.625727,80.1354001 102.625727,80.1961927 C102.625727,80.2797826 102.602642,80.3633724 102.594948,80.4469623 C102.579558,80.5913448 102.633422,80.7053309 102.779626,80.7737226 C103.264408,80.3709715 103.741495,79.9682204 104.226277,79.5578702 C103.926174,79.1931145 103.695326,78.8207597 103.249018,78.6687782 C103.210544,78.65358 103.172069,78.6307828 103.141289,78.6079856 C102.98739,78.4864003 102.787321,78.5243957 102.625727,78.4408059 C102.625727,78.4332068 102.618032,78.4408059 102.579558,78.4636031 Z M111.627363,77.5620438 C112.368882,77.260005 113.093355,76.9680342 113.817828,76.6760634 C113.817828,76.3740247 113.90306,76.1021898 113.834875,75.810219 C113.758166,75.8303549 113.698503,75.8404229 113.638841,75.8605588 C113.383144,75.9612384 113.127448,76.0719859 112.871752,76.1726655 C112.539346,76.3136169 112.198418,76.4445004 111.866013,76.5955198 C111.5677,76.7264032 111.465422,76.9982381 111.559177,77.3506167 C111.5677,77.4110244 111.59327,77.4613642 111.627363,77.5620438 Z" transform="translate(-87 -58)"/>
</svg>
