<?xml version='1.0' encoding='iso-8859-1'?>
<!DOCTYPE svg PUBLIC '-//W3C//DTD SVG 1.1//EN' 'http://www.w3.org/Graphics/SVG/1.1/DTD/svg11.dtd'>
<svg version="1.1" xmlns="http://www.w3.org/2000/svg" viewBox="0 0 498.924 498.924" xmlns:xlink="http://www.w3.org/1999/xlink" enable-background="new 0 0 498.924 498.924">
  <g>
    <path d="m463.425,199.67l3.972-13.722-14.253,.965c-2.037,0.138-4.086,0.208-6.088,0.208-34.666,0-54.809-20.656-59.132-30.66l-5.633-13.033-10.374,9.693c-34.695,32.418-47.669,38.14-51.693,39.087-1.266-2.935-1.988-11.555 4.65-29.57 6.606-17.927 17.543-37.015 25.452-47.979l11.433-15.85h-19.543c-23.24,0-44.197-11.288-62.291-33.549-14.145-17.403-21.079-35.216-21.142-35.38l-9.31-24.398-9.373,24.385c-0.068,0.178-7.003,17.991-21.148,35.394-18.094,22.261-39.051,33.549-62.291,33.549h-19.543l11.433,15.85c7.909,10.965 18.847,30.053 25.453,47.979 6.639,18.017 5.916,26.637 4.649,29.571-4.018-0.945-16.988-6.661-51.693-39.088l-10.374-9.693-5.633,13.033c-4.323,10.003-24.466,30.66-59.131,30.66-2.001,0-4.05-0.07-6.087-0.208l-14.253-.965 3.972,13.722c11.955,41.313-18.049,62.57-19.286,63.423l-16.168,10.876 18.264,6.793c1.01,0.375 100.891,38.408 94.083,112.075l-1.689,18.291 16.279-8.508c25.986-13.581 50.227-20.467 72.049-20.467 14.454,0 28.034,3.039 40.453,9.039v102.249h20v-102.25c12.42-6 26-9.039 40.455-9.039 21.822,0 46.063,6.886 72.047,20.467l16.279,8.509-1.689-18.292c-2.803-30.326 11.747-58.213 43.244-82.886 24.575-19.251 50.587-29.095 50.839-29.189l18.311-6.762-16.169-10.877c-1.284-0.883-31.288-22.14-19.331-63.453zm-45.567,94.212c-31.301,24.386-48.803,53.125-51.34,83.92-23.482-10.392-45.835-15.649-66.624-15.649-14.215,0-27.76,2.452-40.455,7.286v-43.762l45.125-47.508-14.502-13.773-30.623,32.24v-61.091h-20v61.091l-30.622-32.24-14.502,13.773 45.124,47.507v43.762c-12.695-4.834-26.239-7.286-40.453-7.286-20.788,0-43.142,5.257-66.626,15.649-2.535-30.798-20.037-59.533-51.34-83.921-15.217-11.854-30.635-20.333-41.4-25.551 2.526-2.931 5.173-6.435 7.665-10.52 6.756-11.074 13.353-28.288 10.162-50.837 31.293-1.633 53.262-16.721 64.743-31.073 28.21,25.468 45.743,36.485 57.723,36.485 4.067,0 7.749-1.243 10.646-3.594 21.525-17.465-0.94-65.318-16.642-91.681 22.647-4.525 43.46-18.026 60.938-39.71 6.034-7.487 10.876-14.956 14.583-21.399 3.707,6.443 8.549,13.912 14.583,21.399 17.478,21.685 38.291,35.186 60.938,39.71-15.701,26.363-38.165,74.214-16.643,91.681 2.898,2.352 6.58,3.595 10.647,3.595 11.98,0 29.509-11.014 57.723-36.485 11.482,14.353 33.451,29.44 64.745,31.073-3.191,22.549 3.404,39.763 10.16,50.837 2.492,4.084 5.14,7.588 7.665,10.52-10.764,5.22-26.182,13.698-41.398,25.552z"/>
  </g>
</svg>
