<?xml version="1.0" encoding="UTF-8" standalone="no"?>
<svg width="476px" height="480px" viewBox="0 0 476 480" version="1.1" xmlns="http://www.w3.org/2000/svg" xmlns:xlink="http://www.w3.org/1999/xlink">
    <!-- Generator: Sketch 3.8.3 (29802) - http://www.bohemiancoding.com/sketch -->
    <title>Group 13</title>
    <desc>Created with Sketch.</desc>
    <defs>
        <circle id="path-1" cx="238" cy="238" r="238"></circle>
        <path d="M45,76 C62.1208272,76 76,62.3446849 76,45.5 C76,28.6553151 62.1208272,15 45,15 C27.8791728,15 14,28.6553151 14,45.5 C14,62.3446849 27.8791728,76 45,76 Z" id="path-3"></path>
        <path d="M44.5,75 C61.4305958,75 75.1555556,61.3446849 75.1555556,44.5 C75.1555556,27.6553151 61.4305958,14 44.5,14 C27.5694042,14 13.8444444,27.6553151 13.8444444,44.5 C13.8444444,61.3446849 27.5694042,75 44.5,75 Z" id="path-5"></path>
    </defs>
    <g id="Welcome" stroke="none" stroke-width="1" fill="none" fill-rule="evenodd">
        <g id="Group-13">
            <g id="Group-14">
                <mask id="mask-2" fill="white">
                    <use xlink:href="#path-1"></use>
                </mask>
                <use id="Oval-31" fill="#786999" xlink:href="#path-1"></use>
                <rect id="Rectangle-248" fill="#FFFFFF" opacity="0.114972015" mask="url(#mask-2)" transform="translate(334.943211, 349.257149) rotate(45.000000) translate(-334.943211, -349.257149) " x="183.667409" y="62.2070592" width="302.551605" height="574.10018"></rect>
            </g>
            <path d="M321.102127,383.348602 C314.50354,382.499512 295.489939,375.118146 275.711643,375.354172 C254.351157,375.60908 255.242782,380.517368 233.953998,381.515855 C219.339841,382.201288 191.175799,381.535437 179.257675,381.515855 C156.922174,381.479157 136.110563,387.26912 124.680401,385.200974 C113.250238,383.132829 104.071004,375.43245 101.253344,358.915849 C98.435684,342.399247 109.522857,327.962144 109.522857,315.131165 C109.522857,302.759116 99.7437558,292.034642 99.0770175,281.285889 C97.9540726,263.18245 109.481568,254.263078 109.522858,242.980668 C109.594912,223.291864 105.000259,220.664063 106.691467,194.643685 C110.013488,143.532149 136.037994,95.8527478 179.257675,77.6291382 C222.477356,59.4055286 268.3741,63.2240432 300.054337,84.7172762 C331.734573,106.210509 353.093964,141.624252 360.637421,183.654663 C368.180878,225.685074 358.564728,232.038651 358.564728,253.964523 C358.564728,275.890396 364.068787,277.990799 364.068787,293.128052 C364.068787,308.265305 354.181381,318.737623 354.181381,327.43338 C354.181381,334.651299 358.381825,346.103514 358.564728,355.576385 C358.750645,365.205415 354.876346,372.830214 349.520447,376.971191 C338.895508,385.18599 327.700714,384.197693 321.102127,383.348602 Z" id="Path-38" fill="#4F3B1F"></path>
            <path d="M288.09202,384.722577 C283.959639,384.011616 272.052323,377.831045 259.666115,378.028675 C246.289056,378.242114 246.847438,382.351926 233.515284,383.187979 C224.363131,383.761906 206.725328,383.204375 199.261573,383.187979 C185.273908,383.157251 172.240584,388.005308 165.082416,386.273606 C157.924248,384.541905 152.175729,378.094218 150.411162,364.264525 C148.646596,350.434831 155.589966,338.346345 155.589966,327.6027 C155.589966,317.243326 149.465779,308.263501 149.048232,299.263347 C148.344985,284.104961 155.564109,276.636585 155.589966,267.18959 C155.63509,250.703745 152.757678,248.503433 153.816801,226.71603 C155.897225,183.919279 172.195138,143.996326 199.261573,128.737319 C226.328007,113.478312 255.07096,116.675634 274.910788,134.672364 C294.750617,152.669095 308.126989,182.321757 312.851098,217.514693 C317.575207,252.707629 311.553069,258.027611 311.553069,276.3866 C311.553069,294.745589 315,296.5043 315,309.179036 C315,321.853772 308.807987,330.622461 308.807987,337.9036 C308.807987,343.947314 311.438526,353.536491 311.553069,361.468323 C311.669501,369.530909 309.243211,375.915312 305.889065,379.382638 C299.23517,386.26106 292.224402,385.433538 288.09202,384.722577 Z" id="Path-38-Copy" fill="#45331B"></path>
            <rect id="Rectangle-245" fill="#FF7575" x="153" y="365" width="162" height="114.742443" rx="33"></rect>
            <path d="M244.994269,365 L186.002818,365 C167.769889,365 153,379.772755 153,397.995873 L153,479.742443 L245,479.742443 L175,479.742443 L175,397.995873 C175,379.772755 189.767345,365 207.991355,365 L244.994269,365 Z" id="Combined-Shape" fill="#EF5F5F"></path>
            <g id="Group-11" transform="translate(211.000000, 309.000000)">
                <rect id="Rectangle-242" fill="#F6DFB2" x="0" y="0" width="47" height="88" rx="23.5"></rect>
                <path d="M11,4 C4.39087301,8.15818992 0,15.5165397 0,23.9005221 L0,64.9091818 C0,77.8774041 10.5213084,88.4048519 23.5,88.4048519 C25.3943459,88.4048519 27.2362417,88.1808481 29.0006561,87.7578937 C18.6748858,85.2822541 11,75.9908188 11,64.9120455 L11,4 Z" id="Combined-Shape" fill="#F5C79F"></path>
            </g>
            <rect id="Rectangle-238" fill="#F6E0B2" x="153" y="110" width="162" height="230" rx="81"></rect>
            <path d="M245.498857,110.810044 C241.742711,110.276172 237.903603,110 234,110 C189.255099,110 153,146.268749 153,191.008519 L153,258.991481 C153,303.730284 189.264935,340 234,340 C237.90451,340 241.744375,339.723829 245.501143,339.189956 C206.212081,333.605689 176,299.826356 176,258.991481 L176,191.008519 C176,150.172811 206.203814,116.394238 245.498859,110.810043 Z" id="Combined-Shape" fill="#F5C79F"></path>
            <path d="M159,119.86726 C159,119.86726 201.574095,172.270194 255.252914,200.946614 C308.931733,229.623033 344.109023,238.158131 344.109023,238.158131 C344.109023,238.158131 339.454335,121.402457 296.734582,103.248041 C254.014829,85.0936261 159,119.86726 159,119.86726 Z" id="Path-39" fill="#4F3B20"></path>
            <rect id="Rectangle-246" fill="#FFA4A4" x="238" y="278" width="26.9495505" height="9.47907161" rx="4.7395358"></rect>
            <rect id="Rectangle-246-Copy" fill="#FFA4A4" x="239" y="286" width="24.4995914" height="9.47907161" rx="4.7395358"></rect>
            <g id="Group-12" transform="translate(161.000000, 174.000000)">
                <ellipse id="Oval-35" fill="#CBFFF1" cx="45" cy="45" rx="45" ry="45"></ellipse>
                <mask id="mask-4" fill="white">
                    <use xlink:href="#path-3"></use>
                </mask>
                <use id="Oval-35-Copy-2" fill="#424242" xlink:href="#path-3"></use>
                <rect id="Rectangle-248" fill="#FFFFFF" opacity="0.111823694" mask="url(#mask-4)" transform="translate(53.995243, 53.162951) rotate(45.000000) translate(-53.995243, -53.162951) " x="48.9952426" y="21.1629509" width="10" height="64"></rect>
                <rect id="Rectangle-248-Copy" fill="#FFFFFF" opacity="0.111823694" mask="url(#mask-4)" transform="translate(66.482495, 63.650203) rotate(45.000000) translate(-66.482495, -63.650203) " x="57.9649891" y="31.6502029" width="17.0350109" height="64"></rect>
            </g>
            <g id="Group-12-Copy" transform="translate(255.000000, 174.000000)">
                <path d="M44.5,90 C69.0766714,90 89,69.8528137 89,45 C89,20.1471863 69.0766714,0 44.5,0 C19.9233286,0 0,20.1471863 0,45 C0,69.8528137 19.9233286,90 44.5,90 Z" id="Oval-35" fill="#CBFFF0"></path>
                <mask id="mask-6" fill="white">
                    <use xlink:href="#path-5"></use>
                </mask>
                <use id="Oval-35-Copy-2" fill="#424242" xlink:href="#path-5"></use>
                <rect id="Rectangle-248" fill="#FFFFFF" opacity="0.111823694" mask="url(#mask-6)" transform="translate(53.395295, 53.162951) rotate(45.000000) translate(-53.395295, -53.162951) " x="48.450851" y="21.1629509" width="9.88888889" height="64"></rect>
                <rect id="Rectangle-248-Copy" fill="#FFFFFF" opacity="0.111823694" mask="url(#mask-6)" transform="translate(65.743800, 63.650203) rotate(45.000000) translate(-65.743800, -63.650203) " x="57.3209337" y="31.6502029" width="16.845733" height="64"></rect>
            </g>
            <rect id="Rectangle-252" fill="#CBFFF0" x="248" y="214" width="11" height="12.406663"></rect>
            <rect id="Rectangle-252-Copy" fill="#CBFFF0" x="124" y="214" width="39.4568369" height="12.406663"></rect>
            <rect id="Rectangle-239" fill="#F5C79F" transform="translate(147.728418, 248.305863) rotate(-7.000000) translate(-147.728418, -248.305863) " x="131.228418" y="220.805863" width="33" height="55" rx="16.5"></rect>
        </g>
    </g>
</svg>