<?xml version="1.0" encoding="UTF-8" standalone="no"?>
<svg width="368px" height="410px" viewBox="0 0 368 410" version="1.1" xmlns="http://www.w3.org/2000/svg" xmlns:xlink="http://www.w3.org/1999/xlink">
    <!-- Generator: Sketch 41 (35326) - http://www.bohemiancoding.com/sketch -->
    <title>balloons (1)</title>
    <desc>Created with Sketch.</desc>
    <defs>
        <filter x="-50%" y="-50%" width="200%" height="200%" filterUnits="objectBoundingBox" id="filter-1">
            <feOffset dx="0" dy="0" in="SourceAlpha" result="shadowOffsetOuter1"></feOffset>
            <feGaussianBlur stdDeviation="20" in="shadowOffsetOuter1" result="shadowBlurOuter1"></feGaussianBlur>
            <feColorMatrix values="0 0 0 0 0.243137255   0 0 0 0 0.290196078   0 0 0 0 0.419607843  0 0 0 1 0" type="matrix" in="shadowBlurOuter1" result="shadowMatrixOuter1"></feColorMatrix>
            <feMerge>
                <feMergeNode in="shadowMatrixOuter1"></feMergeNode>
                <feMergeNode in="SourceGraphic"></feMergeNode>
            </feMerge>
        </filter>
    </defs>
    <g id="Page-1" stroke="none" stroke-width="1" fill="none" fill-rule="evenodd">
        <g id="Planning-Copy-4" transform="translate(-613.000000, -2004.000000)" fill="#FFFFFF">
            <g id="Group-12" transform="translate(-216.000000, 1537.000000)">
                <g id="Group-Copy" filter="url(#filter-1)" transform="translate(809.000000, 338.000000)">
                    <g id="balloons-(1)" transform="translate(57.000000, 166.000000)">
                        <g id="Group">
                            <path d="M40.741785,132.963876 C39.787755,130.076691 36.66915,128.509069 33.77913,129.461678 C30.88764,130.414288 29.31768,133.526781 30.27171,136.413966 C37.937025,159.611987 51.433095,179.11406 67.29807,189.920086 C68.248425,190.567391 69.32961,190.877833 70.399035,190.877833 C72.160095,190.877833 73.89102,190.036777 74.95824,188.475026 C76.672995,185.962133 76.02546,182.53773 73.51029,180.824794 C59.810625,171.494652 47.561115,153.602034 40.741785,132.963876 Z" id="Shape" fill-opacity="0.1"></path>
                            <path d="M266.00385,89.8931588 C249.22086,73.5718326 225.706005,64.583691 199.79064,64.583691 C194.32371,64.583691 188.919255,64.9888069 183.66474,65.7770215 C179.289285,49.916588 171.37407,36.2116352 160.16385,25.3094678 C143.38086,8.98814163 119.866005,0 93.95064,0 C68.035275,0 44.52042,8.98814163 27.73743,25.3094678 C9.746835,42.8050429 0.237405,67.5178455 0.237405,96.7757253 C0.237405,126.573026 10.017315,157.588609 27.07005,181.869876 C41.60688,202.570416 59.543085,215.890069 78.697185,220.52982 C77.4102,222.942167 76.677405,225.692112 76.677405,228.610854 L76.677405,240.353343 C76.677405,243.39318 79.145535,245.857635 82.189905,245.857635 L88.11033,245.857635 C87.661245,249.243142 86.79909,251.538798 85.848735,254.069305 C84.30597,258.174773 82.557405,262.829202 82.557405,271.652215 C82.557405,280.480365 84.305235,285.136262 85.848,289.244665 C87.237885,292.945017 88.437405,296.140442 88.437405,302.973103 C88.437405,309.805764 87.237885,313.001189 85.848,316.701541 C84.305235,320.809944 82.557405,325.465841 82.557405,334.293991 C82.557405,337.333828 85.025535,339.798283 88.069905,339.798283 C91.114275,339.798283 93.582405,337.333828 93.582405,334.293991 C93.582405,327.462064 94.781925,324.266639 96.171075,320.566288 C97.71384,316.457884 99.462405,311.801987 99.462405,302.973837 C99.462405,294.145687 97.71384,289.489056 96.171075,285.381386 C94.781925,281.681034 93.582405,278.485609 93.582405,271.653682 C93.582405,264.827627 94.781925,261.634403 96.171075,257.937721 C97.355895,254.784129 98.65905,251.299545 99.20148,245.859103 L105.709905,245.859103 C108.754275,245.859103 111.222405,243.394648 111.222405,240.354811 L111.222405,228.612322 C111.222405,225.693579 110.48961,222.943635 109.202625,220.531288 C111.982395,219.858296 114.73644,219.002562 117.45888,217.967021 C131.94279,253.530618 157.05627,278.284519 184.557765,285.074614 C183.25755,287.496502 182.517405,290.261124 182.517405,293.196747 L182.517405,304.939236 C182.517405,307.979073 184.985535,310.443528 188.029905,310.443528 L193.95033,310.443528 C193.501245,313.829034 192.63909,316.124691 191.688735,318.655197 C190.14597,322.760665 188.397405,327.415094 188.397405,336.238107 C188.397405,339.277944 190.865535,341.742399 193.909905,341.742399 C196.954275,341.742399 199.422405,339.277944 199.422405,336.238107 C199.422405,329.412052 200.621925,326.218828 202.011075,322.522146 C203.195895,319.368554 204.49905,315.88397 205.04148,310.443528 L211.549905,310.443528 C214.594275,310.443528 217.062405,307.979073 217.062405,304.939236 L217.062405,293.196747 C217.062405,290.278004 216.32961,287.52806 215.042625,285.115712 C234.196725,280.475961 252.13293,267.155575 266.66976,246.455768 C283.72176,222.174502 293.50167,191.158918 293.50167,161.361618 C293.50314,132.101536 283.99371,107.388734 266.00385,89.8931588 L266.00385,89.8931588 Z M36.09732,175.549481 C20.314665,153.075824 11.26314,124.36397 11.26314,96.7757253 C11.26314,70.5562146 19.62009,48.5706052 35.42994,33.1960172 C50.142435,18.887794 70.925295,11.0085837 93.95064,11.0085837 C116.975985,11.0085837 137.75958,18.887794 152.47134,33.1952833 C168.28119,48.5706052 176.63814,70.5562146 176.63814,96.7749914 C176.63814,124.36397 167.586615,153.075824 151.80396,175.548747 C135.58398,198.645489 115.038525,211.364807 93.95064,211.364807 C72.862755,211.364807 52.316565,198.645489 36.09732,175.549481 L36.09732,175.549481 Z M100.19814,228.611588 L100.19814,234.849785 L87.70314,234.849785 L87.70314,228.611588 C87.70314,225.171773 90.505695,222.373391 93.95064,222.373391 C97.395585,222.373391 100.19814,225.171773 100.19814,228.611588 Z M206.03814,293.195279 L206.03814,299.433476 L193.54314,299.433476 L193.54314,293.195279 C193.54314,289.755464 196.345695,286.957082 199.79064,286.957082 C203.235585,286.957082 206.03814,289.755464 206.03814,293.195279 Z M199.79064,275.948498 C184.92747,275.948498 170.053275,269.480588 156.776235,257.244914 C144.844245,246.248807 134.513085,230.725236 127.461495,213.279567 C131.051235,211.267197 134.566005,208.93191 137.98743,206.281777 C137.98743,206.281777 146.891955,198.459811 146.891955,198.459811 C151.80396,193.613099 156.471945,188.077249 160.83123,181.869876 C177.88323,157.588609 187.66314,126.573026 187.66314,96.7757253 C187.66314,89.7588541 187.11042,83.0076567 186.030705,76.5500215 C190.51347,75.9137253 195.124125,75.5922747 199.79064,75.5922747 C222.815985,75.5922747 243.59958,83.471485 258.31134,97.7789742 C274.12119,113.154296 282.47814,135.139906 282.47814,161.358682 C282.47814,188.948395 273.426615,217.660249 257.64396,240.133172 C241.42398,263.22918 220.878525,275.948498 199.79064,275.948498 Z" id="Shape" fill-opacity="0.25"></path>
                        </g>
                    </g>
                </g>
            </g>
        </g>
    </g>
</svg>