<?xml version="1.0" encoding="UTF-8" standalone="no"?>
<svg width="274px" height="280px" viewBox="0 0 274 280" version="1.1" xmlns="http://www.w3.org/2000/svg" xmlns:xlink="http://www.w3.org/1999/xlink">
    <!-- Generator: Sketch 41 (35326) - http://www.bohemiancoding.com/sketch -->
    <title>folded-newspaper</title>
    <desc>Created with Sketch.</desc>
    <defs></defs>
    <g id="Page-1" stroke="none" stroke-width="1" fill="none" fill-rule="evenodd" fill-opacity="0.2">
        <g id="Planning-Copy-4" transform="translate(-1061.000000, -2135.000000)" fill="#FFFFFF">
            <g id="Group-12" transform="translate(-216.000000, 1537.000000)">
                <g id="Group-Copy-2" transform="translate(1201.000000, 378.000000)">
                    <g id="folded-newspaper" transform="translate(76.000000, 220.000000)">
                        <g id="Capa_1">
                            <path d="M426.466551,35.8436189 L383.987439,35.8436189 L383.987439,5.06142973 C383.987439,2.62041892 382.010844,0.642510811 379.571455,0.642510811 L4.41598361,0.642510811 C1.97659426,0.642510811 0,2.62041892 0,5.06142973 L0,297.488692 C0,313.342005 12.8902561,326.24083 28.7330389,326.24083 L403.018561,326.24083 C418.382652,326.24083 430.882535,313.733522 430.882535,298.359219 L430.882535,40.2625378 C430.882535,37.821527 428.905941,35.8436189 426.466551,35.8436189 Z M422.050568,298.359219 C422.050568,308.860338 413.512705,317.402992 403.018561,317.402992 C392.524418,317.402992 383.987439,308.860338 383.987439,298.359219 L383.987439,286.121465 C383.987439,283.680454 382.010844,281.702546 379.571455,281.702546 C377.132066,281.702546 375.155471,283.680454 375.155471,286.121465 L375.155471,298.359219 C375.155471,305.717603 378.024094,312.414916 382.694439,317.402992 L28.7330389,317.402992 C17.7593197,317.402992 8.83196721,308.468822 8.83196721,297.487808 L8.83196721,9.48034865 L375.156355,9.48034865 L375.156355,244.852297 C375.156355,247.293308 377.132949,249.271216 379.572338,249.271216 C382.011727,249.271216 383.988322,247.293308 383.988322,244.852297 L383.988322,44.6814568 L422.051451,44.6814568 L422.051451,298.359219 L422.050568,298.359219 Z M180.270166,42.3063108 L39.5866434,42.3063108 C37.1472541,42.3063108 35.1706598,44.2842189 35.1706598,46.7252297 L35.1706598,152.302924 C35.1706598,154.743935 37.1472541,156.721843 39.5866434,156.721843 L180.270166,156.721843 C182.709555,156.721843 184.68615,154.743935 184.68615,152.302924 L184.68615,46.7252297 C184.68615,44.2851027 182.709555,42.3063108 180.270166,42.3063108 Z M175.854182,147.884005 L44.002627,147.884005 L44.002627,51.1441486 L175.854182,51.1441486 L175.854182,147.884005 Z M214.301289,46.7252297 C214.301289,44.2842189 216.277883,42.3063108 218.717273,42.3063108 L359.400795,42.3063108 C361.840184,42.3063108 363.816779,44.2842189 363.816779,46.7252297 C363.816779,49.1662405 361.840184,51.1441486 359.400795,51.1441486 L218.717273,51.1441486 C216.277883,51.1441486 214.301289,49.1662405 214.301289,46.7252297 Z M214.301289,81.9281054 C214.301289,79.4870946 216.277883,77.5091865 218.717273,77.5091865 L359.400795,77.5091865 C361.840184,77.5091865 363.816779,79.4870946 363.816779,81.9281054 C363.816779,84.3691162 361.840184,86.3470243 359.400795,86.3470243 L218.717273,86.3470243 C216.277883,86.3470243 214.301289,84.3682324 214.301289,81.9281054 Z M214.301289,117.130097 C214.301289,114.689086 216.277883,112.711178 218.717273,112.711178 L359.400795,112.711178 C361.840184,112.711178 363.816779,114.689086 363.816779,117.130097 C363.816779,119.571108 361.840184,121.549016 359.400795,121.549016 L218.717273,121.549016 C216.277883,121.549016 214.301289,119.570224 214.301289,117.130097 Z M218.717273,156.750124 C216.277883,156.750124 214.301289,154.772216 214.301289,152.331205 C214.301289,149.890195 216.277883,147.912286 218.717273,147.912286 L359.400795,147.912286 C361.840184,147.912286 363.816779,149.890195 363.816779,152.331205 C363.816779,154.772216 361.840184,156.750124 359.400795,156.750124 L218.717273,156.750124 Z M184.68615,187.533197 C184.68615,189.974208 182.709555,191.952116 180.270166,191.952116 L39.5866434,191.952116 C37.1472541,191.952116 35.1706598,189.974208 35.1706598,187.533197 C35.1706598,185.092186 37.1472541,183.114278 39.5866434,183.114278 L180.270166,183.114278 C182.709555,183.114278 184.68615,185.092186 184.68615,187.533197 Z M184.68615,222.707792 C184.68615,225.148803 182.709555,227.126711 180.270166,227.126711 L39.5866434,227.126711 C37.1472541,227.126711 35.1706598,225.148803 35.1706598,222.707792 C35.1706598,220.266781 37.1472541,218.288873 39.5866434,218.288873 L180.270166,218.288873 C182.709555,218.288873 184.68615,220.266781 184.68615,222.707792 Z M184.68615,257.881503 C184.68615,260.322514 182.709555,262.300422 180.270166,262.300422 L39.5866434,262.300422 C37.1472541,262.300422 35.1706598,260.322514 35.1706598,257.881503 C35.1706598,255.440492 37.1472541,253.462584 39.5866434,253.462584 L180.270166,253.462584 C182.709555,253.462584 184.68615,255.441376 184.68615,257.881503 Z M365.492203,187.533197 C365.492203,189.974208 363.515609,191.952116 361.076219,191.952116 L220.392697,191.952116 C217.953307,191.952116 215.976713,189.974208 215.976713,187.533197 C215.976713,185.092186 217.953307,183.114278 220.392697,183.114278 L361.076219,183.114278 C363.514725,183.114278 365.492203,185.092186 365.492203,187.533197 Z M365.492203,222.707792 C365.492203,225.148803 363.515609,227.126711 361.076219,227.126711 L220.392697,227.126711 C217.953307,227.126711 215.976713,225.148803 215.976713,222.707792 C215.976713,220.266781 217.953307,218.288873 220.392697,218.288873 L361.076219,218.288873 C363.514725,218.288873 365.492203,220.266781 365.492203,222.707792 Z M365.492203,257.881503 C365.492203,260.322514 363.515609,262.300422 361.076219,262.300422 L220.392697,262.300422 C217.953307,262.300422 215.976713,260.322514 215.976713,257.881503 C215.976713,255.440492 217.953307,253.462584 220.392697,253.462584 L361.076219,253.462584 C363.514725,253.462584 365.492203,255.441376 365.492203,257.881503 Z" id="Shape"></path>
                        </g>
                    </g>
                </g>
            </g>
        </g>
    </g>
</svg>