<?xml version="1.0" encoding="UTF-8" standalone="no"?>
<svg width="295px" height="275px" viewBox="0 0 295 275" version="1.1" xmlns="http://www.w3.org/2000/svg" xmlns:xlink="http://www.w3.org/1999/xlink">
    <!-- Generator: Sketch 41 (35326) - http://www.bohemiancoding.com/sketch -->
    <title>users</title>
    <desc>Created with Sketch.</desc>
    <defs></defs>
    <g id="Page-1" stroke="none" stroke-width="1" fill="none" fill-rule="evenodd" fill-opacity="0.2">
        <g id="Planning-Copy-4" transform="translate(-265.000000, -2140.000000)" fill="#FFFFFF">
            <g id="Group-12" transform="translate(-216.000000, 1537.000000)">
                <g id="Group" transform="translate(481.000000, 378.000000)">
                    <g id="users" transform="translate(-35.000000, 225.000000)">
                        <g id="Capa_1">
                            <path d="M305.3435,242.613747 L251.592,219.309548 C250.327,218.676431 248.9245,217.129425 247.72,215.064914 L283.6075,215.037387 C284.2345,215.097946 299.0295,216.452265 310.893,211.348794 C315.3865,209.410907 318.7305,205.58468 320.0725,200.850068 C321.4255,196.071414 320.5675,191.011986 317.7295,186.960039 C307.472,172.348807 283.5305,134.169119 282.7825,95.4444006 C282.766,94.7782517 280.599,28.9231073 215.6275,28.3890872 C206.063,28.4661622 197.219,30.0902441 189.1725,33.0851612 C187.418,28.6093016 184.833,23.9407544 180.9885,19.5474752 C169.697,6.64290587 151.3655,0.102535402 126.5,0.102535402 C101.6345,0.102535402 83.303,6.64290587 72.006,19.5364645 C58.982,34.4064482 60.192,52.4365099 60.5,55.4589538 L60.5,84.7419762 C56.98,88.7553853 55,93.8918884 55,99.1935523 L55,121.215002 C55,127.915028 58.0415,134.163614 63.2335,138.331173 C68.2715,158.299123 78.815,173.345278 82.5,178.173481 L82.5,196.390725 C82.5,201.719915 79.596,206.608677 74.9265,209.163165 L25.861,235.952258 C9.9055,244.672752 0,261.376022 0,279.565739 L0,302.897465 L242,302.897465 L253,302.897465 L330,302.897465 L330,282.54414 C330,265.52156 320.551,250.227663 305.3435,242.613747 Z M242,291.88674 L11,291.88674 L11,279.565739 C11,265.411452 18.711,252.402281 31.1245,245.630685 L80.19,218.841592 C88.4015,214.354722 93.5,205.749841 93.5,196.39623 L93.5,174.270179 L92.2185,172.739688 C92.0865,172.580032 78.606,156.256633 73.4635,133.844303 L72.963,131.664179 L71.0875,130.453 C67.903,128.393994 66,124.942132 66,121.220507 L66,99.1990577 C66,96.1105494 67.309,93.2312449 69.685,91.0786482 L71.5,89.4435556 L71.5,55.1561589 L71.4505,54.4349564 C71.434,54.2863116 69.564,39.0254472 80.278,26.7925321 C89.3915,16.3873972 104.9455,11.1132601 126.5,11.1132601 C147.9775,11.1132601 163.4985,16.3488597 172.623,26.6824248 C177.1605,31.8134225 179.443,37.5445047 180.5815,42.4662987 C180.6695,42.851674 180.752,43.231544 180.829,43.611414 C180.906,44.0022948 180.9885,44.3931755 181.049,44.7675401 C181.1205,45.1969584 181.181,45.6043552 181.2415,46.011752 C181.2855,46.3035362 181.3295,46.6008258 181.3625,46.8815993 C181.445,47.5642642 181.511,48.2249077 181.555,48.8360029 C181.5605,48.8855512 181.5605,48.9295941 181.5605,48.9791423 C181.599,49.5737215 181.6265,50.1352684 181.643,50.6472671 C181.643,50.7463637 181.643,50.8289441 181.6485,50.9280406 C181.6595,51.3849857 181.6595,51.8199093 181.654,52.1997793 L181.654,52.3649402 C181.632,53.6587003 181.544,54.4294511 181.544,54.4459671 L181.5,89.4435556 L183.315,91.0841536 C185.691,93.2312449 187,96.1105494 187,99.1990577 L187,121.220507 C187,126.026688 183.854,130.232785 179.179,131.67519 L176.44,132.517511 L175.56,135.242665 C171.8805,146.699324 166.639,157.28063 159.973,166.6948 C158.3395,169.012558 156.75,171.066058 155.3695,172.635086 L154,174.198609 L154,196.908229 C154,198.301085 154.1375,199.666415 154.352,201.009724 C154.396,201.296002 154.473,201.571271 154.528,201.857549 C154.7425,202.964127 155.0285,204.048684 155.3805,205.105713 C155.463,205.353454 155.551,205.590185 155.6445,205.837926 C156.0735,206.988547 156.574,208.10063 157.157,209.168671 C157.223,209.289789 157.2835,209.416412 157.3495,209.53753 C158.147,210.946903 159.0655,212.284706 160.1215,213.517907 L161.3755,215.064914 L161.59,215.064914 C163.4765,216.925726 165.6435,218.544303 168.1075,219.777504 L220.649,246.071114 C233.8215,252.655528 242,265.90143 242,280.639285 L242,291.88674 Z M319,291.463773 L253,291.463773 L253,280.216318 C253,261.283377 242.4895,244.266302 225.577,235.799055 L187.858,216.915662 C188.7875,214.790592 188.9085,212.357222 188.0945,210.011938 C186.747,206.130657 183.227,203.625717 179.1295,203.625717 L166.936,203.625717 C166.683,203.179783 166.518,202.689806 166.3145,202.216344 C166.0395,201.583228 165.715,200.961122 165.5335,200.294973 C165.198,199.072783 165,197.795538 165,196.485262 L165,177.871632 C166.2595,176.330131 167.585,174.57392 168.9545,172.636033 C175.769,163.001648 181.2305,152.277203 185.2015,140.710436 C192.962,137.148467 198,129.468486 198,120.797541 L198,98.7760913 C198,93.4744273 196.02,88.3379243 192.5,84.3245151 L192.5,55.0414928 C192.643,53.6651522 192.951,49.1562604 192.038,43.2655227 C199.122,40.4798094 207.0585,39.0429098 215.633,38.9713401 C269.7585,39.4172744 271.733,92.9844501 271.788,95.2416486 C272.5965,136.988811 297.891,177.420192 308.7315,192.862734 C309.661,194.184021 309.9415,195.84664 309.496,197.415668 C309.243,198.318548 308.517,199.959146 306.5535,200.801466 C297.3135,204.781843 284.779,203.653244 284.1355,203.625717 L246.279,203.625717 C242.7425,203.625717 239.5195,205.425971 237.655,208.437404 C235.796,211.437826 235.62,215.104398 237.182,218.253465 C238.9035,221.727349 241.945,226.368369 246.9445,228.862298 L300.553,252.105938 C311.9325,257.859042 319,269.343228 319,282.121174 L319,291.463773 Z" id="Shape"></path>
                        </g>
                    </g>
                </g>
            </g>
        </g>
    </g>
</svg>