<?xml version="1.0" encoding="UTF-8" standalone="no"?>
<svg width="136px" height="203px" viewBox="0 0 136 203" version="1.1" xmlns="http://www.w3.org/2000/svg" xmlns:xlink="http://www.w3.org/1999/xlink">
    <!-- Generator: Sketch 3.8.3 (29802) - http://www.bohemiancoding.com/sketch -->
    <title>Group 10 Copy 2</title>
    <desc>Created with Sketch.</desc>
    <defs>
        <rect id="path-1" x="0" y="0" width="135.789429" height="202.549488"></rect>
        <mask id="mask-2" maskContentUnits="userSpaceOnUse" maskUnits="objectBoundingBox" x="0" y="0" width="135.789429" height="202.549488" fill="white">
            <use xlink:href="#path-1"></use>
        </mask>
        <rect id="path-3" x="0" y="-1.13686838e-13" width="122.421558" height="46.2849855"></rect>
        <mask id="mask-4" maskContentUnits="userSpaceOnUse" maskUnits="objectBoundingBox" x="0" y="0" width="122.421558" height="46.2849855" fill="white">
            <use xlink:href="#path-3"></use>
        </mask>
        <rect id="path-5" x="54.1750571" y="5.31277346" width="61.2107788" height="0.664096683"></rect>
        <mask id="mask-6" maskContentUnits="userSpaceOnUse" maskUnits="objectBoundingBox" x="0" y="0" width="61.2107788" height="0.664096683" fill="white">
            <use xlink:href="#path-5"></use>
        </mask>
        <rect id="path-7" x="54.1750571" y="9.96145024" width="61.2107788" height="0.664096683"></rect>
        <mask id="mask-8" maskContentUnits="userSpaceOnUse" maskUnits="objectBoundingBox" x="0" y="0" width="61.2107788" height="0.664096683" fill="white">
            <use xlink:href="#path-7"></use>
        </mask>
        <rect id="path-9" x="54.1750571" y="14.610127" width="61.2107788" height="0.664096683"></rect>
        <mask id="mask-10" maskContentUnits="userSpaceOnUse" maskUnits="objectBoundingBox" x="0" y="0" width="61.2107788" height="0.664096683" fill="white">
            <use xlink:href="#path-9"></use>
        </mask>
        <rect id="path-11" x="54.1750571" y="19.2588038" width="61.2107788" height="0.664096683"></rect>
        <mask id="mask-12" maskContentUnits="userSpaceOnUse" maskUnits="objectBoundingBox" x="0" y="0" width="61.2107788" height="0.664096683" fill="white">
            <use xlink:href="#path-11"></use>
        </mask>
        <rect id="path-13" x="54.1750571" y="23.9074806" width="61.2107788" height="0.664096683"></rect>
        <mask id="mask-14" maskContentUnits="userSpaceOnUse" maskUnits="objectBoundingBox" x="0" y="0" width="61.2107788" height="0.664096683" fill="white">
            <use xlink:href="#path-13"></use>
        </mask>
        <rect id="path-15" x="77.3929387" y="33.2048341" width="21.8107373" height="0.664096683"></rect>
        <mask id="mask-16" maskContentUnits="userSpaceOnUse" maskUnits="objectBoundingBox" x="0" y="0" width="21.8107373" height="0.664096683" fill="white">
            <use xlink:href="#path-15"></use>
        </mask>
        <rect id="path-17" x="83.7250882" y="36.5253175" width="15.4785877" height="0.664096683"></rect>
        <mask id="mask-18" maskContentUnits="userSpaceOnUse" maskUnits="objectBoundingBox" x="0" y="0" width="15.4785877" height="0.664096683" fill="white">
            <use xlink:href="#path-17"></use>
        </mask>
        <rect id="path-19" x="0" y="-1.13686838e-13" width="47.8429075" height="46.2849855"></rect>
        <mask id="mask-20" maskContentUnits="userSpaceOnUse" maskUnits="objectBoundingBox" x="0" y="0" width="47.8429075" height="46.2849855" fill="white">
            <use xlink:href="#path-19"></use>
        </mask>
        <rect id="path-21" x="0" y="0" width="122.421558" height="46.2849855"></rect>
        <mask id="mask-22" maskContentUnits="userSpaceOnUse" maskUnits="objectBoundingBox" x="0" y="0" width="122.421558" height="46.2849855" fill="white">
            <use xlink:href="#path-21"></use>
        </mask>
        <rect id="path-23" x="54.1750571" y="5.31277346" width="61.2107788" height="0.664096683"></rect>
        <mask id="mask-24" maskContentUnits="userSpaceOnUse" maskUnits="objectBoundingBox" x="0" y="0" width="61.2107788" height="0.664096683" fill="white">
            <use xlink:href="#path-23"></use>
        </mask>
        <rect id="path-25" x="54.1750571" y="9.96145024" width="61.2107788" height="0.664096683"></rect>
        <mask id="mask-26" maskContentUnits="userSpaceOnUse" maskUnits="objectBoundingBox" x="0" y="0" width="61.2107788" height="0.664096683" fill="white">
            <use xlink:href="#path-25"></use>
        </mask>
        <rect id="path-27" x="54.1750571" y="14.610127" width="61.2107788" height="0.664096683"></rect>
        <mask id="mask-28" maskContentUnits="userSpaceOnUse" maskUnits="objectBoundingBox" x="0" y="0" width="61.2107788" height="0.664096683" fill="white">
            <use xlink:href="#path-27"></use>
        </mask>
        <rect id="path-29" x="54.1750571" y="19.2588038" width="61.2107788" height="0.664096683"></rect>
        <mask id="mask-30" maskContentUnits="userSpaceOnUse" maskUnits="objectBoundingBox" x="0" y="0" width="61.2107788" height="0.664096683" fill="white">
            <use xlink:href="#path-29"></use>
        </mask>
        <rect id="path-31" x="54.1750571" y="23.9074806" width="61.2107788" height="0.664096683"></rect>
        <mask id="mask-32" maskContentUnits="userSpaceOnUse" maskUnits="objectBoundingBox" x="0" y="0" width="61.2107788" height="0.664096683" fill="white">
            <use xlink:href="#path-31"></use>
        </mask>
        <rect id="path-33" x="77.3929387" y="33.2048341" width="21.8107373" height="0.664096683"></rect>
        <mask id="mask-34" maskContentUnits="userSpaceOnUse" maskUnits="objectBoundingBox" x="0" y="0" width="21.8107373" height="0.664096683" fill="white">
            <use xlink:href="#path-33"></use>
        </mask>
        <rect id="path-35" x="83.7250882" y="36.5253175" width="15.4785877" height="0.664096683"></rect>
        <mask id="mask-36" maskContentUnits="userSpaceOnUse" maskUnits="objectBoundingBox" x="0" y="0" width="15.4785877" height="0.664096683" fill="white">
            <use xlink:href="#path-35"></use>
        </mask>
        <rect id="path-37" x="0" y="0" width="47.8429075" height="46.2849855"></rect>
        <mask id="mask-38" maskContentUnits="userSpaceOnUse" maskUnits="objectBoundingBox" x="0" y="0" width="47.8429075" height="46.2849855" fill="white">
            <use xlink:href="#path-37"></use>
        </mask>
        <rect id="path-39" x="0" y="0" width="135.789429" height="13.9460303"></rect>
        <mask id="mask-40" maskContentUnits="userSpaceOnUse" maskUnits="objectBoundingBox" x="0" y="0" width="135.789429" height="13.9460303" fill="white">
            <use xlink:href="#path-39"></use>
        </mask>
        <rect id="path-41" x="56.9893457" y="6.64096683" width="13.3678712" height="1.0279823"></rect>
        <mask id="mask-42" maskContentUnits="userSpaceOnUse" maskUnits="objectBoundingBox" x="0" y="0" width="13.3678712" height="1.0279823" fill="white">
            <use xlink:href="#path-41"></use>
        </mask>
        <rect id="path-43" x="76.6893665" y="6.64096683" width="13.3678712" height="1.0279823"></rect>
        <mask id="mask-44" maskContentUnits="userSpaceOnUse" maskUnits="objectBoundingBox" x="0" y="0" width="13.3678712" height="1.0279823" fill="white">
            <use xlink:href="#path-43"></use>
        </mask>
        <rect id="path-45" x="96.3893872" y="6.64096683" width="13.3678712" height="1.0279823"></rect>
        <mask id="mask-46" maskContentUnits="userSpaceOnUse" maskUnits="objectBoundingBox" x="0" y="0" width="13.3678712" height="1.0279823" fill="white">
            <use xlink:href="#path-45"></use>
        </mask>
        <rect id="path-47" x="116.089408" y="6.64096683" width="13.3678712" height="1.0279823"></rect>
        <mask id="mask-48" maskContentUnits="userSpaceOnUse" maskUnits="objectBoundingBox" x="0" y="0" width="13.3678712" height="1.0279823" fill="white">
            <use xlink:href="#path-47"></use>
        </mask>
        <rect id="path-49" x="0" y="0" width="122.421558" height="46.2849855"></rect>
        <mask id="mask-50" maskContentUnits="userSpaceOnUse" maskUnits="objectBoundingBox" x="0" y="0" width="122.421558" height="46.2849855" fill="white">
            <use xlink:href="#path-49"></use>
        </mask>
        <rect id="path-51" x="35.1786085" y="9.96145024" width="52.4033052" height="0.664096683"></rect>
        <mask id="mask-52" maskContentUnits="userSpaceOnUse" maskUnits="objectBoundingBox" x="0" y="0" width="52.4033052" height="0.664096683" fill="white">
            <use xlink:href="#path-51"></use>
        </mask>
        <rect id="path-53" x="29.5500311" y="14.610127" width="62.9568878" height="0.664096683"></rect>
        <mask id="mask-54" maskContentUnits="userSpaceOnUse" maskUnits="objectBoundingBox" x="0" y="0" width="62.9568878" height="0.664096683" fill="white">
            <use xlink:href="#path-53"></use>
        </mask>
        <rect id="path-55" x="28.1428868" y="19.2588038" width="66.4747486" height="0.664096683"></rect>
        <mask id="mask-56" maskContentUnits="userSpaceOnUse" maskUnits="objectBoundingBox" x="0" y="0" width="66.4747486" height="0.664096683" fill="white">
            <use xlink:href="#path-55"></use>
        </mask>
        <rect id="path-57" x="38.6964693" y="23.9074806" width="44.6640114" height="0.664096683"></rect>
        <mask id="mask-58" maskContentUnits="userSpaceOnUse" maskUnits="objectBoundingBox" x="0" y="0" width="44.6640114" height="0.664096683" fill="white">
            <use xlink:href="#path-57"></use>
        </mask>
    </defs>
    <g id="Welcome" stroke="none" stroke-width="1" fill="none" fill-rule="evenodd">
        <g id="Artboard-3-Copy" transform="translate(-458.000000, -577.000000)">
            <g id="Group-10-Copy-2" transform="translate(458.000000, 577.000000)">
                <use id="Rectangle-13-Copy-4" stroke="#FFFFFF" mask="url(#mask-2)" stroke-width="2" xlink:href="#path-1"></use>
                <g id="Group-7" transform="translate(6.332150, 21.251094)" stroke="#FFFFFF">
                    <use id="Rectangle-178" mask="url(#mask-4)" stroke-width="2" xlink:href="#path-3"></use>
                    <use id="Rectangle-182" mask="url(#mask-6)" stroke-width="2" xlink:href="#path-5"></use>
                    <use id="Rectangle-182-Copy" mask="url(#mask-8)" stroke-width="2" xlink:href="#path-7"></use>
                    <use id="Rectangle-182-Copy-2" mask="url(#mask-10)" stroke-width="2" xlink:href="#path-9"></use>
                    <use id="Rectangle-182-Copy-3" mask="url(#mask-12)" stroke-width="2" xlink:href="#path-11"></use>
                    <use id="Rectangle-182-Copy-4" mask="url(#mask-14)" stroke-width="2" xlink:href="#path-13"></use>
                    <use id="Rectangle-182-Copy-10" mask="url(#mask-16)" stroke-width="2" xlink:href="#path-15"></use>
                    <use id="Rectangle-182-Copy-11" mask="url(#mask-18)" stroke-width="2" xlink:href="#path-17"></use>
                    <ellipse id="Oval-9" cx="109.053686" cy="35.1971242" rx="5.62857736" ry="5.31277346"></ellipse>
                    <use id="Rectangle-179" mask="url(#mask-20)" stroke-width="2" xlink:href="#path-19"></use>
                </g>
                <g id="Group-7-Copy-2" transform="translate(6.332150, 127.506563)" stroke="#FFFFFF">
                    <use id="Rectangle-178" mask="url(#mask-22)" stroke-width="2" xlink:href="#path-21"></use>
                    <use id="Rectangle-182" mask="url(#mask-24)" stroke-width="2" xlink:href="#path-23"></use>
                    <use id="Rectangle-182-Copy" mask="url(#mask-26)" stroke-width="2" xlink:href="#path-25"></use>
                    <use id="Rectangle-182-Copy-2" mask="url(#mask-28)" stroke-width="2" xlink:href="#path-27"></use>
                    <use id="Rectangle-182-Copy-3" mask="url(#mask-30)" stroke-width="2" xlink:href="#path-29"></use>
                    <use id="Rectangle-182-Copy-4" mask="url(#mask-32)" stroke-width="2" xlink:href="#path-31"></use>
                    <use id="Rectangle-182-Copy-10" mask="url(#mask-34)" stroke-width="2" xlink:href="#path-33"></use>
                    <use id="Rectangle-182-Copy-11" mask="url(#mask-36)" stroke-width="2" xlink:href="#path-35"></use>
                    <ellipse id="Oval-9" cx="109.053686" cy="35.1971242" rx="5.62857736" ry="5.31277346"></ellipse>
                    <use id="Rectangle-179" mask="url(#mask-38)" stroke-width="2" xlink:href="#path-37"></use>
                </g>
                <g id="Group-4" stroke="#FFFFFF">
                    <use id="Rectangle-171-Copy" mask="url(#mask-40)" stroke-width="2" xlink:href="#path-39"></use>
                    <use id="Rectangle-173" mask="url(#mask-42)" stroke-width="2" fill="#979797" xlink:href="#path-41"></use>
                    <use id="Rectangle-173-Copy" mask="url(#mask-44)" stroke-width="2" fill="#979797" xlink:href="#path-43"></use>
                    <use id="Rectangle-173-Copy-2" mask="url(#mask-46)" stroke-width="2" fill="#979797" xlink:href="#path-45"></use>
                    <use id="Rectangle-173-Copy-3" mask="url(#mask-48)" stroke-width="2" fill="#979797" xlink:href="#path-47"></use>
                    <ellipse id="Oval-5-Copy-3" cx="8.09107995" cy="6.97301517" rx="4.5732191" ry="4.31662844"></ellipse>
                </g>
                <g id="Group-7-Copy" transform="translate(7.035722, 75.042925)" stroke="#FFFFFF">
                    <use id="Rectangle-178" mask="url(#mask-50)" stroke-width="2" xlink:href="#path-49"></use>
                    <use id="Rectangle-182-Copy" mask="url(#mask-52)" stroke-width="2" xlink:href="#path-51"></use>
                    <use id="Rectangle-182-Copy-2" mask="url(#mask-54)" stroke-width="2" xlink:href="#path-53"></use>
                    <use id="Rectangle-182-Copy-3" mask="url(#mask-56)" stroke-width="2" xlink:href="#path-55"></use>
                    <use id="Rectangle-182-Copy-4" mask="url(#mask-58)" stroke-width="2" xlink:href="#path-57"></use>
                    <ellipse id="Oval-9" cx="61.2107788" cy="35.8612209" rx="5.62857736" ry="5.31277346"></ellipse>
                </g>
                <path d="M59.4872018,186.611168 C59.8005244,186.611168 60.0635932,186.711607 60.276416,186.912489 C60.4892389,187.113371 60.5956487,187.36168 60.5956487,187.657423 C60.5956487,187.958746 60.487761,188.216819 60.2719822,188.431652 C60.0562035,188.646484 59.7946126,188.753898 59.4872018,188.753898 C59.1857028,188.753898 58.9285457,188.646484 58.7157228,188.431652 C58.5028999,188.216819 58.3964901,187.958746 58.3964901,187.657423 C58.3964901,187.3561 58.501422,187.106396 58.711289,186.908304 C58.921156,186.710212 59.179791,186.611168 59.4872018,186.611168 L59.4872018,186.611168 Z M67.9300679,186.611168 C68.2433904,186.611168 68.5064592,186.711607 68.7192821,186.912489 C68.9321049,187.113371 69.0385148,187.36168 69.0385148,187.657423 C69.0385148,187.958746 68.930627,188.216819 68.7148483,188.431652 C68.4990695,188.646484 68.2374787,188.753898 67.9300679,188.753898 C67.6285688,188.753898 67.3714117,188.646484 67.1585888,188.431652 C66.945766,188.216819 66.8393561,187.958746 66.8393561,187.657423 C66.8393561,187.3561 66.944288,187.106396 67.154155,186.908304 C67.364022,186.710212 67.6226571,186.611168 67.9300679,186.611168 L67.9300679,186.611168 Z M76.3729339,186.611168 C76.6862565,186.611168 76.9493252,186.711607 77.1621481,186.912489 C77.374971,187.113371 77.4813808,187.36168 77.4813808,187.657423 C77.4813808,187.958746 77.3734931,188.216819 77.1577143,188.431652 C76.9419356,188.646484 76.6803447,188.753898 76.3729339,188.753898 C76.0714348,188.753898 75.8142777,188.646484 75.6014549,188.431652 C75.388632,188.216819 75.2822221,187.958746 75.2822221,187.657423 C75.2822221,187.3561 75.3871541,187.106396 75.5970211,186.908304 C75.8068881,186.710212 76.0655231,186.611168 76.3729339,186.611168 L76.3729339,186.611168 Z" id="..." fill="#FFFFFF"></path>
            </g>
        </g>
    </g>
</svg>