<svg width="159" height="287" viewBox="0 0 159 287" xmlns="http://www.w3.org/2000/svg">
  <g fill="none" fill-rule="evenodd">
    <g transform="translate(8)" fill="#EDEDED">
      <rect width="150.564444" height="283.569283" rx="28"/>
      <path d="M131.38677 282.180617l-8.162319 2.964519 5.702808-16.787657M17.6400515 2L10.019685 4.8297155l11.8065589 12.1252926"/>
    </g>
    <g transform="translate(0 3)">
      <path d="M0 27.9983018C0 12.5352667 12.5458542 0 28.0001714 0h94.5641016c15.464068 0 28.000171 12.5274986 28.000171 27.9983018V255.570982c0 15.463035-12.545854 27.998301-28.000171 27.998301H28.0001714C12.5361038 283.569283 0 271.041785 0 255.570982V27.9983018z" fill="#FFF"/>
      <ellipse fill="#2A2A2A" cx="58.8699841" cy="13.613982" rx="1.78393891" ry="1.66024171"/>
      <rect fill="#2A2A2A" x="66.3625276" y="13.2819337" width="18.5529647" height="1.32819337" rx=".66409668"/>
      <path fill="#2A2A2A" d="M7.13575565 23.9074806h135.579357v231.105646H7.13575565z"/>
      <ellipse stroke="#2A2A2A" cx="75.6390099" cy="268.959156" rx="9.27648235" ry="8.63325687"/>
    </g>
  </g>
</svg>
