<?xml version="1.0" encoding="utf-8"?>
<!-- Generator: Adobe Illustrator 19.0.0, SVG Export Plug-In . SVG Version: 6.00 Build 0)  -->
<svg version="1.1" id="Layer_1" xmlns:sketch="http://www.bohemiancoding.com/sketch/ns"
	 xmlns="http://www.w3.org/2000/svg" xmlns:xlink="http://www.w3.org/1999/xlink" x="0px" y="0px" viewBox="-222 361 166 72"
	 style="enable-background:new -222 361 166 72;" xml:space="preserve">
<style type="text/css">
	.st0{filter:url(#filter-2);}
	.st1{fill:url(#SVGID_1_);}
	.st2{fill:#FFFFFF;}
	.st3{fill:url(#flatbook-copy_1_);}
</style>
<filter  id="filter-2" filterUnits="objectBoundingBox" height="200%" y="-50%" x="-50%" width="200%">
	<feGaussianBlur  result="blur" stdDeviation="7.63039982" in="SourceGraphic"></feGaussianBlur>
</filter>
<g id="Oval-37-Copy-2-_x2B_-Oval-37-Copy-3" sketch:type="MSShapeGroup">
	<g id="Oval-37-Copy-3" class="st0">
		
			<linearGradient id="SVGID_1_" gradientUnits="userSpaceOnUse" x1="-436.0562" y1="781.1838" x2="-436.7046" y2="782.4985" gradientTransform="matrix(30.1637 0 0 -31.1064 12968.6016 24720.877)">
			<stop  offset="0" style="stop-color:#FDA935"/>
			<stop  offset="1" style="stop-color:#FD6B68"/>
		</linearGradient>
		<ellipse class="st1" cx="-196" cy="397" rx="15.1" ry="15.6"/>
	</g>
	<ellipse id="Oval-37-Copy-3_1_" class="st2" cx="-196" cy="397" rx="15.1" ry="15.6"/>
</g>
<linearGradient id="flatbook-copy_1_" gradientUnits="userSpaceOnUse" x1="-440.8494" y1="776.5732" x2="-441.8507" y2="778.3486" gradientTransform="matrix(104.761 0 0 -22.7644 46130.875 18101.3438)">
	<stop  offset="0" style="stop-color:#FDA935"/>
	<stop  offset="1" style="stop-color:#FD6B68"/>
</linearGradient>
<path id="flatbook-copy" sketch:type="MSShapeGroup" class="st3" d="M-155.2,386v21.6c0,0.3-0.1,0.4-0.3,0.4h-1
	c-0.2,0-0.4-0.1-0.6-0.2s-0.2-0.3-0.2-0.6V389c-1.3-1-2.7-1.6-4.2-1.6c-0.9,0-1.8,0.3-2.6,0.9c-0.8,0.6-1.2,1.6-1.2,3v2.9h4.1
	c0.2,0,0.3,0.1,0.3,0.3v1.4c0,0.2-0.1,0.3-0.3,0.3h-4.1v11.5c0,0.3-0.1,0.4-0.3,0.4h-1.1c-0.2,0-0.4-0.1-0.5-0.2
	c-0.1-0.1-0.2-0.3-0.2-0.6v-11h-2.3c-0.2,0-0.3-0.1-0.3-0.3v-1.1c0-0.4,0.2-0.6,0.6-0.6h2v-2.9c0-1.9,0.5-3.3,1.6-4.3
	s2.5-1.5,4.2-1.5c1.4,0,2.8,0.5,4.2,1.4V386c0-0.2,0.1-0.4,0.4-0.4h1.4C-155.3,385.6-155.2,385.7-155.2,386L-155.2,386z
	 M-140.3,402.2l0-1.6c0-0.4,0-0.9,0-1.6c0-1.5-0.4-2.8-1.3-3.7c-0.9-0.9-2.1-1.3-3.7-1.3c-1,0-2.1,0.1-3.1,0.4
	c-1.1,0.3-1.9,0.6-2.7,1c-0.1,0.1-0.2,0.1-0.2,0.2c0,0.1,0,0.2,0,0.3l0.5,1.1c0.1,0.1,0.1,0.2,0.3,0.2c0.1,0,0.1,0,0.3-0.1
	c1-0.4,1.8-0.8,2.6-1c0.8-0.2,1.6-0.3,2.3-0.3c1,0,1.8,0.3,2.3,0.8c0.5,0.5,0.8,1.3,0.7,2.4c-2.3,0.4-4.1,0.8-5.4,1.2
	c-1.3,0.4-2.4,0.9-3.1,1.6c-0.8,0.7-1.1,1.5-1.1,2.6c0,1.1,0.4,2,1.2,2.7s1.9,1,3.3,1c1.1,0,2-0.1,2.8-0.4s1.6-0.7,2.5-1.3
	c0.1,1,0.3,1.6,0.6,1.6h1.2c0.2,0,0.3-0.2,0.3-0.5C-140.2,405.7-140.3,403.9-140.3,402.2L-140.3,402.2z M-149,405.9
	c-0.5-0.3-0.8-0.8-0.8-1.5c0-0.6,0.3-1.2,0.9-1.6c0.6-0.4,1.3-0.8,2.2-1c0.9-0.2,2.1-0.5,3.6-0.8l0.9-0.2c0,0.4,0,1.1,0,2
	c0,0.9,0,1.5,0,1.9c-0.6,0.4-1.4,0.8-2.2,1.1c-0.8,0.3-1.7,0.5-2.5,0.5C-147.9,406.4-148.5,406.3-149,405.9L-149,405.9z
	 M-129.3,407.3c0,0.1-0.1,0.2-0.3,0.3c-0.3,0.1-0.6,0.3-1.1,0.4s-0.9,0.2-1.4,0.2c-1,0-1.7-0.2-2.2-0.6s-0.9-0.9-1.1-1.6
	c-0.2-0.7-0.3-1.7-0.3-2.9v-6.8h-1.7c-0.2,0-0.3-0.1-0.3-0.3v-0.4c0-0.2,0.1-0.3,0.2-0.4c0.6-0.3,1.1-0.6,1.5-1
	c0.4-0.3,0.7-0.8,1-1.4s0.5-1.5,0.7-2.6c0.1-0.2,0.1-0.3,0.3-0.3h0.3c0.1,0,0.2,0,0.2,0.1c0,0,0,0.1,0,0.2v4.1h3.5
	c0.1,0,0.2,0,0.3,0.1c0.1,0.1,0.1,0.2,0.1,0.3v1.3c0,0.1,0,0.2-0.1,0.2c-0.1,0.1-0.2,0.1-0.3,0.1h-2.9c-0.2,0-0.4,0-0.6-0.1v6.6
	c0,0.8,0,1.5,0.1,2s0.2,0.8,0.5,1.1s0.7,0.4,1.2,0.4c0.4,0,0.7,0,0.9-0.1c0.2,0,0.5-0.1,0.8-0.2c0.1,0,0.1,0,0.2,0
	c0.2,0,0.3,0.1,0.3,0.2L-129.3,407.3C-129.3,407.2-129.3,407.2-129.3,407.3L-129.3,407.3z M-116.7,394.9c1,0.6,1.8,1.4,2.4,2.4
	s0.9,2.3,0.9,3.6c0,1.3-0.3,2.6-0.8,3.7s-1.3,2-2.3,2.6c-1,0.6-2.1,1-3.4,1c-0.8,0-1.6-0.1-2.3-0.4c-0.8-0.3-1.4-0.6-2.1-1.1v0.4
	c0,0.3-0.1,0.5-0.3,0.6s-0.4,0.2-0.7,0.2h-0.8c-0.1,0-0.2,0-0.2-0.1c-0.1-0.1-0.1-0.1-0.1-0.2v-20c0-0.3,0-0.7-0.1-1
	c0-0.3-0.1-0.5-0.1-0.6V386c0-0.2,0.1-0.4,0.3-0.4h1.3c0.2,0,0.4,0.1,0.5,0.2c0.1,0.1,0.2,0.3,0.2,0.5v9c1.3-0.9,2.7-1.3,4.4-1.3
	C-118.7,394-117.7,394.3-116.7,394.9L-116.7,394.9z M-117.7,405.6c0.7-0.4,1.3-1.1,1.7-1.9c0.4-0.8,0.6-1.7,0.6-2.7
	c0-1.1-0.2-2-0.7-2.7c-0.5-0.7-1-1.3-1.8-1.7c-0.7-0.4-1.5-0.5-2.2-0.5c-1.4,0-2.8,0.4-4.1,1.3v7.5c1.3,0.9,2.7,1.4,4.1,1.4
	C-119.2,406.2-118.4,406-117.7,405.6L-117.7,405.6z M-100.1,407.2c1.1-0.6,2-1.5,2.6-2.6c0.6-1.1,1-2.3,1-3.6c0-1.3-0.3-2.5-1-3.6
	c-0.6-1.1-1.5-2-2.6-2.6c-1.1-0.6-2.3-1-3.6-1c-1.3,0-2.5,0.3-3.6,1c-1.1,0.6-2,1.5-2.6,2.6c-0.6,1.1-1,2.3-1,3.6
	c0,1.3,0.3,2.5,1,3.6s1.5,1.9,2.6,2.6s2.3,0.9,3.6,0.9C-102.4,408.2-101.2,407.9-100.1,407.2L-100.1,407.2z M-106.3,405.5
	c-0.8-0.5-1.4-1.1-1.8-1.9c-0.4-0.8-0.7-1.6-0.7-2.5c0-0.9,0.2-1.8,0.7-2.5c0.4-0.8,1.1-1.4,1.8-1.9c0.8-0.5,1.6-0.7,2.6-0.7
	c0.9,0,1.8,0.2,2.6,0.7c0.8,0.5,1.4,1.1,1.8,1.9c0.4,0.8,0.7,1.6,0.7,2.5c0,0.9-0.2,1.7-0.7,2.5c-0.4,0.8-1.1,1.4-1.8,1.9
	c-0.8,0.5-1.6,0.7-2.6,0.7C-104.6,406.2-105.5,405.9-106.3,405.5L-106.3,405.5z M-83.7,407.2c1.1-0.6,2-1.5,2.6-2.6
	c0.6-1.1,1-2.3,1-3.6c0-1.3-0.3-2.5-1-3.6c-0.6-1.1-1.5-2-2.6-2.6c-1.1-0.6-2.3-1-3.6-1c-1.3,0-2.5,0.3-3.6,1
	c-1.1,0.6-2,1.5-2.6,2.6c-0.6,1.1-1,2.3-1,3.6c0,1.3,0.3,2.5,1,3.6c0.6,1.1,1.5,1.9,2.6,2.6s2.3,0.9,3.6,0.9
	C-86,408.2-84.8,407.9-83.7,407.2L-83.7,407.2z M-89.8,405.5c-0.8-0.5-1.4-1.1-1.8-1.9c-0.4-0.8-0.7-1.6-0.7-2.5
	c0-0.9,0.2-1.8,0.7-2.5c0.4-0.8,1.1-1.4,1.8-1.9c0.8-0.5,1.7-0.7,2.6-0.7c0.9,0,1.8,0.2,2.6,0.7c0.8,0.5,1.4,1.1,1.8,1.9
	s0.7,1.6,0.7,2.5c0,0.9-0.2,1.7-0.7,2.5s-1.1,1.4-1.8,1.9c-0.8,0.5-1.6,0.7-2.6,0.7C-88.2,406.2-89.1,405.9-89.8,405.5L-89.8,405.5z
	 M-65.3,407.7c0,0.1,0,0.2-0.1,0.2c-0.1,0.1-0.2,0.1-0.3,0.1h-1.6c-0.2,0-0.3-0.1-0.5-0.2l-7.3-6.7v6.6c0,0.2-0.1,0.4-0.4,0.4h-1.4
	c-0.2,0-0.4-0.1-0.4-0.4v-20c0-0.5,0-0.8-0.1-1.1c0-0.2-0.1-0.4-0.1-0.5V386c0-0.2,0.1-0.4,0.3-0.4h1.3c0.2,0,0.4,0.1,0.5,0.2
	c0.1,0.1,0.2,0.3,0.2,0.5v14.2l6.4-6.2c0.1-0.1,0.3-0.2,0.4-0.2h1.6c0.1,0,0.2,0,0.3,0.1c0.1,0.1,0.1,0.1,0.1,0.2
	c0,0.1,0,0.2-0.1,0.3l-6.4,6l7.3,6.6C-65.3,407.5-65.3,407.6-65.3,407.7L-65.3,407.7z"/>
</svg>
