<svg xmlns="http://www.w3.org/2000/svg" width="565" height="115" viewBox="0 0 565 115">
  <g fill-rule="evenodd" transform="translate(0 -18)">
    <g fill-rule="nonzero" transform="translate(0 18)">
      <path d="M.078057242 29.6305291C.312228968 26.8048569 12.4891587 5.46400694 15.6426713 3.69991327 18.7961839 1.9358196 48.6608846.124891587 48.6608846.124891587 48.6608846.124891587 22.9332177 21.2471813 17.094536 54 11.2714657 86.7528187 16.8915872 112.402428 16.8915872 112.402428 16.8915872 112.402428-.499566349 36.6088465.078057242 29.6305291zM38.3417173 84.8169991C38.3417173 84.8169991 76.246314 17.4692108 119.849089.109280139L95.8074588 81.2888118 18.7961839 114.150911C18.7961839 114.150911 83.9583695 70.9228101 88.9852559 68.9089332L103.550737 20.8725065C103.566349 20.888118 50.971379 67.3165655 38.3417173 84.8169991z"/>
      <path d="M70.3920208,29.7241977 C70.3920208,29.7241977 38.575889,59.9479618 30.1300954,84.5516045 C30.1300954,84.5516045 26.0711188,67.5663487 27.085863,63.7571552 L70.3920208,29.7241977 Z"/>
    </g>
    <path d="M188.419905 80.1011058L176.465403 80.1011058 176.465403 94.5364929 188.419905 94.5364929C193.61485 94.5364929 196.091943 91.235387 196.091943 87.2796209 196.091943 83.3200632 193.61485 80.1011058 188.419905 80.1011058zM187.679305 56.2660348L176.465403 56.2660348 176.465403 69.7876777 187.679305 69.7876777C192.544392 69.7876777 195.262875 67.0672986 195.262875 63.0306477 195.262875 58.9864139 192.544392 56.2660348 187.679305 56.2660348zM189.578199 104.767773L165 104.767773 165 46.0379147 188.58357 46.0379147C200.051501 46.0379147 206.730174 52.4733017 206.730174 62.5345972 206.730174 69.0483412 202.440126 73.2581359 199.475829 74.6635071 203.022749 76.3007899 207.55861 80.0227488 207.55861 87.8559242 207.55861 98.8246445 200.051501 104.767773 189.578199 104.767773L189.578199 104.767773zM241.473934 63.3567141L234.045814 84.7273302 248.640442 84.7273302 241.473934 63.3567141zM255.160506 104.767773L251.693207 94.3677725 230.828752 94.3677725 227.280569 104.767773 215.324171 104.767773 236.687836 46.0379147 245.676777 46.0379147 267.115008 104.767773 255.160506 104.767773 255.160506 104.767773z"/>
    <polyline points="294.345 56.266 294.345 104.768 282.886 104.768 282.886 56.266 267.542 56.266 267.542 46.038 309.69 46.038 309.69 56.266 294.345 56.266"/>
    <polyline points="343.928 56.266 343.928 104.768 332.47 104.768 332.47 56.266 317.124 56.266 317.124 46.038 359.27 46.038 359.27 56.266 343.928 56.266"/>
    <polyline points="371.076 104.768 371.076 46.038 382.544 46.038 382.544 94.536 409.178 94.536 409.178 104.768 371.076 104.768"/>
    <polyline points="420.984 104.768 420.984 46.038 459.669 46.038 459.669 56.266 432.447 56.266 432.447 70.042 455.625 70.042 455.625 80.267 432.447 80.267 432.447 94.536 459.669 94.536 459.669 104.768 420.984 104.768"/>
    <polyline points="484.838 56.266 484.838 70.703 508.014 70.703 508.014 80.932 484.838 80.932 484.838 104.768 473.375 104.768 473.375 46.038 512.053 46.038 512.053 56.266 484.838 56.266"/>
    <polyline points="546.951 80.681 546.951 104.768 535.573 104.768 535.573 80.681 517.924 46.038 530.374 46.038 541.343 69.711 552.149 46.038 564.607 46.038 546.951 80.681"/>
  </g>
</svg>
