<svg xmlns="http://www.w3.org/2000/svg" width="453" height="144" viewBox="0 0 453 144">
  <g>
    <polygon points="73.329 127.083 66.788 143.938 130.016 140.687 127.177 113.711" transform="matrix(1 0 0 -1 0 257.65)"/>
    <polygon points="88.48 104.78 0 62.982 13.684 0 31.732 0 28.615 45.053 31.384 45.912 42.236 0 60.986 0 60.292 54.88 63.062 55.739 72.546 0 92.398 0 97.081 66.29 99.849 67.149 104.762 0 131.013 0 140.253 92.182" transform="matrix(1 0 0 -1 0 104.78)"/>
    <path d="M361.731662,120.398341 L361.548996,125.652992 L379.714275,125.867658 L379.880942,131.594308 L361.33433,131.824974 L361.148997,137.144958 L385.583591,137.716956 L385.784924,143.999604 L352.819688,143.999604 L351.837025,113.511694 L386.392922,113.511694 L386.150256,119.806342 L361.731662,120.398341 Z M197.365482,131.607641 L196.977483,125.903658 L206.145456,125.596992 L206.029456,119.806342 L186.84018,120.369007 L187.676177,137.094291 L214.060099,137.704956 L213.678767,143.999604 L179.598868,143.999604 L176.542877,113.511694 L215.373429,113.511694 L214.366765,131.90364 L197.365482,131.607641 Z M437.88477,129.248981 L412.699511,133.506302 L412.808844,136.806292 L436.902106,137.704956 L436.294108,143.999604 L405.323533,143.999604 L403.739538,128.196984 L429.343462,123.744997 L429.459462,120.841006 L402.81954,119.806342 L402.166209,113.511694 L439.451432,113.511694 L437.88477,129.248981 Z" transform="matrix(1 0 0 -1 0 257.511)"/>
    <polygon points="335.116 113.512 332.06 144 323.286 144 310.682 129.466 298.077 144 289.304 144 286.248 113.512 296.555 113.512 297.541 133.29 310.682 119.806 323.821 133.29 324.81 113.512" transform="matrix(1 0 0 -1 0 257.511)"/>
    <polygon points="291.799 96.148 271.172 96.148 269.294 1.863 294.217 1.863" transform="matrix(1 0 0 -1 0 98.012)"/>
    <path d="M355.717278,22.4139487 L332.956012,21.6792842 L332.201348,77.1297867 L356.006611,76.4084555 L355.717278,22.4139487 Z M375.665219,96.1483971 L311.35341,96.1483971 L308.849417,1.90467605 L380.231872,1.90467605 L375.665219,96.1483971 Z" transform="matrix(1 0 0 -1 0 98.053)"/>
    <polygon points="452.571 75.515 450.274 96.149 386.909 96.149 387.445 77.769 407.711 77.067 409.789 1.863 434.762 1.863 427.291 76.39" transform="matrix(1 0 0 -1 0 98.012)"/>
    <path d="M207.60248,76.8601806 L227.479754,77.5255119 L229.745081,58.7402342 L206.802482,47.9029329 L207.60248,76.8601806 Z M230.825078,1.86306921 L257.895664,1.86306921 L240.25305,44.178944 L254.331675,51.8709212 L244.713037,96.1481235 L175.609241,96.1481235 L173.334581,75.7148506 L188.793202,76.2308491 L181.338557,1.86306921 L205.531819,1.86306921 L206.186484,25.5696657 L223.618432,35.0923042 L230.825078,1.86306921 Z" transform="matrix(1 0 0 -1 0 98.011)"/>
    <path d="M243.991051,127.252049 L246.087045,137.226686 L256.151015,137.681351 L258.253676,127.672047 L243.991051,127.252049 Z M261.231,113.510756 L271.666969,113.510756 L263.40966,143.999999 L238.923066,143.999999 L230.667091,113.510756 L241.10306,113.510756 L242.719055,121.202733 L259.660338,120.984067 L261.231,113.510756 Z" transform="matrix(1 0 0 -1 0 257.51)"/>
  </g>
</svg>
