<?xml version="1.0" encoding="UTF-8" standalone="no"?>
<svg width="136px" height="232px" viewBox="0 0 136 232" version="1.1" xmlns="http://www.w3.org/2000/svg" xmlns:xlink="http://www.w3.org/1999/xlink">
    <!-- Generator: Sketch 3.8.3 (29802) - http://www.bohemiancoding.com/sketch -->
    <title>Group 6</title>
    <desc>Created with Sketch.</desc>
    <defs></defs>
    <g id="Welcome" stroke="none" stroke-width="1" fill="none" fill-rule="evenodd">
        <g id="Artboard-3-Copy" transform="translate(-308.000000, -166.000000)">
            <g id="Group-6" transform="translate(308.000000, 166.000000)">
                <rect id="Rectangle-13" fill="#2A2A2A" x="0" y="0" width="135.579357" height="231.105646"></rect>
                <rect id="Rectangle-148" fill="#9AE407" x="14.7750156" y="16.6024171" width="57.6929179" height="3.32048341" rx="1.66024171"></rect>
                <rect id="Rectangle-148-Copy" fill="#5DD2E6" x="14.7750156" y="28.2019725" width="77.3929387" height="3.32048341" rx="1.66024171"></rect>
                <rect id="Rectangle-148-Copy-6" fill="#D8D8D8" x="14.7750156" y="86.1997494" width="65.0804257" height="3.32048341" rx="1.66024171"></rect>
                <rect id="Rectangle-148-Copy-11" fill="#5DD2E6" x="14.7750156" y="132.597971" width="65.0804257" height="3.32048341" rx="1.66024171"></rect>
                <rect id="Rectangle-148-Copy-23" fill="#D8D8D8" x="57.6929179" y="155.797082" width="51.3607684" height="3.32048341" rx="1.66024171"></rect>
                <rect id="Rectangle-148-Copy-2" fill="#FC1E6D" x="14.7750156" y="39.8015278" width="24.6250259" height="3.32048341" rx="1.66024171"></rect>
                <rect id="Rectangle-148-Copy-17" fill="#FF9800" x="99.9072481" y="28.5561574" width="24.6250259" height="3.32048341" rx="1.66024171"></rect>
                <rect id="Rectangle-148-Copy-16" fill="#D8D8D8" x="47.1393354" y="39.8015278" width="65.0804257" height="3.32048341" rx="1.66024171"></rect>
                <rect id="Rectangle-148-Copy-7" fill="#D8D8D8" x="87.242949" y="132.819337" width="28.846459" height="3.32048341" rx="1.66024171"></rect>
                <rect id="Rectangle-148-Copy-22" fill="#FC1E6D" x="14.7750156" y="97.7993048" width="28.846459" height="3.32048341" rx="1.66024171"></rect>
                <rect id="Rectangle-148-Copy-20" fill="#D8D8D8" x="50.6571962" y="97.7993048" width="41.510758" height="3.32048341" rx="1.66024171"></rect>
                <rect id="Rectangle-148-Copy-12" fill="#FC1E6D" x="14.7750156" y="155.797082" width="35.8821807" height="3.32048341" rx="1.66024171"></rect>
                <rect id="Rectangle-148-Copy-3" fill="#9AE407" x="14.7750156" y="51.4010832" width="77.3929387" height="3.32048341" rx="1.66024171"></rect>
                <rect id="Rectangle-148-Copy-8" fill="#D8D8D8" x="14.7750156" y="109.39886" width="51.3607684" height="3.32048341" rx="1.66024171"></rect>
                <rect id="Rectangle-148-Copy-21" fill="#FF9800" x="73.1715056" y="109.39886" width="41.510758" height="3.32048341" rx="1.66024171"></rect>
                <rect id="Rectangle-148-Copy-13" fill="#5DD2E6" x="14.7750156" y="167.396637" width="77.3929387" height="3.32048341" rx="1.66024171"></rect>
                <rect id="Rectangle-148-Copy-4" fill="#D8D8D8" x="14.7750156" y="63.0006386" width="51.3607684" height="3.32048341" rx="1.66024171"></rect>
                <rect id="Rectangle-148-Copy-18" fill="#FF9800" x="73.1715056" y="63.0891849" width="39.4000415" height="3.32048341" rx="1.66024171"></rect>
                <rect id="Rectangle-148-Copy-9" fill="#D8D8D8" x="14.7750156" y="120.998416" width="90.0572377" height="3.32048341" rx="1.66024171"></rect>
                <rect id="Rectangle-148-Copy-14" fill="#D8D8D8" x="14.7750156" y="178.996193" width="51.3607684" height="3.32048341" rx="1.66024171"></rect>
                <rect id="Rectangle-148-Copy-5" fill="#5DD2E6" x="14.7750156" y="74.600194" width="41.510758" height="3.32048341" rx="1.66024171"></rect>
                <rect id="Rectangle-148-Copy-19" fill="#D8D8D8" x="63.3214953" y="74.600194" width="52.7679127" height="3.32048341" rx="1.66024171"></rect>
                <rect id="Rectangle-148-Copy-10" fill="#9AE407" x="14.7750156" y="144.197526" width="20.755379" height="3.32048341" rx="1.66024171"></rect>
            </g>
        </g>
    </g>
</svg>