<svg width="211" height="290" viewBox="0 0 211 290" xmlns="http://www.w3.org/2000/svg">
  <g fill="none" fill-rule="evenodd">
    <path d="M204.83669 5.6085437c7.460257 7.4660922 7.46518 19.575 0 27.0460194L138.19445 99.348932c3.729777-3.7326941 8.62357-5.6043203 13.517363-5.6043203.855254 0 1.705584.0549029 2.55099.1738592 4.01322.5328398 7.88296 2.3446359 10.966374 5.4304611 7.460256 7.466092 7.460256 19.580631-.004924 27.050947l-9.324793 9.332087c3.7347-3.737621 8.62357-5.60432 13.517363-5.60432 4.893794 0 9.787587 1.871626 13.517364 5.60432 7.46518 7.471019 7.460256 19.580631-.004924 27.050947l-6.346176 6.360995c6.4355-6.440534 16.944003-6.793884 23.479376-.452597 3.361934 3.255461 5.033054 7.575194 5.037977 11.900558 0 4.23034-1.61626 8.476165-4.84878 11.711214l-59.13275 59.179004c-3.10803 3.110462-6.425653 5.992864-9.936693 8.620462-3.506117 2.633228-7.206354 5.012354-11.055697 7.122597-5.47545 3.001359-10.722317 6.380704-15.705433 10.123956-4.9781937 3.737621-9.6933403 7.829296-14.1095703 12.248981L.16458 199.381335l13.8655133-13.876359c2.24293-2.244685 3.7297767-5.027136 4.3916134-7.998228.66676-2.976724.50218-6.137161-.57181-9.123034-1.0346034-2.876772-2.0045-7.002937-2.79997-10.954539-1.4868467-7.361214-.9101134-14.996238 1.6408766-22.059005l17.16274-47.4677914c2.9293834-8.1277427 10.3397034-13.7820388 18.94358-14.4584708l11.2195734-.8861894c6.5100533-.5124271 12.49331-3.7826699 16.4369-8.9738106.47264-.622233.97482-1.2043447 1.5072433-1.7371845 6.4108833-6.4158981 17.0037867-6.5848301 23.608087.0246359.910113.9108253 1.74075 1.8716262 2.496833 2.8669175 1.61626 2.1250243 2.88437 4.4295388 3.809253 6.838932L177.80126 5.5993932C181.53596 1.86177184 186.42483-.00492718 191.323547 0c4.88887.0042233 9.782663 1.8758495 13.513143 5.6085437z" fill="#FDE1C2"/>
    <path d="M108.06576 64.7375728c1.61626 2.1250243 2.88437 4.4295389 3.809253 6.8389321L61.2462667 122.244854c-1.4720767-1.473228-2.20284-3.399757-2.20284-5.330509.0049233-1.925826.7356866-3.852355 2.2084666-5.325583L108.06576 64.7375728z" fill="#F3CBA5" opacity=".62097715"/>
  </g>
</svg>
