<?xml version="1.0" encoding="UTF-8" standalone="no"?>
<svg width="137px" height="232px" viewBox="0 0 137 232" version="1.1" xmlns="http://www.w3.org/2000/svg" xmlns:xlink="http://www.w3.org/1999/xlink">
    <!-- Generator: Sketch 3.8.3 (29802) - http://www.bohemiancoding.com/sketch -->
    <title>Group 10</title>
    <desc>Created with Sketch.</desc>
    <defs></defs>
    <g id="Welcome" stroke="none" stroke-width="1" fill="none" fill-rule="evenodd">
        <g id="Artboard-3-Copy" transform="translate(-608.000000, -163.000000)">
            <g id="Group-10" transform="translate(608.000000, 163.000000)">
                <polygon id="Rectangle-13-Copy-4" fill="#EDEDED" points="0.575506072 6.29738135e-06 136.579357 0 136.579357 231.105646 0.575506072 231.105652"></polygon>
                <g id="Group-7" transform="translate(7.332150, 49.807251)">
                    <rect id="Rectangle-178" fill="#FFFFFF" x="0" y="0" width="122.421558" height="46.2849855"></rect>
                    <rect id="Rectangle-182" fill="#DDDDDD" x="54.1750571" y="5.31277346" width="61.2107788" height="1.32819337"></rect>
                    <rect id="Rectangle-182-Copy" fill="#DDDDDD" x="54.1750571" y="9.96145024" width="61.2107788" height="1.32819337"></rect>
                    <rect id="Rectangle-182-Copy-2" fill="#DDDDDD" x="54.1750571" y="14.610127" width="61.2107788" height="1.32819337"></rect>
                    <rect id="Rectangle-182-Copy-3" fill="#DDDDDD" x="54.1750571" y="19.2588038" width="61.2107788" height="1.32819337"></rect>
                    <rect id="Rectangle-182-Copy-4" fill="#DDDDDD" x="54.1750571" y="23.9074806" width="61.2107788" height="1.32819337"></rect>
                    <rect id="Rectangle-182-Copy-10" fill="#F2F2F2" x="77.3929387" y="33.2048341" width="21.8107373" height="1.32819337"></rect>
                    <rect id="Rectangle-182-Copy-11" fill="#F2F2F2" x="83.7250882" y="36.5253175" width="15.4785877" height="1.32819337"></rect>
                    <ellipse id="Oval-9" fill="#D8D8D8" cx="109.053686" cy="35.1971242" rx="5.62857736" ry="5.31277346"></ellipse>
                    <rect id="Rectangle-179" fill="#DDDDDD" x="0" y="0" width="47.8429075" height="46.2849855"></rect>
                </g>
                <g id="Group-7-Copy" transform="translate(8.035722, 103.599082)">
                    <rect id="Rectangle-178" fill="#FFFFFF" x="0" y="0" width="122.421558" height="46.2849855"></rect>
                    <rect id="Rectangle-182-Copy" fill="#DDDDDD" x="35.1786085" y="9.96145024" width="52.4033052" height="1.32819337"></rect>
                    <rect id="Rectangle-182-Copy-2" fill="#DDDDDD" x="29.5500311" y="14.610127" width="62.9568878" height="1.32819337"></rect>
                    <rect id="Rectangle-182-Copy-3" fill="#DDDDDD" x="28.1428868" y="19.2588038" width="66.4747486" height="1.32819337"></rect>
                    <rect id="Rectangle-182-Copy-4" fill="#DDDDDD" x="38.6964693" y="23.9074806" width="44.6640114" height="1.32819337"></rect>
                    <ellipse id="Oval-9" fill="#D8D8D8" cx="61.2107788" cy="35.8612209" rx="5.62857736" ry="5.31277346"></ellipse>
                </g>
                <g id="Group-3" transform="translate(59.396490, 211.182745)">
                    <rect id="Rectangle-202" fill="#DDDDDD" x="0" y="0" width="19.7000207" height="7.96916019"></rect>
                    <ellipse id="Oval-12" fill="#FFFFFF" cx="4.25420763" cy="3.9845801" rx="1.43991895" ry="1.32819337"></ellipse>
                    <ellipse id="Oval-12-Copy" fill="#FFFFFF" cx="9.88278499" cy="3.9845801" rx="1.43991895" ry="1.32819337"></ellipse>
                    <ellipse id="Oval-12-Copy-2" fill="#FFFFFF" cx="15.5113623" cy="3.9845801" rx="1.43991895" ry="1.32819337"></ellipse>
                </g>
                <g id="Group-8" transform="translate(7.332150, 156.062720)">
                    <rect id="Rectangle-178-Copy" fill="#FFFFFF" x="0" y="0" width="122.421558" height="46.2849855"></rect>
                    <rect id="Rectangle-182-Copy-5" fill="#DDDDDD" x="53.4714849" y="5.6448218" width="61.2107788" height="1.32819337"></rect>
                    <rect id="Rectangle-182-Copy-6" fill="#DDDDDD" x="53.4714849" y="10.2934986" width="61.2107788" height="1.32819337"></rect>
                    <rect id="Rectangle-182-Copy-7" fill="#DDDDDD" x="53.4714849" y="14.9421754" width="61.2107788" height="1.32819337"></rect>
                    <rect id="Rectangle-182-Copy-8" fill="#DDDDDD" x="53.4714849" y="19.5908521" width="61.2107788" height="1.32819337"></rect>
                    <rect id="Rectangle-182-Copy-9" fill="#DDDDDD" x="53.4714849" y="24.2395289" width="61.2107788" height="1.32819337"></rect>
                    <ellipse id="Oval-9-Copy" fill="#D8D8D8" cx="108.350114" cy="35.5291725" rx="5.62857736" ry="5.31277346"></ellipse>
                    <rect id="Rectangle-182-Copy-10" fill="#F2F2F2" x="76.6893665" y="33.2048341" width="21.8107373" height="1.32819337"></rect>
                    <rect id="Rectangle-182-Copy-11" fill="#F2F2F2" x="83.021516" y="36.5253175" width="15.4785877" height="1.32819337"></rect>
                    <rect id="Rectangle-179-Copy" fill="#DDDDDD" x="0" y="0" width="47.8429075" height="46.2849855"></rect>
                </g>
                <g id="Group-5" transform="translate(1.000000, 0.000000)">
                    <rect id="Rectangle-197" fill="#CCCCCC" x="0" y="0" width="135.789429" height="14.610127"></rect>
                    <path d="M45.1822511,6.82038218 C45.4859745,6.35452335 46.1778551,5.97687014 46.7358112,5.97687014 L89.7571897,5.97687014 C90.3114738,5.97687014 91.0026628,6.3478304 91.3107498,6.82038218 L96.3893872,14.610127 L40.1036137,14.610127 L45.1822511,6.82038218 Z" id="Rectangle-177" fill="#E6E6E6"></path>
                    <ellipse id="Oval-5" fill="#DF7062" cx="7.73929387" cy="7.30506351" rx="2.81428868" ry="2.65638673"></ellipse>
                    <ellipse id="Oval-5-Copy" fill="#E5C734" cx="17.5893042" cy="7.30506351" rx="2.81428868" ry="2.65638673"></ellipse>
                    <ellipse id="Oval-5-Copy-2" fill="#55CE86" cx="27.4393146" cy="7.30506351" rx="2.81428868" ry="2.65638673"></ellipse>
                    <rect id="Rectangle-171" fill="#E6E6E6" x="0" y="14.610127" width="135.789429" height="13.9460303"></rect>
                </g>
                <g id="Group-4" transform="translate(1.000000, 28.556157)">
                    <rect id="Rectangle-171-Copy" fill="#9E9E9E" x="0" y="0" width="135.789429" height="13.9460303"></rect>
                    <rect id="Rectangle-173" fill="#BFBFBF" x="56.9893457" y="5.97687014" width="13.3678712" height="1.7891455"></rect>
                    <rect id="Rectangle-173-Copy" fill="#BFBFBF" x="76.6893665" y="5.97687014" width="13.3678712" height="1.7891455"></rect>
                    <rect id="Rectangle-173-Copy-2" fill="#BFBFBF" x="96.3893872" y="5.97687014" width="13.3678712" height="1.7891455"></rect>
                    <rect id="Rectangle-173-Copy-3" fill="#BFBFBF" x="116.089408" y="5.97687014" width="13.3678712" height="1.7891455"></rect>
                    <ellipse id="Oval-5-Copy-3" fill="#BFBFBF" cx="8.09107995" cy="6.97301517" rx="4.5732191" ry="4.31662844"></ellipse>
                </g>
                <path d="M118.587656,122.001984 C118.182169,121.962233 117.846867,121.821448 117.581741,121.579626 C117.316615,121.337805 117.184053,121.057892 117.184053,120.73988 C117.184053,120.401992 117.314665,120.117111 117.575893,119.885227 C117.83712,119.653343 118.158776,119.537403 118.540869,119.537403 C118.977548,119.537403 119.355737,119.688125 119.675448,119.989574 C119.995159,120.291023 120.155013,120.657063 120.155013,121.087704 C120.155013,122.379628 119.308961,123.389964 117.616831,124.118741 L117.16066,123.403218 C118.111996,123.005703 118.587656,122.53863 118.587656,122.001984 L118.587656,122.001984 Z M114.306668,122.001984 C113.893383,121.962233 113.554182,121.821448 113.289056,121.579626 C113.02393,121.337805 112.891368,121.057892 112.891368,120.73988 C112.891368,120.401992 113.02198,120.117111 113.283207,119.885227 C113.544435,119.653343 113.869989,119.537403 114.259881,119.537403 C114.69656,119.537403 115.072799,119.688125 115.388612,119.989574 C115.704424,120.291023 115.862328,120.657063 115.862328,121.087704 C115.862328,122.379628 115.016275,123.389964 113.324146,124.118741 L112.867975,123.403218 C113.827108,123.005703 114.306668,122.53863 114.306668,122.001984 L114.306668,122.001984 Z" id="“”" fill="#DCDCDC"></path>
                <g id="Group-9" transform="translate(17.885732, 119.537403)" fill="#DCDCDC">
                    <path d="M7.27534094,0.715523591 C6.32400543,1.11303868 5.84834481,1.58011191 5.84834481,2.11675729 C6.25383208,2.1565088 6.58913383,2.29729328 6.85426012,2.53911496 C7.11938641,2.78093665 7.25194757,3.06084933 7.25194757,3.3788614 C7.25194757,3.71674923 7.12328527,4.00163077 6.86595681,4.23351458 C6.60862835,4.46539838 6.28502317,4.58133855 5.89513157,4.58133855 C5.45845297,4.58133855 5.08026379,4.43061633 4.76055268,4.12916739 C4.44084156,3.82771844 4.2809884,3.46167878 4.2809884,3.03103743 C4.2809884,1.73911338 5.13093935,0.728777672 6.83086674,0 L7.27534094,0.715523591 Z" id="Path"></path>
                    <path d="M2.99435254,0.715523591 C2.0352192,1.11303868 1.55565972,1.58011191 1.55565972,2.11675729 C1.96894482,2.1565088 2.30814543,2.29729328 2.57327172,2.53911496 C2.83839801,2.78093665 2.97095916,3.06084933 2.97095916,3.3788614 C2.97095916,3.71674923 2.84034744,4.00163077 2.57912006,4.23351458 C2.31789269,4.46539838 1.99233808,4.58133855 1.60244648,4.58133855 C1.16576788,4.58133855 0.789528129,4.43061633 0.47371593,4.12916739 C0.157903731,3.82771844 0,3.46167878 0,3.03103743 C0,1.73911338 0.846052089,0.728777672 2.53818165,0 L2.99435254,0.715523591 Z" id="Path"></path>
                </g>
            </g>
        </g>
    </g>
</svg>